<?xml version="1.0" encoding="utf-8"?>
<!-- Generator: Adobe Illustrator 27.2.0, SVG Export Plug-In . SVG Version: 6.00 Build 0)  -->
<svg version="1.1" id="Слой_1" xmlns="http://www.w3.org/2000/svg" xmlns:xlink="http://www.w3.org/1999/xlink" x="0px" y="0px"
	 viewBox="0 0 1837.7 691.8" style="enable-background:new 0 0 1837.7 691.8;" xml:space="preserve">
<style type="text/css">
	.st0{fill:#FFFFFF;}
</style>
<g>
	<g>
		<path class="st0" d="M536,296.6h16.2v98.6H536V296.6z"/>
		<path class="st0" d="M659.3,296.6v98.6h-16.2v-70.3l-30,49.6h-2l-30-49.7v70.4h-16.2v-98.6h17.5l29.7,49.3l29.9-49.3H659.3z"/>
		<path class="st0" d="M736.2,395.2l-6.9-19.9h-42l-6.9,19.9h-17.6l35.8-98.6H718l35.6,98.6H736.2z M692.6,360.1h31.3l-15.6-44.5
			L692.6,360.1z"/>
		<path class="st0" d="M849.4,344.2v6.8c0,13.5-4.5,24.6-13.4,33.2c-8.9,8.6-20.6,12.9-34.9,12.9c-15.2,0-27.8-4.9-37.7-14.8
			c-9.9-9.9-14.9-22-14.9-36.3c0-14.3,5-26.4,14.9-36.3c9.9-9.9,22.2-14.9,36.8-14.9c9.2,0,17.6,2.1,25.2,6.3
			c7.6,4.2,13.5,9.9,17.7,17l-13.9,8c-2.6-4.7-6.5-8.5-11.7-11.3c-5.2-2.9-10.9-4.3-17.3-4.3c-10.3,0-18.8,3.4-25.5,10.1
			c-6.7,6.8-10,15.2-10,25.4c0,10.1,3.4,18.5,10.1,25.2c6.7,6.7,15.5,10,26.4,10c8.7,0,15.8-2,21.3-6.1c5.5-4.1,9-9.6,10.5-16.4h-33
			v-14.5H849.4z"/>
		<path class="st0" d="M857.2,296.6h16.2v98.6h-16.2V296.6z"/>
		<path class="st0" d="M945.2,296.6h16.2v98.6h-12.7l-46.5-66.9v66.9H886v-98.6h12.7l46.5,66.9V296.6z"/>
		<path class="st0" d="M990.2,379.7h43.7v15.5h-59.9v-98.6h59.2v15.5h-43v25.6h39.4v15.4h-39.4V379.7z"/>
		<path class="st0" d="M1074.5,397c-9.5,0-17.5-2.2-24.2-6.5c-6.6-4.3-11.2-10.2-13.9-17.7l13.9-8.2c3.9,11.1,12.1,16.6,24.5,16.6
			c6.1,0,10.7-1.2,13.7-3.6c3.1-2.4,4.6-5.5,4.6-9.4c0-4-1.6-7.1-4.9-9.2c-3.3-2.1-9.1-4.4-17.5-7c-4.7-1.4-8.5-2.7-11.4-3.9
			c-2.9-1.2-6-2.9-9.2-5.1c-3.2-2.2-5.7-5-7.3-8.2c-1.6-3.3-2.4-7.1-2.4-11.5c0-8.7,3.1-15.7,9.3-20.8c6.2-5.1,13.7-7.7,22.4-7.7
			c7.9,0,14.8,1.9,20.7,5.8c5.9,3.9,10.5,9.2,13.7,15.9l-13.7,7.9c-4.1-9.2-11-13.8-20.7-13.8c-4.7,0-8.4,1.1-11.3,3.3
			c-2.8,2.2-4.2,5.2-4.2,8.9c0,3.7,1.4,6.5,4.3,8.7c2.9,2.1,8.1,4.3,15.6,6.7c3.8,1.2,6.5,2.1,8.2,2.7c1.7,0.6,4.2,1.6,7.3,2.9
			c3.1,1.3,5.5,2.6,7.1,3.9c1.6,1.3,3.3,3,5.1,4.9c1.8,2,3.1,4.2,3.9,6.8c0.8,2.5,1.1,5.4,1.1,8.6c0,8.9-3.2,16-9.6,21.2
			C1093.3,394.4,1084.9,397,1074.5,397z"/>
		<path class="st0" d="M1176.9,296.6v15.5h-27.7v83.1h-16.2v-83.1H1105v-15.5H1176.9z"/>
		<path class="st0" d="M1245,387.7c-6.9,6.2-15.9,9.4-26.9,9.4s-20-3.1-26.9-9.4c-6.9-6.2-10.4-14.6-10.4-25.1v-65.9h16.2v64.9
			c0,6,1.8,10.8,5.3,14.4c3.5,3.6,8.8,5.4,15.8,5.4c7,0,12.3-1.8,15.8-5.4c3.5-3.6,5.3-8.4,5.3-14.4v-64.9h16.2v65.9
			C1255.5,373,1252,381.4,1245,387.7z"/>
		<path class="st0" d="M1305.7,296.6c13.5,0,24.8,4.7,33.7,14.2c9,9.5,13.5,21.2,13.5,35.1c0,13.8-4.5,25.5-13.5,35
			c-9,9.5-20.2,14.3-33.7,14.3H1267v-98.6H1305.7z M1305.7,379.7c9.3,0,16.9-3.2,22.7-9.6c5.9-6.4,8.8-14.5,8.8-24.2
			c0-9.9-2.9-18-8.8-24.3c-5.9-6.3-13.5-9.5-22.7-9.5h-22.5v67.6H1305.7z"/>
		<path class="st0" d="M1360.7,296.6h16.2v98.6h-16.2V296.6z"/>
		<path class="st0" d="M1472,382.2c-9.9,9.9-22,14.9-36.3,14.9c-14.3,0-26.4-5-36.3-14.9c-9.9-9.9-14.9-22-14.9-36.3
			c0-14.3,5-26.4,14.9-36.3c9.9-9.9,22-14.9,36.3-14.9c14.3,0,26.4,5,36.3,14.9c9.9,9.9,14.9,22,14.9,36.3
			C1486.9,360.2,1481.9,372.3,1472,382.2z M1410.9,371.2c6.7,6.7,15,10.1,24.9,10.1c9.9,0,18.1-3.4,24.9-10.1
			c6.7-6.7,10.1-15.1,10.1-25.3c0-10.1-3.4-18.6-10.1-25.3c-6.7-6.7-15-10.1-24.9-10.1c-9.9,0-18.1,3.4-24.9,10.1
			c-6.7,6.7-10.1,15.1-10.1,25.3C1400.8,356.1,1404.2,364.5,1410.9,371.2z"/>
	</g>
	<path class="st0" d="M708.5,409.3c-25.9,70.6-93.7,121-173.3,121c-101.9,0-184.5-82.6-184.5-184.5c0-101.9,82.6-184.5,184.5-184.5
		c79.6,0,147.4,50.4,173.3,121c-24.9-60.4-84.4-102.9-153.8-102.9c-91.9,0-166.3,74.5-166.3,166.3c0,91.9,74.5,166.3,166.3,166.3
		C624.1,512.2,683.6,469.7,708.5,409.3z"/>
	<circle class="st0" cx="474.1" cy="238.7" r="8.7"/>
	<circle class="st0" cx="474.1" cy="291.6" r="8.7"/>
	<circle class="st0" cx="474.1" cy="344.5" r="8.7"/>
	<circle class="st0" cx="474.1" cy="397.5" r="8.7"/>
	<circle class="st0" cx="474.1" cy="450.4" r="8.7"/>
</g>
</svg>
