<?xml version="1.0" encoding="utf-8"?>
<!-- Generator: Adobe Illustrator 27.2.0, SVG Export Plug-In . SVG Version: 6.00 Build 0)  -->
<svg version="1.1" id="Слой_1" xmlns="http://www.w3.org/2000/svg" xmlns:xlink="http://www.w3.org/1999/xlink" x="0px" y="0px"
	 viewBox="0 0 45.2 37.6" style="enable-background:new 0 0 45.2 37.6;" xml:space="preserve">
<style type="text/css">
	.st0{fill:#FFFFFF;}
</style>
<path class="st0" d="M45,1.1c-0.2-0.5-0.4-0.6-0.7-0.7c-0.7-0.2-1.8,0.1-1.8,0.1S3.1,14.7,0.9,16.2c-0.5,0.3-0.6,0.5-0.7,0.8
	C-0.2,18.1,1,18.6,1,18.6l10.1,3.3c0,0,0.4,0.1,0.5,0C13.9,20.4,34.8,7.2,36,6.8c0.2-0.1,0.3,0,0.3,0.1
	c-0.5,1.7-18.7,17.8-18.7,17.8s-0.1,0.1-0.1,0.2l0,0L16.6,35c0,0-0.4,3.1,2.7,0c2.2-2.2,4.3-4,5.3-4.9c3.5,2.4,7.2,5.1,8.9,6.5
	c0.8,0.7,1.5,0.8,2.1,0.8c1.5-0.1,2-1.7,2-1.7S44.8,6.8,45,3c0-0.4,0.1-0.6,0.1-0.9C45.1,1.6,45.1,1.3,45,1.1z"/>
</svg>
