<?xml version="1.0" encoding="utf-8"?>
<!-- Generator: Adobe Illustrator 27.2.0, SVG Export Plug-In . SVG Version: 6.00 Build 0)  -->
<svg version="1.1" id="Слой_1" xmlns="http://www.w3.org/2000/svg" xmlns:xlink="http://www.w3.org/1999/xlink" x="0px" y="0px"
	 viewBox="0 0 46.2 27.2" style="enable-background:new 0 0 46.2 27.2;" xml:space="preserve">
<style type="text/css">
	.st0{fill:#FFFFFF;}
</style>
<path class="st0" d="M45.9,2.1c-0.6-0.5-2.8-0.5-5-0.5s-4.5,0-5,0.2S34.3,4.6,33,7.2c-1.6,3-3.5,5.9-4.8,5.9c-1.6,0-1.2-5-1.1-8.6
	c0.1-2.4-0.3-3.2-0.7-3.4C25.5,0.5,23.2,0,23.2,0s-6.9-0.5-7.9,2.5c1.3,0.2,3.6-0.2,2.7,9.1c0,0.5-1.1,4.3-4.3-0.9
	c-0.8-1.3-3.9-9-5-9.1C5.1,1.5,1.6,1.4,0.3,2.1c-1.1,0.6,1.6,6,6.1,13.2c3.7,5.8,7.7,10.4,14.5,11.6c1.3,0.1,4.6,0.3,5.7-0.2
	c0.7-0.4-0.2-5.4,2.3-5.9c1.1-0.2,5.2,5.3,6.8,5.9c1,0.4,3.1,0.5,5.2,0.5c2.3-0.1,5,0.2,5.2-1.4c0.6-3.5-7-8-7.3-10.2
	c-0.2-1.5,2.8-4.4,4.3-6.6C45,6.3,47.1,3.1,45.9,2.1z"/>
</svg>
