<?xml version="1.0" encoding="utf-8"?>
<!-- Generator: Adobe Illustrator 27.2.0, SVG Export Plug-In . SVG Version: 6.00 Build 0)  -->
<svg version="1.1" id="Слой_1" xmlns="http://www.w3.org/2000/svg" xmlns:xlink="http://www.w3.org/1999/xlink" x="0px" y="0px"
	 viewBox="0 0 48.9 49.3" style="enable-background:new 0 0 48.9 49.3;" xml:space="preserve">
<style type="text/css">
	.st0{fill-rule:evenodd;clip-rule:evenodd;fill:#FFFFFF;}
</style>
<g>
	<g id="WA_Logo_10_">
		<g>
			<path class="st0" d="M41.8,7.2C37.2,2.6,31.1,0,24.5,0C11,0,0.1,11,0.1,24.4c0,4.3,1.1,8.5,3.3,12.2l-3.5,12.7l12.9-3.4
				c3.6,1.9,7.6,3,11.7,3l0,0l0,0c13.5,0,24.4-11,24.4-24.4C49,17.9,46.4,11.8,41.8,7.2z M24.5,44.7L24.5,44.7
				c-3.7,0-7.2-1-10.3-2.8l-0.7-0.4l-7.7,2L7.9,36l-0.5-0.8c-2-3.2-3.1-7-3.1-10.8c0-11.2,9.1-20.3,20.3-20.3c5.4,0,10.5,2.1,14.3,6
				c3.8,3.8,5.9,8.9,5.9,14.4C44.8,35.6,35.7,44.7,24.5,44.7z M35.7,29.5c-0.6-0.3-3.6-1.8-4.2-2c-0.6-0.2-1-0.3-1.4,0.3
				s-1.6,2-1.9,2.4c-0.4,0.4-0.7,0.5-1.3,0.2c-0.6-0.3-2.6-0.9-4.9-3c-1.8-1.6-3-3.6-3.4-4.2c-0.4-0.6,0-0.9,0.3-1.2
				s0.6-0.7,0.9-1.1c0.3-0.4,0.4-0.6,0.6-1c0.2-0.4,0.1-0.8-0.1-1.1c-0.2-0.3-1.4-3.3-1.9-4.5s-1-1-1.4-1s-0.8,0-1.2,0
				s-1.1,0.2-1.6,0.8c-0.6,0.6-2.1,2.1-2.1,5.1s2.2,5.9,2.5,6.3c0.3,0.4,4.3,6.6,10.4,9.2c1.5,0.6,2.6,1,3.5,1.3
				c1.5,0.5,2.8,0.4,3.8,0.2c1.2-0.2,3.6-1.5,4.1-2.9s0.5-2.6,0.4-2.9C36.7,30,36.3,29.8,35.7,29.5z"/>
		</g>
	</g>
</g>
</svg>
