<?xml version="1.0" encoding="utf-8"?>
<!-- Generator: Adobe Illustrator 27.2.0, SVG Export Plug-In . SVG Version: 6.00 Build 0)  -->
<svg version="1.1" id="Слой_1" xmlns="http://www.w3.org/2000/svg" xmlns:xlink="http://www.w3.org/1999/xlink" x="0px" y="0px"
	 viewBox="0 0 81.6 100.7" style="enable-background:new 0 0 81.6 100.7;" xml:space="preserve">
<style type="text/css">
	.st0{fill:#FFFFFF;}
</style>
<g>
	<path class="st0" d="M70.1,14.5c-3.9-5.3-8.6-9.7-14.7-12.4c-5-2.2-9.9-2.5-15,0.1c-4,2.1-6.6,5.4-8.5,9.4
		c-2.6,5.3-3.5,11-3.6,16.9c0,1.5,0.1,3.2,0.1,4.8c0,1.2,0.6,1.7,1.4,1.7c1-0.1,1.3-0.9,1.2-1.8c0-0.3,0-0.5,0-0.8
		c-0.3-4-0.1-8,0.6-11.9c0.9-4.8,2.6-9.2,5.9-12.8c3.4-3.7,7.6-5.4,12.6-4.5c3.5,0.6,6.4,2.2,9.2,4.4C71.2,17,77.5,29.5,78,44.6
		c0.4,12.8-0.1,25.5-0.3,38.3c0,1.3,0,2.6,0,3.9c0.1,2.3-0.1,4.6-1,6.8c-1.3,3-4.8,5.7-8.9,3.2c-2.6-1.5-5-3.2-7.1-5.3
		C49.1,80,40.8,66.4,34.8,51.1c-0.8-2.1-1.4-4.3-2.1-6.4c-0.3-0.8-0.8-1.3-1.7-1c-0.8,0.3-1,0.9-0.9,1.7c0.1,0.4,0.3,0.9,0.4,1.3
		c5.5,17.2,14.6,32.2,27,45.4c2.6,2.8,5.4,5.3,8.9,7c1.5,0.8,3.2,1.4,5,1.3c3.9-0.3,7-3,8.3-7.2c0.8-2.7,0.6-5.4,0.6-8.3
		c-0.1-6.3,0-12.5,0-18.8c0.1,0,0.3,0,0.4,0c0-6.2-0.1-12.3,0-18.4C81.1,35.3,77.3,24.3,70.1,14.5z"/>
	<path class="st0" d="M56.7,41.5c-0.4,0.8-0.5,1.4,0.3,2.1c0.8,0.5,1.4,0.3,1.8-0.5c1.7-3.1,3.5-6.1,5-9.2c0.6-1.2,0.9-2.7,0.9-4.1
		C65,21,57.9,11.9,49.4,9.9c-6.6-1.5-11.5,1-13.9,7.2c-0.8,2.1-1.3,4.1-1.7,6.3c-0.9,6.3-0.1,12.6,1.4,18.8c0.5,2.1,1.2,4.1,1.8,6.2
		c0.3,0.8,0.9,1.2,1.7,0.9s1-0.9,0.8-1.8c-0.1-0.4-0.3-0.8-0.4-1.3c-1.7-5.3-2.8-10.7-3-16.4c-0.1-4.1,0.3-8.3,1.8-12.1
		c1.9-4.6,5.5-6.6,10.3-5.4c5.9,1.3,9.9,5,12.4,10.4c0.6,1.3,0.9,2.6,1.4,4c-0.8,0.3-1.2,0.4-1.7,0.5c-3,1.3-6.2,1.9-8.8,3.9
		c-8.1,5.8-11.1,14.6-7,24c2.6,5.8,6.4,10.3,12.3,13c1.3,0.6,2.6,1.7,3.6,2.7c1.3,1.2,2.3,2.5,3.6,3.5c1.2,1,2.3,2.1,3.6,2.7
		c2.3,1.3,4.6,0.1,5.2-2.4c0.6-3.5,0.4-6.8-2.1-9.8c-1.7-1.9-3.1-4.3-3.9-6.8c-0.6-2.5-0.5-4.6,1.4-6.6c0.8-0.8,0.9-1.5,0.4-2.2
		c-0.5-0.6-1.4-0.5-2.3,0.3c-2.1,2.1-2.7,4.6-2.3,7.4c0.5,3.6,2.3,6.7,4.8,9.4c1.5,1.8,1.9,3.9,1.8,6.1c0,0.8-0.4,1.4-0.6,2.2
		c-0.8-0.3-1.7-0.4-2.3-0.9c-1.7-1.4-3.1-3-4.6-4.4c-1.5-1.3-3.1-2.8-4.8-3.7c-5.3-2.7-8.9-6.8-11.2-12.1c-3.7-9,0.4-16.8,7.2-20.9
		c2.5-1.4,5.3-2.2,8-3.4c0.1,0.1,0.3,0.3,0.4,0.3c-0.4,1-0.5,2.3-1,3.2C59.9,35.9,58.4,38.8,56.7,41.5z"/>
	<path class="st0" d="M15.4,28c-0.6-0.9-1.4-1.2-2.1-0.6s-0.6,1.3,0,2.2c1.2,1.7,2.3,3.2,3.4,5c4.8,8.4,6.2,17,2.6,26.3
		c-1.4,3.7-3.6,7.2-6.1,10.4c-0.5,0.6-0.6,1.4,0.1,2.1s1.4,0.3,1.9-0.4c0.5-0.8,1.2-1.5,1.7-2.3c4.3-6.1,7-12.6,7.1-20.1
		c-0.1-1.5-0.3-3.2-0.5-4.8C22.4,39,19.4,33.2,15.4,28z"/>
	<path class="st0" d="M9.2,33c-0.5-0.6-1.2-0.9-1.9-0.4c-0.6,0.5-0.6,1.2-0.3,1.9c1,1.5,2.2,3.1,3.1,4.8c3.7,6.8,4.1,13.7,0.6,20.8
		c-1,2.1-2.5,4-3.7,5.9c-0.5,0.6-0.5,1.4,0.1,1.9s1.3,0.4,1.8-0.3c4-5,6.7-10.6,6.7-17.5C15.8,43.8,13.1,38.1,9.2,33z"/>
	<path class="st0" d="M7.4,47.9c-0.5-3.5-2.1-6.4-4.1-9.2c-0.5-0.6-1.2-0.8-1.8-0.3s-0.8,1.2-0.3,1.8C1.5,40.6,1.7,41,2,41.4
		c3.4,5,4.1,10.2,1,15.7c-0.5,1-1.3,1.9-1.9,3c-0.4,0.6-0.5,1.3,0.3,1.8c0.6,0.5,1.3,0.4,1.8-0.3c2.6-3.4,4.4-7,4.5-11.7
		C7.6,49.6,7.6,48.7,7.4,47.9z"/>
	<path class="st0" d="M50.1,54.5c1,1.8,2.2,3.5,3.4,5.2c0.3,0.4,1,0.5,1.4,0.5c0.4-0.1,0.6-0.6,1-1c-0.3-0.5-0.4-0.8-0.5-1
		c-1.8-2.2-3.2-4.6-4.1-7.4c-0.3-0.8-0.9-1.2-1.7-0.9c-0.9,0.4-1,1-0.8,1.8C49.2,52.7,49.6,53.7,50.1,54.5z"/>
	<path class="st0" d="M50.5,46.8c0-0.3,0-0.6-0.1-0.9c-0.1-0.8-0.6-1.2-1.4-1c-0.6,0.1-1.2,0.5-1.2,1.3c0,0.3,0,0.6,0,0.9
		c0.1,0.9,0.6,1.5,1.4,1.4C50.1,48.2,50.5,47.6,50.5,46.8z"/>
</g>
</svg>
