<?xml version="1.0" encoding="utf-8"?>
<!-- Generator: Adobe Illustrator 27.2.0, SVG Export Plug-In . SVG Version: 6.00 Build 0)  -->
<svg version="1.1" id="Слой_1" xmlns="http://www.w3.org/2000/svg" xmlns:xlink="http://www.w3.org/1999/xlink" x="0px" y="0px"
	 viewBox="0 0 145.5 145.7" style="enable-background:new 0 0 145.5 145.7;" xml:space="preserve">
<style type="text/css">
	.st0{fill:url(#SVGID_1_);}
	.st1{fill:url(#SVGID_00000069358449090495346750000010242893207353944983_);}
	.st2{fill:url(#SVGID_00000176745181790646268560000002770329679955709866_);}
</style>
<g>
	
		<linearGradient id="SVGID_1_" gradientUnits="userSpaceOnUse" x1="-47.1959" y1="-759.237" x2="183.3201" y2="-568.2018" gradientTransform="matrix(1 0 0 -1 0 -621.3999)">
		<stop  offset="0" style="stop-color:#5A5A59"/>
		<stop  offset="7.713336e-02" style="stop-color:#5E5E5D"/>
		<stop  offset="0.155" style="stop-color:#6A6A69"/>
		<stop  offset="0.2332" style="stop-color:#7E7E7D"/>
		<stop  offset="0.3116" style="stop-color:#9A9A9A"/>
		<stop  offset="0.3903" style="stop-color:#BFBEBE"/>
		<stop  offset="0.4681" style="stop-color:#EAEAEA"/>
		<stop  offset="0.5006" style="stop-color:#FFFFFF"/>
		<stop  offset="0.5585" style="stop-color:#F0F0F0"/>
		<stop  offset="0.6696" style="stop-color:#C9C9C9"/>
		<stop  offset="0.748" style="stop-color:#AAAAA9"/>
		<stop  offset="0.8078" style="stop-color:#8E8D8D"/>
		<stop  offset="0.8868" style="stop-color:#6F6E6E"/>
		<stop  offset="0.9537" style="stop-color:#5C5B5B"/>
		<stop  offset="1" style="stop-color:#555454"/>
	</linearGradient>
	<path class="st0" d="M145.5,75.9c-0.7,1.1-1.6,1.5-2.9,1.5c-46.7,0-93.2,0-140,0c-2.4,0-2.9-0.7-2.9-3.1c0-23.8,0-47.7,0-71.4
		c0-2.4,0.7-3.1,3.1-3.1c46.5,0,93.1,0,139.6,0c1.3,0,2.4,0.3,3.1,1.5C145.5,26.1,145.5,51,145.5,75.9z M11.9,8.9c0.3,0,0.8,0,1.5,0
		c29.1,0,58.3,0,87.4,0c0.7,0,1.1,0,1.6,0c1.1,0.2,1.8,0.8,2,2c0.2,1.1-0.5,2-1.6,2.1c-0.7,0.2-1.3,0.2-1.8,0.2
		c-28.8,0-57.4,0-86.2,0c-0.7,0-1.1,0-1.8,0c0,16.1,0,31.9,0,48c3.4-3.3,6.7-6.2,9.8-9.3c1.3-1.3,2.6-1.3,3.4-0.3
		c1,1,0.8,2.3-0.5,3.4c-2.3,2.3-4.7,4.4-7,6.7c-0.8,0.7-1.5,1.5-2.4,2.3c24.1,0,48,0,72.1,0c-0.3-0.3-0.3-0.5-0.5-0.7
		c-10.6-9.9-21-19.9-31.6-29.6c-2.4-2.3-5.4-2.3-7.8,0.2c-5.2,4.9-10.3,9.8-15.5,14.5c-1.1,1.1-2.4,1.1-3.4,0.2
		c-1-1-0.8-2.1,0.5-3.4c5.2-4.9,10.6-9.9,15.8-14.8c3.9-3.6,9.4-3.6,13.3,0c3.1,2.8,6,5.7,9.1,8.5c4.2,3.9,8.3,7.8,12.5,11.7
		c0.5-0.5,0.8-0.8,1.1-1.1c5.2-4.9,10.3-9.8,15.5-14.5c4.4-4.2,9.8-4.2,14.2,0c6.5,6.2,13,12.2,19.5,18.4c0.3,0.3,0.7,0.5,1,0.8
		c0-13.8,0-27.3,0-41c-0.7,0-1.1,0-1.6,0c-6.2,0-12.4,0-18.6,0c-0.5,0-1.1,0-1.6-0.2c-1-0.3-1.5-1.1-1.5-2.1c0.2-1,0.8-1.8,1.8-1.8
		c0.5,0,1,0,1.6,0c7,0,14,0,20.7,0c1.8-1.8,3.3-3.3,4.7-4.7c-43.3,0-86.9,0-130.3,0C8.8,5.6,10.2,7.1,11.9,8.9z M83.6,53.5
		c3.7,3.6,7.5,7,11.1,10.4c12.5,0,24.9,0,37.3,0c0-1.3,0-2.4,0-3.7c-0.3-0.2-0.5-0.5-0.8-0.7c-7.2-6.8-14.5-13.5-21.5-20.3
		c-3.7-3.6-6.7-4.1-10.6,0C94.1,44,88.8,48.6,83.6,53.5z M133.1,68.3c-40.5,0-81,0-121.1,0c-1.8,1.8-3.3,3.3-4.6,4.6
		c43.1,0,86.7,0,130.2,0C136.2,71.4,134.7,69.9,133.1,68.3z M3.9,7.4c0,20.7,0,41.5,0,62.2C5.4,68.1,7,66.7,8.6,65
		c0-17.6,0-35.3,0-53.1C7,10.5,5.4,9.1,3.9,7.4z M141.1,69.6c0-20.7,0-41.3,0-62.2c-1.6,1.5-3.1,3.1-4.7,4.6c0,17.6,0,35.5,0,53.1
		C138,66.7,139.6,68.1,141.1,69.6z"/>
	
		<linearGradient id="SVGID_00000009573474349302739990000017492127994850019246_" gradientUnits="userSpaceOnUse" x1="-7.6865" y1="-806.9116" x2="222.8293" y2="-615.8764" gradientTransform="matrix(1 0 0 -1 0 -621.3999)">
		<stop  offset="0" style="stop-color:#5A5A59"/>
		<stop  offset="7.713336e-02" style="stop-color:#5E5E5D"/>
		<stop  offset="0.155" style="stop-color:#6A6A69"/>
		<stop  offset="0.2332" style="stop-color:#7E7E7D"/>
		<stop  offset="0.3116" style="stop-color:#9A9A9A"/>
		<stop  offset="0.3903" style="stop-color:#BFBEBE"/>
		<stop  offset="0.4681" style="stop-color:#EAEAEA"/>
		<stop  offset="0.5006" style="stop-color:#FFFFFF"/>
		<stop  offset="0.5585" style="stop-color:#F0F0F0"/>
		<stop  offset="0.6696" style="stop-color:#C9C9C9"/>
		<stop  offset="0.748" style="stop-color:#AAAAA9"/>
		<stop  offset="0.8078" style="stop-color:#8E8D8D"/>
		<stop  offset="0.8868" style="stop-color:#6F6E6E"/>
		<stop  offset="0.9537" style="stop-color:#5C5B5B"/>
		<stop  offset="1" style="stop-color:#555454"/>
	</linearGradient>
	<path style="fill:url(#SVGID_00000009573474349302739990000017492127994850019246_);" d="M1,145.8c-1.5-0.8-1.6-2.1-1.3-3.6
		c0.7-4.1,2.9-6.5,7.6-8.5c0-10.6,0-21.2,0-31.7c-5.9-4.7-5-11.7-1.1-15.5c4.1-3.9,10.4-3.7,14.2,0.3c3.6,3.7,4.2,10.7-1.5,15.1
		c-0.7,2.9,0.3,5.2,2,7.5c9,13,26.4,15.9,38.2,6.3c2.1-1.8,3.9-4.1,5.9-6.2c1.8-2.1,2.8-4.7,2-7.6c-5.9-4.7-4.7-11.6-1.3-15.1
		c3.9-3.9,10.4-3.9,14.3,0c3.6,3.7,4.4,10.6-1.3,15.1c-0.5,2.8,0.2,5,1.8,7.3c9.8,14.5,26.7,14.5,36.3,8c4.1-2.8,7.3-6.2,9.6-10.6
		c0.7-1.3,0.5-3.1,0.7-4.6c-6-4.7-5.4-11.9-1.5-15.6c3.9-3.9,10.3-3.7,14.2,0.2c3.3,3.4,4.6,10.3-1.5,15.3c0,3.4,0,7,0,10.6
		c0,0.5,0,1,0,1.5c-0.2,1.1-0.8,2-2.1,2c-1.1,0-2.1-0.8-2.1-2.1c0-2,0-3.9,0-5.9c0-1.5,0-2.9,0-4.4c-1,0-1.8,0-2.6,0
		c0,9.9,0,19.9,0,29.8c0.8,0,1.6,0,2.6,0c0-0.5,0-1,0-1.5c0-2.9,0-6,0-9c0-1.8,0.8-2.6,2.1-2.6s2.1,1,2.1,2.6c0,3.6,0,7.2,0,10.7
		c2.3,0.7,4.4,1.8,5.7,3.7c1,1.5,1.5,3.1,2.1,4.6c0,1.3,0,2.4,0,3.7c-8.6,0-17.1,0-25.7,0c-1.1-0.8-1.5-2-1.1-3.4
		c0.5-3.6,2.4-6.2,5.7-7.8c0.7-0.3,1.3-0.7,2-0.8c0-6.5,0-13,0-19.7c-6.3,7.5-14.3,11.6-24.1,11.6c-9.8,0-17.6-4.1-23.9-11.6
		c0,6.8,0,13.2,0,19.7c0.5,0.2,1,0.3,1.5,0.7c3.7,1.6,5.7,4.6,6.2,8.5c0.2,1.3-0.3,2.3-1.5,2.9c-8,0-15.9,0-23.9,0
		c-1.8-1-1.6-2.4-1.3-4.1c1-4.1,3.6-6.7,7.5-8c0-6.5,0-13,0-19.7c-6.3,7.5-14.2,11.6-23.9,11.6s-17.6-4.1-24.1-11.6
		c0,6.8,0,13.3,0,19.7c0.5,0.2,1,0.3,1.5,0.7c3.6,1.6,5.5,4.2,6.2,8.1c0.2,1.5,0,2.4-1.1,3.4C17.1,145.8,8.9,145.8,1,145.8z
		 M18.7,93.7c0-3.1-2.4-5.7-5.7-5.7c-3.1,0-5.7,2.6-5.7,5.7c0,3.1,2.6,5.7,5.7,5.7S18.7,96.9,18.7,93.7z M72.4,99.4
		c3.1,0,5.7-2.4,5.7-5.5s-2.4-5.7-5.7-5.7c-3.1,0-5.7,2.6-5.7,5.7C66.7,96.8,69.3,99.4,72.4,99.4z M132,99.4c3.1,0,5.7-2.4,5.7-5.7
		c0-3.1-2.6-5.7-5.7-5.7s-5.7,2.4-5.7,5.7C126.3,96.8,128.7,99.4,132,99.4z M71.1,103.6c0,9.9,0,19.9,0,29.8c1,0,1.8,0,2.6,0
		c0-9.9,0-19.9,0-29.8C72.9,103.6,72.1,103.6,71.1,103.6z M11.7,103.6c0,9.9,0,19.9,0,29.8c1,0,1.6,0,2.6,0c0-9.9,0-19.9,0-29.8
		C13.3,103.6,12.5,103.6,11.7,103.6z M81.2,141.4c-1.1-2.3-2.8-3.4-5-3.6c-2.6-0.2-5-0.2-7.6,0c-2.3,0.2-4.4,1.8-4.6,3.6
		C69.6,141.4,75.3,141.4,81.2,141.4z M4.4,141.4c5.7,0,11.4,0,17.2,0c-1.1-2.3-2.8-3.4-5-3.6c-2.4-0.2-4.9,0-7.3,0
		C7,137.9,5,139.2,4.4,141.4z M140.4,141.4c-0.3-2-2.4-3.6-4.7-3.6c-2.4-0.2-4.9,0-7.3,0c-2.3,0-4.4,1.6-4.9,3.6
		C129,141.4,134.7,141.4,140.4,141.4z"/>
	
		<linearGradient id="SVGID_00000124144676375853431910000018290022021728770727_" gradientUnits="userSpaceOnUse" x1="-49.5722" y1="-756.3697" x2="180.9437" y2="-565.3345" gradientTransform="matrix(1 0 0 -1 0 -621.3999)">
		<stop  offset="0" style="stop-color:#5A5A59"/>
		<stop  offset="7.713336e-02" style="stop-color:#5E5E5D"/>
		<stop  offset="0.155" style="stop-color:#6A6A69"/>
		<stop  offset="0.2332" style="stop-color:#7E7E7D"/>
		<stop  offset="0.3116" style="stop-color:#9A9A9A"/>
		<stop  offset="0.3903" style="stop-color:#BFBEBE"/>
		<stop  offset="0.4681" style="stop-color:#EAEAEA"/>
		<stop  offset="0.5006" style="stop-color:#FFFFFF"/>
		<stop  offset="0.5585" style="stop-color:#F0F0F0"/>
		<stop  offset="0.6696" style="stop-color:#C9C9C9"/>
		<stop  offset="0.748" style="stop-color:#AAAAA9"/>
		<stop  offset="0.8078" style="stop-color:#8E8D8D"/>
		<stop  offset="0.8868" style="stop-color:#6F6E6E"/>
		<stop  offset="0.9537" style="stop-color:#5C5B5B"/>
		<stop  offset="1" style="stop-color:#555454"/>
	</linearGradient>
	<path style="fill:url(#SVGID_00000124144676375853431910000018290022021728770727_);" d="M80.7,36.2c-5,0-9.3-4.1-9.3-9.1
		s4.2-9.4,9.3-9.3c5,0,9.3,4.2,9.3,9.3C89.8,32.2,85.8,36.2,80.7,36.2z M85.6,27.1c0-2.8-2.3-5-4.9-5c-2.8,0-5,2.3-5,5
		c0,2.8,2.3,5,5,5C83.3,32,85.6,29.9,85.6,27.1z"/>
</g>
</svg>
