<?xml version="1.0" encoding="utf-8"?>
<!-- Generator: Adobe Illustrator 27.2.0, SVG Export Plug-In . SVG Version: 6.00 Build 0)  -->
<svg version="1.1" id="Слой_1" xmlns="http://www.w3.org/2000/svg" xmlns:xlink="http://www.w3.org/1999/xlink" x="0px" y="0px"
	 viewBox="0 0 100.3 87.6" style="enable-background:new 0 0 100.3 87.6;" xml:space="preserve">
<style type="text/css">
	.st0{fill:#FFFFFF;}
</style>
<g>
	<path class="st0" d="M99.4,81.1c-0.1,0.5-0.4,1.1-0.5,1.5c-1.2,2.8-3.3,4.5-6.4,4.7c-3,0.1-5.8,0.1-8.7,0c-1.3,0-1.8-0.7-1.8-2
		c0-3.1,0-6,0-9.1c0-0.4,0-0.7,0-1.2c-0.5,0-0.9,0-1.3,0c-11.1,0-22.1,0-33.2,0c-0.5,0-0.9,0-1.3-0.1c-0.8-0.2-1.3-0.8-1.2-1.7
		c0-0.8,0.5-1.3,1.3-1.5c0.4-0.1,0.8-0.1,1.2-0.1c11.8,0,23.7,0,35.5,0c2,0,2.4,0.5,2.4,2.4c0,2.8,0,5.8,0,8.6c0,0.4,0,0.7,0,1.1
		c2.6,0,5.2,0.1,7.7,0c1.8-0.1,3.1-2,3.2-3.8c0-4.8,0-9.8,0-14.6c0-2.2-1.8-3.9-4-3.9c-0.8,0-1.7,0-2.5,0c-2.4,0-4,1.7-4.3,4
		c0,0.6,0,1.2,0,1.8c-0.1,0.9-0.7,1.5-1.5,1.5s-1.5-0.5-1.7-1.3c-0.6-4.8,2-8.1,5.8-9c0.7-0.1,0.8-0.4,0.8-1.1c0-3.2,0-6.4,0-9.6
		c0-3.8-2.2-6-6-6c-6.4,0-12.9,0-19.2,0c-0.4,0-0.6,0-1.1,0c0,0.4,0,0.7,0,1.1c0,5.5,0,11.1,0,16.8c0,0.2,0,0.5,0,0.8
		c0,1.1-0.7,1.7-1.7,1.7s-1.7-0.6-1.7-1.7c0-0.9,0-2,0-3.1c0-4.8,0-9.7,0-14.5c0-0.4,0-0.7,0-1.2c-0.5,0-0.7,0-1.1,0
		c-6.5,0-13.1,0-19.6,0c-3.8,0-6,2.2-6.1,6.1c0,1.2,0,2.2,0,3.4c0,0.9-0.7,1.7-1.5,1.7c-0.9,0-1.7-0.6-1.7-1.5c0-2-0.1-4,0.2-6
		c0.8-4.3,4.5-7,9-7c10.7,0,21.4,0,32.1,0c4.1,0,8.3,0,12.4,0c5.7,0,9.4,3.8,9.4,9.4c0,3.1,0,6,0,9.1c0,0.4,0,0.7,0,1.1
		c0.7,0.1,1.3,0.2,1.9,0.4c2.6,0.7,4.3,2.4,5.2,5c0.1,0.4,0.2,0.7,0.4,0.9C99.4,70,99.4,75.5,99.4,81.1z"/>
	<path class="st0" d="M51.8,87.5c-7.4,0-14.8,0-22.2,0c-3.8,0-6.6-2-7.6-5.3c-0.2-0.8-0.4-1.5-0.4-2.4c0-4.6,0-9.1,0-13.7
		c0-4.6,3.2-7.8,7.8-7.8c1.1,0,2.1-0.1,3.1,0.1c3.9,0.5,6.5,3.5,6.6,7.4c0,3,0,6,0,9c0,1.2-0.7,2-1.7,2c-1.1,0-1.7-0.7-1.7-2
		c0-2.8,0-5.7,0-8.5c0-3.1-1.7-4.7-4.7-4.7c-0.7,0-1.4,0-2,0c-2.2,0.1-4,1.8-4,4c0,4.8,0,9.7,0,14.6c0,2.2,1.8,3.9,4,4
		c0.4,0,0.8,0,1.2,0c14.6,0,29.3,0,43.9,0c0.5,0,0.8,0,1.3,0.1c0.8,0.1,1.3,0.7,1.3,1.5c0,0.8-0.6,1.5-1.4,1.7c-0.4,0-0.8,0-1.2,0
		C66.8,87.5,59.3,87.5,51.8,87.5z"/>
	<path class="st0" d="M11.9,46c0-10.5,0-21,0-31.6c0-7,4.6-12.6,11.5-13.7c5.3-0.9,9.9,0.6,13.5,4.7c0.2,0.2,0.5,0.6,0.7,0.9
		c0.4,0.8,0.2,1.5-0.5,2s-1.4,0.5-2,0c-0.2-0.2-0.4-0.5-0.6-0.7c-3.8-4.8-11.1-4.7-14.9-1.8c-2.7,2-4.1,4.7-4.3,8.1
		c-0.1,3.3,0,6.7,0,10c0,18.1,0,36.1,0.1,54.2c0,0.4,0,0.8,0,1.2c-0.1,0.8-0.7,1.4-1.5,1.4s-1.5-0.5-1.7-1.3
		c-0.1-0.4-0.1-0.8-0.1-1.2C11.9,67.5,11.9,56.8,11.9,46L11.9,46z"/>
	<path class="st0" d="M38.5,28.7c-3.2,0-6.3,0-9.4,0c-1.7,0-2.1-0.5-2.2-2.2c0-2.6,0-5.1,1.2-7.4c2.4-4.7,7.7-7.3,12.8-6.3
		c5.4,1.2,9.2,5.8,9.3,11.2c0,0.9,0,1.9,0,2.8c0,1.4-0.6,2-2,2C44.7,28.8,41.7,28.7,38.5,28.7z M30.2,25.3c5.5,0,11,0,16.4,0
		c0.5-5.3-3.2-9.4-8.3-9.4C33.6,15.8,29.6,20,30.2,25.3z"/>
	<path class="st0" d="M9.3,87.5c-2.5,0-5,0-7.4,0c-0.8,0-1.4-0.2-1.8-1.1c-0.4-0.9,0.1-1.9,1.1-2.1c0.4-0.1,0.8-0.1,1.3-0.1
		c4.7,0,9.4,0,14,0c0.2,0,0.5,0,0.7,0c1.1,0.1,1.7,0.7,1.7,1.7c0,1-0.7,1.7-1.8,1.7C14.4,87.5,11.8,87.3,9.3,87.5
		C9.3,87.3,9.3,87.5,9.3,87.5z"/>
</g>
</svg>
