<?xml version="1.0" encoding="utf-8"?>
<!-- Generator: Adobe Illustrator 27.2.0, SVG Export Plug-In . SVG Version: 6.00 Build 0)  -->
<svg version="1.1" id="Слой_1" xmlns="http://www.w3.org/2000/svg" xmlns:xlink="http://www.w3.org/1999/xlink" x="0px" y="0px"
	 viewBox="0 0 146.3 146.3" style="enable-background:new 0 0 146.3 146.3;" xml:space="preserve">
<style type="text/css">
	.st0{fill:url(#SVGID_1_);}
	.st1{fill:url(#SVGID_00000059269068698673426380000009200100449299268252_);}
	.st2{fill:url(#SVGID_00000126297269250848283050000017379329007157356939_);}
	.st3{fill:url(#SVGID_00000089533586629324423080000008080013509659591587_);}
	.st4{fill:url(#SVGID_00000002353472134778487880000002695587862485037986_);}
	.st5{fill:url(#SVGID_00000152956470116983385800000014657282692405024919_);}
</style>
<g>
	
		<linearGradient id="SVGID_1_" gradientUnits="userSpaceOnUse" x1="0" y1="-661.75" x2="146.2" y2="-661.75" gradientTransform="matrix(1 0 0 -1 0 -620.8)">
		<stop  offset="0" style="stop-color:#5A5A59"/>
		<stop  offset="7.713336e-02" style="stop-color:#5E5E5D"/>
		<stop  offset="0.155" style="stop-color:#6A6A69"/>
		<stop  offset="0.2332" style="stop-color:#7E7E7D"/>
		<stop  offset="0.3116" style="stop-color:#9A9A9A"/>
		<stop  offset="0.3903" style="stop-color:#BFBEBE"/>
		<stop  offset="0.4681" style="stop-color:#EAEAEA"/>
		<stop  offset="0.5006" style="stop-color:#FFFFFF"/>
		<stop  offset="0.5585" style="stop-color:#F0F0F0"/>
		<stop  offset="0.6696" style="stop-color:#C9C9C9"/>
		<stop  offset="0.748" style="stop-color:#AAAAA9"/>
		<stop  offset="0.8078" style="stop-color:#8E8D8D"/>
		<stop  offset="0.8868" style="stop-color:#6F6E6E"/>
		<stop  offset="0.9537" style="stop-color:#5C5B5B"/>
		<stop  offset="1" style="stop-color:#555454"/>
	</linearGradient>
	<path class="st0" d="M146.2,0c0,4.4,0,8.8,0,13.2c-1.5,0-2.9,0-4.4,0c0,8.6,0,17.1,0,25.8c1.6,0,2.9,0,4.4,0c0,14.3,0,28.5,0,42.9
		c-10.8,0-21.5,0-32.4,0c0-1.5,0-2.8,0-4.2c9.5,0,18.7,0,28,0c0-1.5,0-2.8,0-4.2c-46,0-91.8,0-137.6,0c0,1.5,0,2.8,0,4.2
		c35.1,0,70.1,0,105.2,0c0,1.5,0,2.8,0,4.2c-36.5,0-73,0-109.4,0c0-14.3,0-28.4,0-42.7c1.5,0,2.9,0,4.4,0c0-8.6,0-17.1,0-25.8
		c-1.5,0-2.9,0-4.4,0C0,9,0,4.8,0,0.4c5.9,0,11.6,0,17.3,0c0,1.5,0,2.8,0,4.2c-4.4,0-8.6,0-13,0c0,1.6,0,2.9,0,4.4
		c45.8,0,91.6,0,137.4,0c0-1.5,0-2.9,0-4.6c-40.1,0-80,0-120,0c0-1.5,0-2.8,0-4.2C63.2,0,104.8,0,146.2,0z M52.8,52.3
		c0.3-0.2,0.5-0.2,0.5-0.3c16.5-11.7,33.1-23.3,49.6-35.2c1.3-1,2.4-2.4,3.6-3.7c-22.2,0-44.3,0-66.7,0c0,0.2-0.2,0.3-0.2,0.3
		c9.1,8,19.6,14,29.2,21.5c-0.8,1.1-1.6,2.3-2.4,3.4c-8.2-5.9-16.3-11.6-24.3-17.1c-1.3,1.3-2.4,2.4-3.7,3.6
		C43,34,47.9,43.2,52.8,52.3z M104.5,21.1C87.9,32.8,71.4,44.6,54.9,56.2c2.3,4.2,4.4,8.5,6.7,12.6c7.8,0,15.5,0,23.3,0
		c2.3-4.2,4.4-8.3,6.7-12.6c-4.6-3.3-9-6.4-13.5-9.6c0.8-1.1,1.6-2.3,2.4-3.4c4.4,3.1,8.6,6.2,13,9.3c4.9-9.3,9.8-18.4,14.7-27.6
		C106.9,23.6,105.6,22.3,104.5,21.1z M49.2,54.9c-0.3-0.7-0.5-1.1-0.8-1.6c-3.6-6.7-7.2-13.2-10.6-20.1c-2.4-5.1-5.4-9.6-9.8-13.4
		c-1.8-1.6-2.4-3.7-2-6c0-0.2,0-0.5,0-0.7c-1.5,0-2.9,0-4.4,0c0,8.6,0,17.1,0,25.8c1.5,0,2.8,0,4.2,0c0,10.1,0,19.9,0,29.8
		c2.1,0.2,3.9,0.2,5.7-1.3c2.6-2.1,5.4-3.7,8-5.7C42.8,59.5,45.9,57.2,49.2,54.9z M124.4,38.8c0-8.6,0-17.1,0-25.6
		c-1.5,0-2.9,0-4.4,0c0.8,3.3-0.3,5.5-2.6,7.7c-1,0.8-1.8,1.8-2.6,2.6c-1.6,1.5-2.8,3.1-3.7,5.1c-4.4,8.3-8.8,16.6-13.4,25.1
		c-0.2,0.5-0.5,1-0.7,1.5c0.5,0.3,1,0.7,1.5,1c5.5,3.9,11.1,7.8,16.6,11.9c1.6,1.3,3.3,1,5.2,1c0-10.1,0-19.9,0-29.8
		C121.6,38.8,123.1,38.8,124.4,38.8z M124.5,43.2c0,8.6,0,17.1,0,25.6c5.9,0,11.6,0,17.3,0c0-8.6,0-17,0-25.6
		C136.1,43.2,130.4,43.2,124.5,43.2z M4.4,68.7c5.9,0,11.6,0,17.3,0c0-8.6,0-17.1,0-25.6c-5.9,0-11.4,0-17.3,0
		C4.4,51.6,4.4,60.1,4.4,68.7z M108.7,68.7l0.2-0.2c-4.6-3.3-9.1-6.5-13.9-9.8c-1.8,3.4-3.6,6.7-5.4,10.1
		C96.2,68.7,102.4,68.7,108.7,68.7z M51.3,58.6c-4.7,3.3-9.3,6.5-14,9.9c6.7,0,12.9,0,19.4,0C54.7,65.3,53.1,62.1,51.3,58.6z
		 M130.1,25.9c2.4,2.4,4.9,4.9,7.2,7.2c0-4.7,0-9.5,0-14.3C134.8,21.1,132.3,23.4,130.1,25.9z M8.8,33.2c2.4-2.6,4.9-4.9,7.2-7.2
		c-2.3-2.3-4.7-4.7-7.2-7.2c0,4.2,0,8.8,0,13.2C8.8,32.6,8.8,32.9,8.8,33.2z M38.3,18.4c-1.6-1.6-3.1-3.3-4.7-4.7
		c-0.8-0.8-1.8-0.7-2.6,0.2c-0.8,0.8-1.1,1.8-0.3,2.6c1.5,1.6,3.3,3.1,4.7,4.7C36.5,20.2,37.5,19.2,38.3,18.4z M110.8,21.3
		c1.6-1.6,3.1-3.1,4.4-4.6c0.8-1,0.8-2.1,0-2.9c-0.8-0.8-2-1-2.8-0.2c-1.6,1.5-3.1,3.1-4.6,4.7C108.9,19.2,109.9,20.2,110.8,21.3z
		 M17.3,13.2c-2.4,0-4.9,0-6.8,0c2.3,2.3,4.6,4.6,6.8,6.8C17.3,18,17.3,15.6,17.3,13.2z M135.9,38.8c-2.3-2.3-4.7-4.7-7-7
		c0,2.1,0,4.6,0,7C131.4,38.8,133.7,38.8,135.9,38.8z M17.3,31.9c-2.3,2.3-4.6,4.6-6.8,6.8c2,0,4.4,0,6.8,0
		C17.3,36.3,17.3,33.9,17.3,31.9z M128.9,20.2c2.3-2.3,4.7-4.7,7-7c-2.1,0-4.6,0-7,0C128.9,15.6,128.9,18,128.9,20.2z"/>
	
		<linearGradient id="SVGID_00000119829753024504028830000017082792696844094395_" gradientUnits="userSpaceOnUse" x1="-6.929016e-02" y1="-736.6033" x2="146.0718" y2="-736.6033" gradientTransform="matrix(1 0 0 -1 0 -620.8)">
		<stop  offset="0" style="stop-color:#5A5A59"/>
		<stop  offset="7.713336e-02" style="stop-color:#5E5E5D"/>
		<stop  offset="0.155" style="stop-color:#6A6A69"/>
		<stop  offset="0.2332" style="stop-color:#7E7E7D"/>
		<stop  offset="0.3116" style="stop-color:#9A9A9A"/>
		<stop  offset="0.3903" style="stop-color:#BFBEBE"/>
		<stop  offset="0.4681" style="stop-color:#EAEAEA"/>
		<stop  offset="0.5006" style="stop-color:#FFFFFF"/>
		<stop  offset="0.5585" style="stop-color:#F0F0F0"/>
		<stop  offset="0.6696" style="stop-color:#C9C9C9"/>
		<stop  offset="0.748" style="stop-color:#AAAAA9"/>
		<stop  offset="0.8078" style="stop-color:#8E8D8D"/>
		<stop  offset="0.8868" style="stop-color:#6F6E6E"/>
		<stop  offset="0.9537" style="stop-color:#5C5B5B"/>
		<stop  offset="1" style="stop-color:#555454"/>
	</linearGradient>
	<path style="fill:url(#SVGID_00000119829753024504028830000017082792696844094395_);" d="M146.2,97.1c0,1.3,0,2.6,0,4.1
		c-1.5,0-2.8,0-4.2,0c0-1.1-0.2-2.1-0.2-3.3c-0.5-4.4-4.1-7.5-8.3-7.7c-4.1-0.2-7.8,2.8-8.5,7c-0.3,2.6,0,5.2,0,7.8
		c6.8-2.8,11.4-2.1,14.8,2.4c3.4,4.4,2.9,9.3-1.5,14.7c2.9,1.8,5.4,4.1,6.7,7.3c0.5,1.3,0.8,2.6,1.3,3.9c0,4.2,0,8.6,0,12.9
		c-9.9,0-20.1,0-30,0c0-3.6,0-7.3,0-10.9c0-4.4,1.8-8.2,5.2-11.2c0.8-0.8,1.8-1.3,2.8-2.1c-3.1-2.8-3.9-6.2-3.7-10.1
		c0.2-1.8,0-3.6,0-5.2c-0.2-3.3-1.6-5.5-4.6-7c-6-2.8-12.6,1.1-12.7,7.8c0,2.3,0,4.6,0,6.8c0,2.6-1,4.7-2.8,6.7
		c-0.3,0.3-0.5,0.7-0.8,1c4.4,2.6,7.3,6.4,7.7,11.2c0.3,4.2,0.2,8.5,0.2,12.9c-9.9,0-20.1,0-30,0c0-3.6,0-7.2,0-10.8
		c0.2-5.5,2.4-9.9,7.2-13c0.2-0.2,0.5-0.3,0.7-0.5c-3.3-4.1-3.6-5.1-3.6-10.4c0-1.3,0-2.6,0-4.1c0-0.8-0.2-1.8-0.3-2.6
		c-1.1-3.9-4.9-6.5-9-6c-3.9,0.3-7.3,3.6-7.7,7.7c-0.2,2.3-0.2,4.4-0.2,6.7c0,3.3-1,6.2-3.3,8.5c-0.2,0.2-0.2,0.3-0.3,0.5
		c4.2,2.4,7.2,6,7.7,10.9c0.5,4.4,0.2,8.8,0.2,13.2c-9.9,0-20.1,0-30,0c0-3.6,0-7,0.2-10.6c0-4.6,1.6-8.3,5.1-11.4
		c1-0.8,2-1.5,2.9-2.3c-3.1-2.8-3.9-6.4-3.7-10.3c0-1.5,0-2.9,0-4.2c0-1-0.2-2-0.5-2.9c-1.3-3.7-5.1-6-9-5.7
		c-4.1,0.5-7.3,3.6-7.8,7.5c-0.2,2.3-0.2,4.7-0.2,7.2c0,3.1-1,5.7-3.3,8c-0.2,0.2-0.3,0.3-0.3,0.7c4.2,2.4,7.2,6,7.7,10.9
		c0.5,4.4,0.2,8.8,0.2,13.2c-9.9,0-20.1,0-30,0c0-3.6,0-7.2,0-10.9c0-5.1,2.1-9,6-12.1c0.7-0.5,1.3-0.8,1.8-1.3
		c-4.1-5.4-4.7-9.8-1.8-14c3.9-5.5,9.3-6.2,15.2-3.1c0-2.1,0-4.2,0-6.4c-0.2-4.7-4.1-8.5-8.6-8.5c-4.7,0.2-8.3,3.9-8.5,8.6
		c0,0.7,0,1.3,0,2c-1.5,0-2.9,0-4.2,0c-0.5-7.3,3.6-13.2,10.1-14.7c3.1-0.7,6-0.2,8.8,1.3c3.9,2.3,6,5.7,6.7,10.3
		c4.9-3.9,10.1-4.6,15.7-1.6c1.8-6.2,5.7-9.9,12.2-10.3c6.8-0.2,11.1,3.7,13.2,10.3c4.4-2.4,8.8-2.4,13.2,0c1.8-6,5.5-9.8,11.7-10.3
		c7.2-0.5,11.4,3.6,13.7,10.1c5.4-2.9,10.4-2.1,15.3,1.5c0.2-0.5,0.2-1,0.3-1.5c1.1-5.7,5.5-9.6,11.4-10.3
		c5.2-0.7,10.6,2.6,12.9,7.5C145.6,94.7,145.9,96,146.2,97.1z M103.2,141.8c0-2.4,0-4.7,0-7c-0.2-5.4-4.4-9.6-9.9-10.1
		c-5.1-0.5-10.1,3.1-11.1,8.2c-0.5,2.9-0.3,5.9-0.5,9C88.8,141.8,95.8,141.8,103.2,141.8z M64.5,141.8c0-2.6,0.2-5.1,0-7.3
		c-0.3-5.1-4.2-9.1-9.5-9.8c-5.1-0.7-10.1,2.6-11.2,7.5c-0.7,3.1-0.5,6.4-0.8,9.6C50.3,141.8,57.4,141.8,64.5,141.8z M25.7,141.9
		c0-2.6,0.2-5.1,0-7.3c-0.3-5.2-4.4-9.3-9.8-9.8c-4.9-0.5-9.9,2.8-11.1,7.7c-0.7,3.1-0.5,6.4-0.8,9.5
		C11.5,141.9,18.6,141.9,25.7,141.9z M120.8,141.8c7,0,14,0,21.2,0c0-2.4,0-4.7,0-7c-0.2-5.4-4.4-9.8-9.9-10.3
		c-5.2-0.5-10.3,3.3-11.1,8.5C120.3,135.9,120.8,138.9,120.8,141.8z M60.3,105.3c0.7-1.6,1.3-3.1,2-4.6c0.2-0.2,0.2-0.5,0.2-0.7
		c0.5-4.9-3.1-9.3-8-9.6c-4.6-0.3-8.8,3.6-9.1,8.3c-0.2,2.6,2,4.2,2,6.8C51.8,102.5,56.1,102.5,60.3,105.3z M98.8,105.3
		c0.7-1.6,1.3-3.1,2-4.6c0.2-0.3,0.2-0.5,0.2-0.8c0.5-4.4-2.6-8.6-7-9.5c-4.4-0.8-8.5,2-9.8,6.4c-1,3.3,1.3,5.5,1.8,8.6
		C90.3,102.5,94.7,102.5,98.8,105.3z M131,120.3c3.6,0,6.5-2.8,6.5-6.4s-2.9-6.5-6.4-6.5s-6.4,2.9-6.4,6.4S127.6,120.3,131,120.3z
		 M98.8,113.9c0-3.6-2.9-6.5-6.5-6.4c-3.4,0-6.4,2.9-6.4,6.4c0,3.6,2.9,6.4,6.5,6.4C96,120.3,98.9,117.5,98.8,113.9z M60.3,113.9
		c0-3.6-2.9-6.5-6.4-6.5c-3.6,0-6.5,2.9-6.4,6.5c0,3.4,2.9,6.4,6.4,6.4C57.5,120.3,60.3,117.5,60.3,113.9z M21.5,113.7
		c0-3.6-2.9-6.5-6.5-6.4c-3.4,0-6.4,2.9-6.4,6.4c0,3.6,2.9,6.4,6.5,6.4C18.7,120.3,21.5,117.3,21.5,113.7z"/>
	
		<linearGradient id="SVGID_00000145771231425112883120000009875425946172073379_" gradientUnits="userSpaceOnUse" x1="131.0214" y1="-681.05" x2="135.097" y2="-681.05" gradientTransform="matrix(1 0 0 -1 0 -620.8)">
		<stop  offset="0" style="stop-color:#5A5A59"/>
		<stop  offset="7.713336e-02" style="stop-color:#5E5E5D"/>
		<stop  offset="0.155" style="stop-color:#6A6A69"/>
		<stop  offset="0.2332" style="stop-color:#7E7E7D"/>
		<stop  offset="0.3116" style="stop-color:#9A9A9A"/>
		<stop  offset="0.3903" style="stop-color:#BFBEBE"/>
		<stop  offset="0.4681" style="stop-color:#EAEAEA"/>
		<stop  offset="0.5006" style="stop-color:#FFFFFF"/>
		<stop  offset="0.5585" style="stop-color:#F0F0F0"/>
		<stop  offset="0.6696" style="stop-color:#C9C9C9"/>
		<stop  offset="0.748" style="stop-color:#AAAAA9"/>
		<stop  offset="0.8078" style="stop-color:#8E8D8D"/>
		<stop  offset="0.8868" style="stop-color:#6F6E6E"/>
		<stop  offset="0.9537" style="stop-color:#5C5B5B"/>
		<stop  offset="1" style="stop-color:#555454"/>
	</linearGradient>
	<path style="fill:url(#SVGID_00000145771231425112883120000009875425946172073379_);" d="M135.1,64.5c-1.5,0-2.8,0-4.1,0
		c0-2.8,0-5.5,0-8.5c1.3,0,2.6,0,4.1,0C135.1,58.8,135.1,61.6,135.1,64.5z"/>
	
		<linearGradient id="SVGID_00000017478038934750262230000010235632830474040197_" gradientUnits="userSpaceOnUse" x1="131" y1="-670.3" x2="135.1161" y2="-670.3" gradientTransform="matrix(1 0 0 -1 0 -620.8)">
		<stop  offset="0" style="stop-color:#5A5A59"/>
		<stop  offset="7.713336e-02" style="stop-color:#5E5E5D"/>
		<stop  offset="0.155" style="stop-color:#6A6A69"/>
		<stop  offset="0.2332" style="stop-color:#7E7E7D"/>
		<stop  offset="0.3116" style="stop-color:#9A9A9A"/>
		<stop  offset="0.3903" style="stop-color:#BFBEBE"/>
		<stop  offset="0.4681" style="stop-color:#EAEAEA"/>
		<stop  offset="0.5006" style="stop-color:#FFFFFF"/>
		<stop  offset="0.5585" style="stop-color:#F0F0F0"/>
		<stop  offset="0.6696" style="stop-color:#C9C9C9"/>
		<stop  offset="0.748" style="stop-color:#AAAAA9"/>
		<stop  offset="0.8078" style="stop-color:#8E8D8D"/>
		<stop  offset="0.8868" style="stop-color:#6F6E6E"/>
		<stop  offset="0.9537" style="stop-color:#5C5B5B"/>
		<stop  offset="1" style="stop-color:#555454"/>
	</linearGradient>
	<path style="fill:url(#SVGID_00000017478038934750262230000010235632830474040197_);" d="M135.1,47.4c0,1.5,0,2.8,0,4.2
		c-1.5,0-2.8,0-4.1,0c0-1.5,0-2.8,0-4.2C132.3,47.4,133.7,47.4,135.1,47.4z"/>
	
		<linearGradient id="SVGID_00000065072422028663239600000005811927687333445557_" gradientUnits="userSpaceOnUse" x1="11.0314" y1="-680.85" x2="15.1487" y2="-680.85" gradientTransform="matrix(1 0 0 -1 0 -620.8)">
		<stop  offset="0" style="stop-color:#5A5A59"/>
		<stop  offset="7.713336e-02" style="stop-color:#5E5E5D"/>
		<stop  offset="0.155" style="stop-color:#6A6A69"/>
		<stop  offset="0.2332" style="stop-color:#7E7E7D"/>
		<stop  offset="0.3116" style="stop-color:#9A9A9A"/>
		<stop  offset="0.3903" style="stop-color:#BFBEBE"/>
		<stop  offset="0.4681" style="stop-color:#EAEAEA"/>
		<stop  offset="0.5006" style="stop-color:#FFFFFF"/>
		<stop  offset="0.5585" style="stop-color:#F0F0F0"/>
		<stop  offset="0.6696" style="stop-color:#C9C9C9"/>
		<stop  offset="0.748" style="stop-color:#AAAAA9"/>
		<stop  offset="0.8078" style="stop-color:#8E8D8D"/>
		<stop  offset="0.8868" style="stop-color:#6F6E6E"/>
		<stop  offset="0.9537" style="stop-color:#5C5B5B"/>
		<stop  offset="1" style="stop-color:#555454"/>
	</linearGradient>
	<path style="fill:url(#SVGID_00000065072422028663239600000005811927687333445557_);" d="M11.1,64.3c0-2.9,0-5.7,0-8.5
		c1.5,0,2.8,0,4.1,0c0,2.8,0,5.5,0,8.5C13.8,64.3,12.5,64.3,11.1,64.3z"/>
	
		<linearGradient id="SVGID_00000130608930784031601900000009577483639311712958_" gradientUnits="userSpaceOnUse" x1="11.0454" y1="-670.25" x2="15.1454" y2="-670.25" gradientTransform="matrix(1 0 0 -1 0 -620.8)">
		<stop  offset="0" style="stop-color:#5A5A59"/>
		<stop  offset="7.713336e-02" style="stop-color:#5E5E5D"/>
		<stop  offset="0.155" style="stop-color:#6A6A69"/>
		<stop  offset="0.2332" style="stop-color:#7E7E7D"/>
		<stop  offset="0.3116" style="stop-color:#9A9A9A"/>
		<stop  offset="0.3903" style="stop-color:#BFBEBE"/>
		<stop  offset="0.4681" style="stop-color:#EAEAEA"/>
		<stop  offset="0.5006" style="stop-color:#FFFFFF"/>
		<stop  offset="0.5585" style="stop-color:#F0F0F0"/>
		<stop  offset="0.6696" style="stop-color:#C9C9C9"/>
		<stop  offset="0.748" style="stop-color:#AAAAA9"/>
		<stop  offset="0.8078" style="stop-color:#8E8D8D"/>
		<stop  offset="0.8868" style="stop-color:#6F6E6E"/>
		<stop  offset="0.9537" style="stop-color:#5C5B5B"/>
		<stop  offset="1" style="stop-color:#555454"/>
	</linearGradient>
	<path style="fill:url(#SVGID_00000130608930784031601900000009577483639311712958_);" d="M11.1,47.4c1.3,0,2.8,0,4.1,0
		c0,1.3,0,2.8,0,4.1c-1.3,0-2.8,0-4.1,0C11.1,50.2,11.1,48.9,11.1,47.4z"/>
</g>
</svg>
