<?xml version="1.0" encoding="utf-8"?>
<!-- Generator: Adobe Illustrator 27.2.0, SVG Export Plug-In . SVG Version: 6.00 Build 0)  -->
<svg version="1.1" id="Слой_1" xmlns="http://www.w3.org/2000/svg" xmlns:xlink="http://www.w3.org/1999/xlink" x="0px" y="0px"
	 viewBox="0 0 146.8 146.3" style="enable-background:new 0 0 146.8 146.3;" xml:space="preserve">
<style type="text/css">
	.st0{fill:url(#SVGID_1_);}
	.st1{fill:url(#SVGID_00000160161253786996533700000000628443086068669574_);}
</style>
<g>
	
		<linearGradient id="SVGID_1_" gradientUnits="userSpaceOnUse" x1="0.5" y1="-669.15" x2="146.6113" y2="-669.15" gradientTransform="matrix(1 0 0 -1 0 -620.8)">
		<stop  offset="0" style="stop-color:#5A5A59"/>
		<stop  offset="7.713336e-02" style="stop-color:#5E5E5D"/>
		<stop  offset="0.155" style="stop-color:#6A6A69"/>
		<stop  offset="0.2332" style="stop-color:#7E7E7D"/>
		<stop  offset="0.3116" style="stop-color:#9A9A9A"/>
		<stop  offset="0.3903" style="stop-color:#BFBEBE"/>
		<stop  offset="0.4681" style="stop-color:#EAEAEA"/>
		<stop  offset="0.5006" style="stop-color:#FFFFFF"/>
		<stop  offset="0.5585" style="stop-color:#F0F0F0"/>
		<stop  offset="0.6696" style="stop-color:#C9C9C9"/>
		<stop  offset="0.748" style="stop-color:#AAAAA9"/>
		<stop  offset="0.8078" style="stop-color:#8E8D8D"/>
		<stop  offset="0.8868" style="stop-color:#6F6E6E"/>
		<stop  offset="0.9537" style="stop-color:#5C5B5B"/>
		<stop  offset="1" style="stop-color:#555454"/>
	</linearGradient>
	<path class="st0" d="M45.4,63.9c0,10.9,0,21.9,0,32.8c-1.5,0-3,0-4.7,0c0-6.2,0-12.4,0-18.8c-0.7,0-1.2,0-1.7,0
		c-11.8,0-23.4,0-35.1,0c-2.7,0-3.4-0.7-3.4-3.4c0-23.7,0-47.4,0-71.1C0.5,0.7,1.2,0,3.9,0c46.6,0,93,0,139.5,0
		c2.5,0,3.4,0.7,3.4,3.4c0,23.7,0,47.4,0,71.1c0,2.5-0.7,3.4-3.4,3.4c-11.6,0-23.2,0-35,0c-0.5,0-1,0-1.8,0c0,6.2,0,12.4,0,18.8
		c-1.7,0-3.2,0-4.7,0c0-10.9,0-21.9,0-32.8C83,63.9,64.4,63.9,45.4,63.9z M141.9,4.9c-45.6,0-91.1,0-136.5,0c0,1.5,0,3,0,4.7
		c18,0,36,0,54,0c0,1.7,0,3.2,0,4.7c-18,0-36,0-54,0c0,19.7,0,39.2,0,58.8c11.8,0,23.5,0,35.3,0c0-3.9,0-7.6,0-11.3
		c0-1.8,0.8-2.7,2.5-2.7c0.3,0,0.5,0,0.5,0c-0.3-3.4-0.7-6.6-1-9.8c-3.5-2-5-4.9-4.2-8.2c0.8-3.2,3.4-5.4,6.6-5.4
		c3.2-0.2,6.1,1.8,7.1,4.9c1,3.5-0.3,6.4-4.7,9.1c0.3,3,0.8,6.2,1.2,9.4c2.4,0,4.2,0,6.1,0c0-3.9,0-7.7,0-11.6
		c0-5.4,3.4-9.8,8.4-11.3c0.3-0.2,0.7-0.2,1-0.3c-3.5-6.2-3-11.9,1.5-16c4-3.7,10.1-4,14.6-0.8c2.2,1.5,3.7,3.7,4.5,6.4
		c1.2,3.9,0.3,7.4-2,10.6c5.4,1.5,8.7,4.9,9.4,10.3c0.3,2.4,0.2,4.7,0.2,7.1c0,2,0,4,0,6.1c2,0,3.9,0,6.1,0c0.3-3.2,0.8-6.6,1.2-9.6
		c-3.9-2-5.5-5-4.9-8.2c0.7-3.2,3.4-5.5,6.7-5.5c3.4,0,6.2,2,7.1,5.2c1,3.5-0.5,6.4-4.2,8.6c-0.3,3.4-0.7,6.6-1,9.8
		c2.7,0.3,3,0.8,3,3.7c0,1.5,0,3,0,4.4c0,2,0,4,0,5.9c11.9,0,23.5,0,35.3,0c0-19.7,0-39.2,0-58.8c-18,0-36,0-54,0c0-1.7,0-3.2,0-4.7
		c18,0,36,0,54,0C141.9,7.9,141.9,6.6,141.9,4.9z M87.8,59c0-4.2,0.2-8.4,0-12.6c-0.2-3.5-3.4-6.1-6.9-6.1c-4.9,0-9.6,0-14.5,0
		c-3.5,0-6.6,2.7-6.9,6.1c-0.3,4.2,0,8.4,0,12.6C69.1,59,78.3,59,87.8,59z M80.7,28.4c0-3.9-3.2-7.1-7.1-7.1s-7.1,3.2-7.1,7.1
		c0,3.9,3.2,7.1,7.1,7.1C77.5,35.5,80.7,32.3,80.7,28.4z M45.4,44.9c1.3,0,2.4-1,2.4-2.4c0-1.3-1.2-2.4-2.4-2.4
		c-1.3,0-2.4,1.2-2.4,2.4C43,43.9,44.2,44.9,45.4,44.9z M104.4,42.5c0-1.3-1-2.4-2.4-2.4c-1.3,0-2.4,1-2.4,2.4c0,1.3,1,2.5,2.4,2.4
		C103.2,44.9,104.4,43.9,104.4,42.5z"/>
	
		<linearGradient id="SVGID_00000022528179474167661110000001625720944663989392_" gradientUnits="userSpaceOnUse" x1="0.6266" y1="-744.576" x2="146.8266" y2="-744.576" gradientTransform="matrix(1 0 0 -1 0 -620.8)">
		<stop  offset="0" style="stop-color:#5A5A59"/>
		<stop  offset="7.713336e-02" style="stop-color:#5E5E5D"/>
		<stop  offset="0.155" style="stop-color:#6A6A69"/>
		<stop  offset="0.2332" style="stop-color:#7E7E7D"/>
		<stop  offset="0.3116" style="stop-color:#9A9A9A"/>
		<stop  offset="0.3903" style="stop-color:#BFBEBE"/>
		<stop  offset="0.4681" style="stop-color:#EAEAEA"/>
		<stop  offset="0.5006" style="stop-color:#FFFFFF"/>
		<stop  offset="0.5585" style="stop-color:#F0F0F0"/>
		<stop  offset="0.6696" style="stop-color:#C9C9C9"/>
		<stop  offset="0.748" style="stop-color:#AAAAA9"/>
		<stop  offset="0.8078" style="stop-color:#8E8D8D"/>
		<stop  offset="0.8868" style="stop-color:#6F6E6E"/>
		<stop  offset="0.9537" style="stop-color:#5C5B5B"/>
		<stop  offset="1" style="stop-color:#555454"/>
	</linearGradient>
	<path style="fill:url(#SVGID_00000022528179474167661110000001625720944663989392_);" d="M8.7,118.5c-3.2-5.9-2.5-10.9,1.7-14.6
		c3.7-3.2,9.2-3.4,13.3-0.3c4.5,3.5,5.2,8.4,2.2,15c1,0.5,2,1,3,1.7c0.8,0.7,1.7,1.5,2.5,2.2c1.8-1.3,3.7-2.7,5.7-4
		c-1.8-2.7-2.5-5.7-1.7-9.1c0.7-2.4,2-4.4,4-5.9c4-2.9,9.6-2.7,13.1,0.7c4,3.7,4.7,8.9,1.5,14.1c1.8,1.3,3.7,2.7,5.5,4
		c1.7-1.2,3.5-2.5,5.5-4c-1.8-2.9-2.7-6.2-1.3-9.8c0.8-2.2,2.2-4,4.2-5.4c4-2.7,9.2-2.2,12.8,1c4,3.5,4.5,8.4,1.5,14.1
		c1.8,1.3,3.7,2.7,5.5,3.9c1.7-1.2,3.5-2.5,5.5-4c-1.8-2.7-2.5-5.7-1.7-9.1c0.7-2.4,2-4.4,4-5.7c4-2.9,9.6-2.5,13.3,0.8
		c3.9,3.7,4.4,8.7,1.3,14c1.8,1.3,3.7,2.7,5.5,4c1.7-1.2,3.5-2.5,5.5-3.9c-3-6.2-2.4-11.3,2.2-14.6c3.9-3,9.6-2.9,13.3,0.3
		c4.2,3.5,4.7,8.7,1.5,14.5c0.3,0.2,0.7,0.3,1,0.5c4.5,2.2,6.9,5.9,7.1,10.9c0,4.5,0,8.9,0,13.5c0,2.2-0.8,2.9-3,2.9
		c-46.7,0-93.5,0-140.2,0c-2.2,0-3-0.8-3-2.9c0-4.4,0-8.7,0-13.1c0-5.4,2.5-9.1,7.4-11.3C8.2,118.9,8.4,118.7,8.7,118.5z
		 M28.9,141.6c0-0.5,0-1,0-1.3c0-3.7,0.2-7.2,0-10.9c-0.2-3.7-3.2-6.6-7.1-6.6c-3.2,0-6.2,0-9.4,0c-4,0-7.1,3-7.1,7.2
		c0,2.4,0,4.9,0,7.2c0,1.5,0,2.9,0,4.4C13.3,141.6,21,141.6,28.9,141.6z M57.2,141.6c0-4.2,0.2-8.4,0-12.6c-0.2-3.5-3.2-6.1-6.7-6.2
		c-3.4,0-6.6,0-9.9,0s-6.6,2.5-6.7,6.1c-0.3,4.2,0,8.6,0,12.8C41.5,141.6,49.3,141.6,57.2,141.6z M62,141.4c7.9,0,15.6,0,23.5,0
		c0-4,0-8.1,0-11.9c-0.2-3.7-3-6.6-6.7-6.7c-3.4-0.2-6.7,0-9.9,0c-3.5,0-6.6,2.7-6.7,6.2C61.9,133.2,62,137.2,62,141.4z
		 M113.8,141.6c0-4,0-7.7,0-11.6c0-4-3-7.1-7.2-7.2c-3,0-6.1,0-9.1,0c-4.2,0-7.2,3-7.2,7.2c0,3.5,0,6.9,0,10.4c0,0.3,0,0.7,0.2,1.2
		C98.2,141.6,105.9,141.6,113.8,141.6z M142.1,141.6c0-4.2,0.2-8.4,0-12.4c-0.2-3.5-3.2-6.2-6.7-6.4c-3.4,0-6.6,0-9.9,0
		c-3.2,0-5.9,2.2-6.6,5.4c-0.3,1.3-0.2,2.7-0.2,4c0,3,0,6.2,0,9.2C126.4,141.6,134.2,141.6,142.1,141.6z M17,118
		c3.2,0,5.9-2.5,5.9-5.9c0-3.2-2.5-5.9-5.9-6.1c-3.2,0-5.9,2.5-5.9,5.9C11.3,115.3,13.8,118,17,118z M51.3,112.1
		c0-3.2-2.7-5.9-5.9-5.9s-5.9,2.7-5.9,5.9s2.7,5.9,5.9,5.9S51.3,115.3,51.3,112.1z M79.5,112.1c0-3.2-2.5-5.9-5.9-5.9
		c-3.2,0-5.9,2.7-5.9,5.9s2.7,5.9,5.9,5.9C76.8,118,79.5,115.3,79.5,112.1z M107.9,112.1c0-3.2-2.7-5.9-5.9-5.9s-5.9,2.7-5.9,5.9
		s2.7,5.9,5.9,5.9S107.9,115.3,107.9,112.1z M136.2,112.1c0-3.2-2.7-5.9-5.9-5.9s-5.9,2.7-5.9,5.9s2.7,5.9,5.9,5.9
		S136.2,115.3,136.2,112.1z"/>
</g>
</svg>
