<?xml version="1.0" encoding="utf-8"?>
<!-- Generator: Adobe Illustrator 27.2.0, SVG Export Plug-In . SVG Version: 6.00 Build 0)  -->
<svg version="1.1" id="Слой_1" xmlns="http://www.w3.org/2000/svg" xmlns:xlink="http://www.w3.org/1999/xlink" x="0px" y="0px"
	 viewBox="0 0 100.2 100.7" style="enable-background:new 0 0 100.2 100.7;" xml:space="preserve">
<style type="text/css">
	.st0{fill:#FFFFFF;}
</style>
<path class="st0" d="M55.8,0.4c2.2,0.8,3.6,2.2,3.7,4.7c0,1.1,0,2.1,0,3.2c0.4,0,0.8,0,1.1,0c3.2,0,6.4,0,9.6,0
	c3.7,0,6.4,2.7,6.4,6.4c0,7.3,0,14.5,0,21.8c0,0.4,0,0.8,0,1.1c2.5,0.8,4.7,0.1,7-0.3c-0.1-0.5-0.3-1.2-0.3-1.8
	c-0.1-1.1,0.3-1.8,1.2-1.9c2.5-0.4,4.9-1,7.5-1.4c1.2-0.1,1.8,0.3,2.1,1.6c1,5.6,1.9,11.2,3,16.9c1,5.3,1.9,10.7,2.9,16.2
	c0.3,1.5-0.1,2.1-1.6,2.3c-2.3,0.4-4.7,0.8-7,1.2c-1.2,0.3-1.6-0.1-2.2-1.9c-0.8-0.1-1.2,0.3-1.8,1c-1.2,1.9-2.7,3.7-4,5.5
	c-0.3,0.3-0.5,0.7-0.5,1.1c-0.4,4-3,6.3-7,6c-0.3,0-0.4,0-0.7,0c-1.4,4.9-3,6.2-7.8,6c-0.1,1.9-0.8,3.7-2.5,4.8
	c-1.5,1.2-3.3,1.6-5.3,1.1c0,0.4-0.1,0.7-0.1,1.1c-0.8,4.4-5.5,6.6-9.3,4.2c-0.5-0.4-1.1-0.4-1.6-0.3c-3.3,1.1-6.7-0.8-7.7-4
	c-0.1-0.3-0.1-0.5-0.3-0.8c-3.7,2.2-8.4,0.7-9.6-4.1c-2.7,1.5-5.3,1.4-7.7-0.7c-2.3-2.2-2.5-4.8-1.2-7.7c-0.3-0.1-0.5-0.3-0.8-0.4
	c-2.2-1.1-3.4-2.7-3.6-5.2c0-0.5-0.3-1-0.7-1.4c-1.2-1.8-2.7-3.4-4-5.3c-0.4-0.7-0.8-1.2-1.8-1.1c0,0.3-0.1,0.5-0.3,0.8
	c-0.3,1-1,1.4-1.9,1.2c-2.5-0.4-4.9-0.8-7.4-1.4c-0.5-0.1-1-0.7-1.5-1c0-0.4,0-1,0-1.4c0-0.1,0.1-0.3,0.1-0.3c1-5.6,1.9-11.1,3-16.7
	c1-5.3,1.9-10.6,2.7-15.9c0.3-1.2,0.8-1.8,1.9-1.6c2.5,0.4,5.1,0.8,7.5,1.4c1,0.1,1.4,1,1.2,1.9c-0.1,0.5-0.1,1.1-0.3,1.8
	c2.3,0.4,4.5,1.2,7,0.3c0-0.4,0-0.7,0-1.1c0-7.3,0-14.5,0-21.8c0-3.7,2.7-6.4,6.4-6.4c3.2,0,6.4,0,9.6,0c0.4,0,0.7,0,1.1,0
	c0-1.1,0-2.2,0-3.2c0.1-2.5,1.5-3.8,3.7-4.5C48.3,0.4,52,0.4,55.8,0.4z M35.9,72.8c2.9,0.7,4.5,2.7,4.9,6c1.6-0.1,3.2,0.1,4.5,1.1
	c1.4,1,2.2,2.3,2.5,4c0.1-0.1,0.3-0.1,0.4-0.1c4.4-2.2,8.8,0.3,9.3,5.1c0,0.3,0.3,0.7,0.5,1c0.3,0.3,0.7,0.5,1.1,0.8
	c1.5,1,3.4,0.5,4.4-0.8c1-1.5,0.5-3.3-1-4.4c-1.1-0.7-2.2-1.5-3.3-2.2c-1.5-1-2.9-1.9-4.4-2.9c-0.7-0.4-1-1.1-0.7-1.8
	c0.3-0.5,0.8-1,1.4-1.1c0.4-0.1,1,0.1,1.4,0.4c3.3,2.2,6.6,4.2,9.7,6.4c1.6,1.1,3.6,0.8,4.7-0.7c1-1.5,0.5-3.3-1.2-4.5
	c-1.8-1.2-3.7-2.5-5.5-3.7c-1.5-1-3.2-2.1-4.7-3.2c-0.4-0.3-0.7-1.1-0.7-1.5s0.7-1.1,1.1-1.2c0.4-0.1,1.1,0.1,1.6,0.4
	c3,1.9,5.9,3.8,8.9,5.9c1.4,0.8,2.6,1.8,4,2.6c1.1,0.7,2.3,0.5,3.4-0.1c1.1-0.8,1.5-1.9,1.2-3.2c-0.1-1-0.8-1.6-1.6-2.2
	c-5.3-3.6-10.8-7.1-16.2-10.7c-0.4-0.3-0.8-0.4-1.4-0.5c-4.2-1.1-7.3-3.7-9-7.8c-0.1-0.3-0.3-0.5-0.4-0.8c-1.6,0.4-3.4,0.7-5.1,1.1
	c-0.4,0.1-0.8,0.4-1.1,0.7c-0.8,1.1-1.5,2.3-2.3,3.4c-1.9,2.6-4.5,3.8-7.8,3.3c-5.1-0.8-6.3-5.2-3.8-8.4c1.6-2.2,3.2-4.7,4.7-7
	c1.4-2.2,3.2-3.7,5.5-4.5c1.6-0.5,3.2-1.4,4.8-2.1c-1.8-1.1-4.5-1.6-6.6-1.4c-4.8,0.7-9.6,1.5-14.4,2.2c-2.5,0.4-4.9,0.7-7.3,0
	c-0.5-0.1-1-0.1-1.6-0.3c-1.5,8.4-2.9,16.6-4.4,24.8c0.3,0.1,0.5,0.1,0.8,0.1c1.5,0,2.3,0.7,3,2.2c0.7,1.8,1.8,3.2,3,4.4
	c2.6-2.2,5.1-4.4,7.7-6.3c3.3-2.6,8.2-0.8,9.5,3.2C35.9,70,35.8,71.3,35.9,72.8z M84.2,40.3c-0.4,0.1-0.8,0.1-1.2,0.1
	c-1.4,0.1-2.7,0.7-4.1,0.5c-5.2-0.7-10.3-1.5-15.5-2.3c-2.7-0.4-5.5-0.7-8.2,0.4c-4.7,2.1-9.3,4-13.8,6c-0.8,0.4-1.8,1.1-2.3,1.8
	c-2.1,2.9-3.8,5.8-5.8,8.6c-0.7,1.1-0.4,1.9,0.7,2.6c2.1,1.1,4.7,0.5,6-1.5c1-1.4,1.9-2.9,2.9-4.2c0.3-0.4,0.7-0.8,1.1-1
	c2.6-0.5,5.2-1.1,7.9-1.6c1-0.1,1.5,0.3,1.9,1.2c0.1,0.5,0.3,1.1,0.5,1.6c2.3,5.8,9.6,8.1,15.2,4.7c1-0.5,1.9-1.2,2.9-1.8
	c0.8-0.4,1.6-0.3,2.2,0.4c0.4,0.7,0.3,1.5-0.4,2.1c-2.1,1.4-4.1,2.9-6.4,3.4c-0.1,0-0.4,0.1-0.7,0.3c0.3,0.3,0.5,0.4,0.7,0.5
	c3.8,2.5,7.5,5.1,11.4,7.5c1,0.7,1.8,1.4,2.7,2.1c1.4-1.4,2.5-3,3.2-4.8c0.4-1.1,1.1-1.6,2.3-1.8c0.4,0,0.8-0.1,1.4-0.3
	C87.2,56.9,85.7,48.6,84.2,40.3z M68.8,23.7c2.6,0,4.7-1.9,4.7-4.5c0-1.4,0-2.7,0-4.2c0-2.6-1.1-3.7-3.7-3.7c-10.7,0-21.4,0-31.9,0
	c-2.6,0-5.2,0-7.9,0c-1.8,0-3.2,1.2-3.2,3s-0.1,3.4,0,5.2c0.1,2.5,2.2,4.2,4.7,4.2c0-0.3,0-0.7,0-1c0-1.6,0.5-2.1,2.1-2.1
	c1.8,0,3.4,0,5.2,0c1.6,0,2.1,0.5,2.1,2.1c0,0.3,0,0.7,0,1c6.3,0,12.5,0,18.8,0c0-0.5,0-1,0-1.4c0-1.1,0.5-1.6,1.6-1.6
	c2.1,0,4.1,0,6.2,0c1,0,1.5,0.7,1.6,1.6C68.8,22.7,68.8,23.3,68.8,23.7z M59.4,27c-6.3,0-12.5,0-18.6,0c0,0.4,0,0.8,0,1.1
	c0,1.4-0.5,1.9-1.9,1.9c-1.9,0-3.7,0-5.6,0c-1.4,0-1.9-0.5-1.9-1.9c0-0.4,0-0.7,0-0.8c-1.6-0.5-3.2-1.1-4.7-1.6c0,3.7,0,7.5,0,11.4
	c0.1,0,0.3,0,0.4,0c3.2-0.5,6.3-0.8,9.3-1.5c3.7-0.7,7.3-0.7,10.7,1.1c2.2,1.2,4,1.1,6,0c3-1.6,6.2-1.8,9.6-1.2
	c3.6,0.7,7.1,1.1,10.7,1.6c0-3.8,0-7.7,0-11.4c-1.5,0.5-3,1-4.7,1.5c0,0.1,0,0.4,0,0.8c0,1.6-0.5,2.1-2.1,2.1c-1.4,0-2.9,0-4.2,0
	c-2.3,0.1-3.2-0.3-3-2.9C59.5,27.1,59.5,27.1,59.4,27z M8.1,67c1.8-10.3,3.6-20.4,5.5-30.7c-1.6-0.3-3-0.5-4.7-0.8
	C7.1,45.8,5.3,56.1,3.4,66.2C5.1,66.6,6.6,66.7,8.1,67z M96.7,66.2c-1.8-10.3-3.6-20.6-5.5-30.7c-1.6,0.3-3,0.5-4.7,0.8
	C88.3,46.6,90.1,56.9,92,67C93.6,66.7,95.1,66.6,96.7,66.2z M37.4,78.4c0-0.8-0.5-1.8-1.6-2.3s-2.3-0.5-3.3,0.3
	c-2.5,1.9-4.8,4-7.1,6c-1.4,1.2-1.5,3-0.4,4.4s3,1.5,4.4,0.4c2.3-1.9,4.7-4,7-5.9C37.2,80.7,37.4,79.9,37.4,78.4z M32.8,71.3
	c0-1.8-0.5-2.7-1.6-3.3c-1.2-0.5-2.5-0.4-3.4,0.4c-1.9,1.6-3.8,3.3-5.9,4.9c-1.4,1.2-1.6,3.2-0.5,4.5c1.1,1.4,3,1.5,4.4,0.3
	c2.1-1.6,4-3.3,5.9-4.9C32.2,72.5,32.5,71.5,32.8,71.3z M54.4,89.8c-0.1-1.8-0.7-2.7-1.8-3.3c-1.2-0.5-2.3-0.4-3.4,0.4
	c-1.6,1.2-3.2,2.6-4.7,4c-1.4,1.1-1.5,3-0.5,4.4c1.1,1.4,3,1.6,4.4,0.4c1.6-1.2,3.3-2.6,4.8-4C53.9,91,54.2,90.2,54.4,89.8z
	 M36.9,92.2c0.5-0.3,1.2-0.3,1.6-0.7c1.8-1.4,3.6-2.9,5.3-4.4c1.2-1.1,1.1-2.9,0.1-4.1c-1-1.2-2.9-1.5-4.1-0.5
	c-1.8,1.4-3.6,2.9-5.2,4.4c-1,0.8-1.2,2.2-0.7,3.4C34.6,91.5,35.5,92.1,36.9,92.2z M56.4,8.2c0-1.1,0-2.1,0-3c0-1-0.5-1.6-1.5-1.6
	c-3.2,0-6.2,0-9.3,0c-0.8,0-1.4,0.4-1.5,1.2c-0.1,1.1,0,2.2,0,3.4C48.1,8.2,52.1,8.2,56.4,8.2z M34.6,26.8c1.1,0,2.1,0,3,0
	c0-1.1,0-2.1,0-3c-1.1,0-2.1,0-3,0C34.6,24.9,34.6,25.9,34.6,26.8z M65.7,26.8c0-1.1,0-2.1,0-3c-1.1,0-2.1,0-3,0c0,1.1,0,2.1,0,3
	C63.6,26.8,64.6,26.8,65.7,26.8z M52,96.9c1.5,0.5,2.6,0.3,3.6-0.7c0.8-0.8,1.1-1.9,0.5-2.9C54.7,94.4,53.5,95.7,52,96.9z"/>
</svg>
