<?xml version="1.0" encoding="utf-8"?>
<!-- Generator: Adobe Illustrator 27.2.0, SVG Export Plug-In . SVG Version: 6.00 Build 0)  -->
<svg version="1.1" id="Слой_1" xmlns="http://www.w3.org/2000/svg" xmlns:xlink="http://www.w3.org/1999/xlink" x="0px" y="0px"
	 viewBox="0 0 1397.3 734.9" style="enable-background:new 0 0 1397.3 734.9;" xml:space="preserve">
<style type="text/css">
	.st0{fill-rule:evenodd;clip-rule:evenodd;fill:#FFFFFF;}
	.st1{fill:#FFFFFF;}
	.st2{fill:url(#SVGID_1_);}
	.st3{fill:url(#SVGID_00000009557234381651068420000008016713999243922827_);}
	.st4{fill:url(#SVGID_00000103976959777256237840000009196593161318712971_);}
	.st5{fill:url(#SVGID_00000038390237852280510530000016436761147849031848_);}
	.st6{fill:url(#SVGID_00000160165656528597834490000016873376317940519091_);}
	.st7{fill:url(#SVGID_00000130630172783560186980000013423450879167410304_);}
	.st8{fill:url(#SVGID_00000142893287612784082830000002302037346704582075_);}
	.st9{fill:url(#SVGID_00000114783487873418272640000012605774034654272164_);}
	.st10{fill:url(#SVGID_00000127741861928598772270000012370563254058792122_);}
	.st11{fill:url(#SVGID_00000050640831895909175010000006868430227860125351_);}
	.st12{fill:url(#SVGID_00000157297134819082747730000016024675544836076691_);}
	.st13{fill:url(#SVGID_00000067927113736512895970000008756525773602319770_);}
	.st14{fill:url(#SVGID_00000165223472298294526120000011662668218396967581_);}
	.st15{fill:url(#SVGID_00000129191799974296796820000001393877303579348126_);}
	.st16{fill:url(#SVGID_00000155115188288443257010000007930659485746017175_);}
	.st17{fill:url(#SVGID_00000131328298594629882670000016333953469618773384_);}
	.st18{fill:url(#SVGID_00000106109713479897717490000018400212238699155866_);}
	.st19{fill:url(#SVGID_00000094603410028724122740000008233353355042955678_);}
	.st20{fill:url(#SVGID_00000031928783330205426350000015130809548727612584_);}
	.st21{fill:url(#SVGID_00000103952745466368345110000008454441409121402266_);}
	.st22{fill:url(#SVGID_00000111885179434902047460000007477821321646652849_);}
	.st23{fill:url(#SVGID_00000026123011993565252430000010055105358280773787_);}
	.st24{fill:url(#SVGID_00000039113071972125201600000003669576930983154853_);}
	.st25{fill:url(#SVGID_00000113341058495008335250000009652582201330395317_);}
	.st26{fill:url(#SVGID_00000049195947400363910600000003601779109693788066_);}
	.st27{fill:url(#SVGID_00000181799431149357448830000005899864817945498513_);}
	.st28{fill:url(#SVGID_00000174579375870945862340000001610472945584063370_);}
	.st29{fill:url(#SVGID_00000027566055381527655200000013667313424322661053_);}
	.st30{fill:url(#SVGID_00000144301769435145022370000015998054726335126662_);}
	.st31{fill:url(#SVGID_00000079482471305682275350000006718988183963740347_);}
	.st32{fill:url(#SVGID_00000114073158766385360950000001988153329343525796_);}
	.st33{fill:url(#SVGID_00000094616347845411634150000001973081308377159837_);}
	.st34{fill:url(#SVGID_00000023239120765440626720000007850705839255571867_);}
</style>
<g>
	<g id="WA_Logo_10_">
		<g>
			<path class="st0" d="M1124.3,110c-4.6-4.6-10.7-7.2-17.3-7.2c-13.5,0-24.4,11-24.4,24.4c0,4.3,1.1,8.5,3.3,12.2l-3.5,12.7
				l12.9-3.4c3.6,1.9,7.6,3,11.7,3h0c0,0,0,0,0,0c13.5,0,24.4-11,24.4-24.4C1131.4,120.8,1128.9,114.6,1124.3,110z M1107,147.6
				L1107,147.6c-3.7,0-7.2-1-10.3-2.8l-0.7-0.4l-7.7,2l2.1-7.5l-0.5-0.8c-2-3.2-3.1-7-3.1-10.8c0-11.2,9.1-20.3,20.3-20.3
				c5.4,0,10.5,2.1,14.3,6c3.8,3.8,5.9,8.9,5.9,14.4C1127.3,138.5,1118.2,147.6,1107,147.6z M1118.2,132.4c-0.6-0.3-3.6-1.8-4.2-2
				c-0.6-0.2-1-0.3-1.4,0.3c-0.4,0.6-1.6,2-1.9,2.4c-0.4,0.4-0.7,0.5-1.3,0.2c-0.6-0.3-2.6-0.9-4.9-3c-1.8-1.6-3-3.6-3.4-4.2
				c-0.4-0.6,0-0.9,0.3-1.2c0.3-0.3,0.6-0.7,0.9-1.1c0.3-0.4,0.4-0.6,0.6-1c0.2-0.4,0.1-0.8-0.1-1.1s-1.4-3.3-1.9-4.5
				c-0.5-1.2-1-1-1.4-1c-0.4,0-0.8,0-1.2,0c-0.4,0-1.1,0.2-1.6,0.8c-0.6,0.6-2.1,2.1-2.1,5.1c0,3,2.2,5.9,2.5,6.3
				c0.3,0.4,4.3,6.6,10.4,9.2c1.5,0.6,2.6,1,3.5,1.3c1.5,0.5,2.8,0.4,3.8,0.2c1.2-0.2,3.6-1.5,4.1-2.9c0.5-1.4,0.5-2.6,0.4-2.9
				C1119.2,132.9,1118.8,132.7,1118.2,132.4z"/>
		</g>
	</g>
</g>
<path class="st1" d="M975.3,109.8c-0.2-0.5-0.4-0.6-0.7-0.7c-0.7-0.2-1.8,0.1-1.8,0.1s-39.4,14.2-41.6,15.7
	c-0.5,0.3-0.6,0.5-0.7,0.8c-0.4,1.1,0.8,1.6,0.8,1.6l10.1,3.3c0,0,0.4,0.1,0.5,0c2.3-1.5,23.2-14.7,24.4-15.1c0.2-0.1,0.3,0,0.3,0.1
	c-0.5,1.7-18.7,17.8-18.7,17.8s-0.1,0.1-0.1,0.2l0,0l-0.9,10.1c0,0-0.4,3.1,2.7,0c2.2-2.2,4.3-4,5.3-4.9c3.5,2.4,7.2,5.1,8.9,6.5
	c0.8,0.7,1.5,0.8,2.1,0.8c1.5-0.1,2-1.7,2-1.7s7.2-28.9,7.4-32.7c0-0.4,0.1-0.6,0.1-0.9C975.4,110.3,975.3,109.9,975.3,109.8z"/>
<path class="st1" d="M851,116.1c-0.6-0.5-2.8-0.5-5-0.5c-2.2,0-4.5,0-5,0.2c-0.5,0.2-1.6,2.8-2.9,5.4c-1.6,3-3.5,5.9-4.8,5.9
	c-1.6,0-1.2-5-1.1-8.6c0.1-2.4-0.3-3.2-0.7-3.4c-0.9-0.6-3.2-1.1-3.2-1.1s-6.9-0.5-7.9,2.5c1.3,0.2,3.6-0.2,2.7,9.1
	c0,0.5-1.1,4.3-4.3-0.9c-0.8-1.3-3.9-9-5-9.1c-3.6-0.1-7.1-0.2-8.4,0.5c-1.1,0.6,1.6,6,6.1,13.2c3.7,5.8,7.7,10.4,14.5,11.6
	c1.3,0.1,4.6,0.3,5.7-0.2c0.7-0.4-0.2-5.4,2.3-5.9c1.1-0.2,5.2,5.3,6.8,5.9c1,0.4,3.1,0.5,5.2,0.5c2.3-0.1,5,0.2,5.2-1.4
	c0.6-3.5-7-8-7.3-10.2c-0.2-1.5,2.8-4.4,4.3-6.6C850.1,120.2,852.1,117,851,116.1z"/>
<g>
	<path class="st1" d="M247.5,377.1c-1.4-0.3-2.8-0.5-4.2-0.8c-1.8-0.4-3.4-1.2-4.8-2.3c-3-2.4-3-5.9,0-8.3c2.4-1.9,5.2-2.7,8.2-3
		c4-0.4,7.9,0,11.5,1.7c0.2,0.1,0.4,0.1,0.6,0c2.5-1.1,5-2.2,7.6-3.3c-2.2-2.4-2.2-4.9,0-7.3c-2.6-1.1-5.1-2.2-7.6-3.3
		c-0.2-0.1-0.6,0-0.9,0.2c-5.9,2.4-11.8,2.4-17.6-0.3c-0.9-0.4-1.8-1.1-2.5-1.9c-2.1-2.1-2-4.8,0-6.9c1.8-1.8,4.1-2.7,6.5-3.3
		c0.2,0,0.3-0.1,0.5-0.1c-0.1-0.2-0.2-0.4-0.3-0.6c-3.2-4.7-6.4-9.3-9.7-14c-7.6-10.7-1.1-25.8,11.8-27.7
		c11.1-1.6,20.9,7.4,20.3,18.6c-0.2,3.3-1.2,6.3-3.1,9c-4.4,6.4-8.8,12.8-13.2,19.2c-1,1.4-1.7,1.4-2.7,0c-0.3-0.5-0.7-0.9-1-1.4
		c-0.4-0.7-0.8-0.9-1.6-0.7c-1.3,0.4-2.6,0.8-3.8,1.3c-0.5,0.2-0.9,0.5-1.4,0.8c-2.1,1.5-2.1,3.4,0,5c1.8,1.4,4,1.9,6.2,2.2
		c3.4,0.5,6.7,0.3,9.8-1c1.1-0.5,2.1-1.2,3-2c1.2-1.1,1.1-2.4,0-3.5c-0.7-0.7-1.6-1.1-2.5-1.7c-0.2-0.2-0.5-0.2-0.8-0.4
		c-0.5-0.4-0.6-0.8-0.4-1.4c0.2-0.6,0.7-0.8,1.3-0.7c2,0.3,4.9,2.9,5.4,4.8c0.4,1.5,0,2.8-0.9,4c-0.2,0.2-0.4,0.4-0.6,0.7
		c0.3,0.1,0.5,0.3,0.8,0.4c2.2,0.9,4.3,1.8,6.5,2.8c0.5,0.2,0.8,0.2,1.3,0c5.9-2.4,11.7-2.4,17.5,0.3c1,0.5,1.9,1.2,2.7,2
		c1.9,2,1.9,4.6,0,6.6c-1.8,1.9-4.2,2.9-6.7,3.4c-4.7,1-9.4,0.8-13.8-1.3c-0.2-0.1-0.5-0.1-0.7-0.1c-2.5,1.1-5,2.2-7.6,3.3
		c0.2,0.3,0.4,0.5,0.6,0.8c1.4,1.8,1.4,4,0,5.8c-1.1,1.4-2.5,2.4-4.2,2.9c-1.8,0.6-3.6,0.9-5.4,1.3c-0.2,0-0.4,0.1-0.6,0.1
		C249.9,377.1,248.7,377.1,247.5,377.1z M249.3,340.5c0.2-0.2,0.3-0.4,0.4-0.5c4.1-5.9,8.3-11.8,12.2-17.8c3.6-5.4,3.8-11,0.4-16.5
		c-3.3-5.5-8.5-8-14.9-7.3c-11.4,1.3-17.3,14.5-10.7,23.9c2,2.9,4,5.7,6,8.6C244.8,334,247,337.2,249.3,340.5z M249.2,374.7
		c2.6,0,5.1-0.4,7.4-1.4c0.7-0.3,1.4-0.7,2-1.2c1.8-1.4,1.8-3.1,0-4.5c-0.6-0.5-1.3-0.9-2-1.2c-4.8-1.9-9.6-2-14.4-0.2
		c-1.1,0.4-2.1,1.1-2.9,1.9c-1.1,1.1-1.1,2.3,0,3.4c0.5,0.5,1.1,1,1.7,1.3C243.6,374.3,246.4,374.7,249.2,374.7z M277,352.5
		c-0.8,0.1-2.5,0.3-4.1,0.6c-1.8,0.4-3.5,1.1-4.9,2.5c-1.2,1.2-1.2,2.5,0,3.7c0.7,0.6,1.4,1.2,2.3,1.6c5,2.1,10.1,2.1,15.1,0
		c0.9-0.4,1.7-1,2.4-1.7c1.1-1.1,1.1-2.3,0-3.4c-0.7-0.7-1.5-1.2-2.4-1.7C283,352.9,280.5,352.6,277,352.5z"/>
	<path class="st1" d="M248.5,326.5c-4.2-0.2-8.1-2.3-10.5-6.7c-2.4-4.3-2.2-8.7,0.3-13c0.4-0.8,1-1,1.6-0.7c0.7,0.3,0.9,1.1,0.5,1.9
		c-0.8,1.3-1.3,2.7-1.5,4.2c-0.8,5.5,2.9,10.8,8.4,11.8c5.5,1.1,10.9-2.4,12.3-7.8c1-4.2-0.5-8.5-4-11.1c-3.5-2.6-8-2.8-11.7-0.6
		c-0.4,0.2-0.9,0.4-1.2,0.3c-0.4-0.1-0.7-0.5-0.9-0.9c-0.2-0.6,0.1-1,0.6-1.3c1.9-1.2,4-1.9,6.3-2c7.6-0.4,13.8,5.7,13.6,13.3
		C262.1,320.8,256.2,326.5,248.5,326.5z"/>
</g>
<path class="st1" d="M419.6,56.9c1.6,0.6,2.6,1.6,2.7,3.4c0,0.8,0,1.5,0,2.3c0.3,0,0.6,0,0.8,0c2.3,0,4.7,0,7,0c2.7,0,4.7,2,4.7,4.7
	c0,5.3,0,10.6,0,15.9c0,0.3,0,0.6,0,0.8c1.8,0.6,3.4,0.1,5.1-0.2c-0.1-0.4-0.2-0.9-0.2-1.3c-0.1-0.8,0.2-1.3,0.9-1.4
	c1.8-0.3,3.6-0.7,5.5-1c0.9-0.1,1.3,0.2,1.5,1.2c0.7,4.1,1.4,8.2,2.2,12.3c0.7,3.9,1.4,7.8,2.1,11.8c0.2,1.1-0.1,1.5-1.2,1.7
	c-1.7,0.3-3.4,0.6-5.1,0.9c-0.9,0.2-1.2-0.1-1.6-1.4c-0.6-0.1-0.9,0.2-1.3,0.7c-0.9,1.4-2,2.7-2.9,4c-0.2,0.2-0.4,0.5-0.4,0.8
	c-0.3,2.9-2.2,4.6-5.1,4.4c-0.2,0-0.3,0-0.5,0c-1,3.6-2.2,4.5-5.7,4.4c-0.1,1.4-0.6,2.7-1.8,3.5c-1.1,0.9-2.4,1.2-3.9,0.8
	c0,0.3-0.1,0.5-0.1,0.8c-0.6,3.2-4,4.8-6.8,3.1c-0.4-0.3-0.8-0.3-1.2-0.2c-2.4,0.8-4.9-0.6-5.6-2.9c-0.1-0.2-0.1-0.4-0.2-0.6
	c-2.7,1.6-6.1,0.5-7-3c-2,1.1-3.9,1-5.6-0.5c-1.7-1.6-1.8-3.5-0.9-5.6c-0.2-0.1-0.4-0.2-0.6-0.3c-1.6-0.8-2.5-2-2.6-3.8
	c0-0.4-0.2-0.7-0.5-1c-0.9-1.3-2-2.5-2.9-3.9c-0.3-0.5-0.6-0.9-1.3-0.8c0,0.2-0.1,0.4-0.2,0.6c-0.2,0.7-0.7,1-1.4,0.9
	c-1.8-0.3-3.6-0.6-5.4-1c-0.4-0.1-0.7-0.5-1.1-0.7c0-0.3,0-0.7,0-1c0-0.1,0.1-0.2,0.1-0.2c0.7-4.1,1.4-8.1,2.2-12.2
	c0.7-3.9,1.4-7.7,2-11.6c0.2-0.9,0.6-1.3,1.4-1.2c1.8,0.3,3.7,0.6,5.5,1c0.7,0.1,1,0.7,0.9,1.4c-0.1,0.4-0.1,0.8-0.2,1.3
	c1.7,0.3,3.3,0.9,5.1,0.2c0-0.3,0-0.5,0-0.8c0-5.3,0-10.6,0-15.9c0-2.7,2-4.7,4.7-4.7c2.3,0,4.7,0,7,0c0.3,0,0.5,0,0.8,0
	c0-0.8,0-1.6,0-2.3c0.1-1.8,1.1-2.8,2.7-3.3C414.1,56.9,416.8,56.9,419.6,56.9z M405.1,109.7c2.1,0.5,3.3,2,3.6,4.4
	c1.2-0.1,2.3,0.1,3.3,0.8c1,0.7,1.6,1.7,1.8,2.9c0.1-0.1,0.2-0.1,0.3-0.1c3.2-1.6,6.4,0.2,6.8,3.7c0,0.2,0.2,0.5,0.4,0.7
	c0.2,0.2,0.5,0.4,0.8,0.6c1.1,0.7,2.5,0.4,3.2-0.6c0.7-1.1,0.4-2.4-0.7-3.2c-0.8-0.5-1.6-1.1-2.4-1.6c-1.1-0.7-2.1-1.4-3.2-2.1
	c-0.5-0.3-0.7-0.8-0.5-1.3c0.2-0.4,0.6-0.7,1-0.8c0.3-0.1,0.7,0.1,1,0.3c2.4,1.6,4.8,3.1,7.1,4.7c1.2,0.8,2.6,0.6,3.4-0.5
	c0.7-1.1,0.4-2.4-0.9-3.3c-1.3-0.9-2.7-1.8-4-2.7c-1.1-0.7-2.3-1.5-3.4-2.3c-0.3-0.2-0.5-0.8-0.5-1.1c0-0.3,0.5-0.8,0.8-0.9
	c0.3-0.1,0.8,0.1,1.2,0.3c2.2,1.4,4.3,2.8,6.5,4.3c1,0.6,1.9,1.3,2.9,1.9c0.8,0.5,1.7,0.4,2.5-0.1c0.8-0.6,1.1-1.4,0.9-2.3
	c-0.1-0.7-0.6-1.2-1.2-1.6c-3.9-2.6-7.9-5.2-11.8-7.8c-0.3-0.2-0.6-0.3-1-0.4c-3.1-0.8-5.3-2.7-6.6-5.7c-0.1-0.2-0.2-0.4-0.3-0.6
	c-1.2,0.3-2.5,0.5-3.7,0.8c-0.3,0.1-0.6,0.3-0.8,0.5c-0.6,0.8-1.1,1.7-1.7,2.5c-1.4,1.9-3.3,2.8-5.7,2.4c-3.7-0.6-4.6-3.8-2.8-6.1
	c1.2-1.6,2.3-3.4,3.4-5.1c1-1.6,2.3-2.7,4-3.3c1.2-0.4,2.3-1,3.5-1.5c-1.3-0.8-3.3-1.2-4.8-1c-3.5,0.5-7,1.1-10.5,1.6
	c-1.8,0.3-3.6,0.5-5.3,0c-0.4-0.1-0.7-0.1-1.2-0.2c-1.1,6.1-2.1,12.1-3.2,18.1c0.2,0.1,0.4,0.1,0.6,0.1c1.1,0,1.7,0.5,2.2,1.6
	c0.5,1.3,1.3,2.3,2.2,3.2c1.9-1.6,3.7-3.2,5.6-4.6c2.4-1.9,6-0.6,6.9,2.3C405.1,107.7,405,108.7,405.1,109.7z M440.4,86
	c-0.3,0.1-0.6,0.1-0.9,0.1c-1,0.1-2,0.5-3,0.4c-3.8-0.5-7.5-1.1-11.3-1.7c-2-0.3-4-0.5-6,0.3c-3.4,1.5-6.8,2.9-10.1,4.4
	c-0.6,0.3-1.3,0.8-1.7,1.3c-1.5,2.1-2.8,4.2-4.2,6.3c-0.5,0.8-0.3,1.4,0.5,1.9c1.5,0.8,3.4,0.4,4.4-1.1c0.7-1,1.4-2.1,2.1-3.1
	c0.2-0.3,0.5-0.6,0.8-0.7c1.9-0.4,3.8-0.8,5.8-1.2c0.7-0.1,1.1,0.2,1.4,0.9c0.1,0.4,0.2,0.8,0.4,1.2c1.7,4.2,7,5.9,11.1,3.4
	c0.7-0.4,1.4-0.9,2.1-1.3c0.6-0.3,1.2-0.2,1.6,0.3c0.3,0.5,0.2,1.1-0.3,1.5c-1.5,1-3,2.1-4.7,2.5c-0.1,0-0.3,0.1-0.5,0.2
	c0.2,0.2,0.4,0.3,0.5,0.4c2.8,1.8,5.5,3.7,8.3,5.5c0.7,0.5,1.3,1,2,1.5c1-1,1.8-2.2,2.3-3.5c0.3-0.8,0.8-1.2,1.7-1.3
	c0.3,0,0.6-0.1,1-0.2C442.5,98.1,441.4,92.1,440.4,86z M429.1,74c1.9,0,3.4-1.4,3.4-3.3c0-1,0-2,0-3.1c0-1.9-0.8-2.7-2.7-2.7
	c-7.8,0-15.6,0-23.3,0c-1.9,0-3.8,0-5.8,0c-1.3,0-2.3,0.9-2.3,2.2c0,1.3-0.1,2.5,0,3.8c0.1,1.8,1.6,3.1,3.4,3.1c0-0.2,0-0.5,0-0.7
	c0-1.2,0.4-1.5,1.5-1.5c1.3,0,2.5,0,3.8,0c1.2,0,1.5,0.4,1.5,1.5c0,0.2,0,0.5,0,0.7c4.6,0,9.1,0,13.7,0c0-0.4,0-0.7,0-1
	c0-0.8,0.4-1.2,1.2-1.2c1.5,0,3,0,4.5,0c0.7,0,1.1,0.5,1.2,1.2C429.2,73.3,429.1,73.6,429.1,74z M422.3,76.3c-4.6,0-9.1,0-13.6,0
	c0,0.3,0,0.6,0,0.8c0,1-0.4,1.4-1.4,1.4c-1.4,0-2.7,0-4.1,0c-1,0-1.4-0.4-1.4-1.4c0-0.3,0-0.5,0-0.6c-1.2-0.4-2.3-0.8-3.4-1.2
	c0,2.7,0,5.5,0,8.3c0.1,0,0.2,0,0.3,0c2.3-0.4,4.6-0.6,6.8-1.1c2.7-0.5,5.3-0.5,7.8,0.8c1.6,0.9,2.9,0.8,4.4,0
	c2.2-1.2,4.5-1.3,7-0.9c2.6,0.5,5.2,0.8,7.8,1.2c0-2.8,0-5.6,0-8.3c-1.1,0.4-2.2,0.7-3.4,1.1c0,0.1,0,0.3,0,0.6
	c0,1.2-0.4,1.5-1.5,1.5c-1,0-2.1,0-3.1,0c-1.7,0.1-2.3-0.2-2.2-2.1C422.3,76.5,422.3,76.4,422.3,76.3z M384.8,105.6
	c1.3-7.5,2.6-14.9,4-22.4c-1.2-0.2-2.2-0.4-3.4-0.6c-1.3,7.5-2.6,15-4,22.4C382.6,105.2,383.7,105.4,384.8,105.6z M449.5,105
	c-1.3-7.5-2.6-15-4-22.4c-1.2,0.2-2.2,0.4-3.4,0.6c1.3,7.5,2.6,15,4,22.4C447.3,105.4,448.3,105.2,449.5,105z M406.3,113.9
	c0-0.6-0.4-1.3-1.2-1.7c-0.8-0.4-1.7-0.4-2.4,0.2c-1.8,1.4-3.5,2.9-5.2,4.4c-1,0.9-1.1,2.2-0.3,3.2c0.8,1,2.2,1.1,3.2,0.3
	c1.7-1.4,3.4-2.9,5.1-4.3C406,115.5,406.3,114.9,406.3,113.9z M402.8,108.6c0-1.3-0.4-2-1.2-2.4c-0.9-0.4-1.8-0.3-2.5,0.3
	c-1.4,1.2-2.8,2.4-4.3,3.6c-1,0.9-1.2,2.3-0.4,3.3c0.8,1,2.2,1.1,3.2,0.2c1.5-1.2,2.9-2.4,4.3-3.6
	C402.4,109.5,402.7,108.9,402.8,108.6z M418.6,122.1c-0.1-1.3-0.5-2-1.3-2.4c-0.9-0.4-1.7-0.3-2.5,0.3c-1.2,0.9-2.3,1.9-3.4,2.9
	c-1,0.8-1.1,2.2-0.4,3.2c0.8,1,2.2,1.2,3.2,0.3c1.2-0.9,2.4-1.9,3.5-2.9C418.2,123,418.5,122.4,418.6,122.1z M405.8,124
	c0.4-0.2,0.9-0.2,1.2-0.5c1.3-1,2.6-2.1,3.9-3.2c0.9-0.8,0.8-2.1,0.1-3c-0.7-0.9-2.1-1.1-3-0.4c-1.3,1-2.6,2.1-3.8,3.2
	c-0.7,0.6-0.9,1.6-0.5,2.5C404.1,123.4,404.8,123.8,405.8,124z M420,62.6c0-0.8,0-1.5,0-2.2c0-0.7-0.4-1.2-1.1-1.2
	c-2.3,0-4.5,0-6.8,0c-0.6,0-1,0.3-1.1,0.9c-0.1,0.8,0,1.6,0,2.5C414,62.6,417,62.6,420,62.6z M404.1,76.2c0.8,0,1.5,0,2.2,0
	c0-0.8,0-1.5,0-2.2c-0.8,0-1.5,0-2.2,0C404.1,74.8,404.1,75.5,404.1,76.2z M426.8,76.2c0-0.8,0-1.5,0-2.2c-0.8,0-1.5,0-2.2,0
	c0,0.8,0,1.5,0,2.2C425.4,76.2,426.1,76.2,426.8,76.2z M416.8,127.3c1.1,0.4,1.9,0.2,2.6-0.5c0.6-0.6,0.8-1.4,0.4-2.1
	C418.9,125.6,417.9,126.4,416.8,127.3z"/>
<g>
	<path class="st1" d="M380.8,382.9c-1.2,1.2-2.3,2.3-3.5,3.5c-0.2,0.2-0.4,0.4-0.7,0.6c-0.6,0.5-1.5,0.5-2,0
		c-0.6-0.6-0.7-1.4-0.1-2.1c2.3-2.3,4.6-4.6,6.9-6.9c0.7-0.7,1.4-0.6,2.1,0.1c2.3,2.2,4.5,4.5,6.8,6.8c0.7,0.7,0.6,1.5,0,2.1
		c-0.6,0.5-1.4,0.5-2.1-0.1c-1.2-1.2-2.3-2.3-3.5-3.5c-0.2-0.2-0.4-0.4-0.8-0.7c0,0.5-0.1,0.8-0.1,1c0,20.2,0,40.3,0,60.5
		c0,2.5,0.9,4.4,3.2,5.5c0.8,0.4,1.7,0.5,2.6,0.5c20.3,0,40.6,0,61,0c0.2,0,0.4,0,0.8,0c-0.3-0.3-0.5-0.6-0.7-0.8
		c-1.2-1.2-2.4-2.4-3.6-3.6c-0.6-0.6-0.6-1.5,0-2.1c0.6-0.6,1.4-0.6,2,0c2.4,2.3,4.7,4.7,7,7c0.6,0.6,0.5,1.4-0.1,2
		c-2.3,2.3-4.5,4.6-6.8,6.8c-0.7,0.7-1.5,0.6-2.1,0c-0.6-0.6-0.5-1.5,0.1-2.1c1.1-1.2,2.3-2.3,3.4-3.5c0.2-0.2,0.4-0.4,0.8-0.8
		c-0.6,0-1,0-1.4,0c-20,0-40.1,0-60.1,0c-3.1,0-5.7-1-7.5-3.6c-1.2-1.6-1.5-3.5-1.5-5.5c0-20,0-40,0-60c0-0.4,0-0.8,0-1.2
		C381,383,380.9,383,380.8,382.9z"/>
	<path class="st1" d="M456.7,412.3c0,8.7,0,17.4,0,26.1c0,0.3,0,0.7,0,1c-0.2,0.7-0.7,1.2-1.4,1.2c-0.8,0-1.3-0.4-1.4-1.2
		c-0.1-0.3,0-0.7,0-1c0-17.2,0-34.4,0-51.7c0-3.9-2.2-6.1-6.1-6.1c-17.2,0-34.4,0-51.6,0c-1.5,0-2.2-0.4-2.2-1.4
		c0-1,0.7-1.5,2.2-1.5c17.2,0,34.4,0,51.6,0c5.5,0,9,3.5,9,9C456.7,395.2,456.7,403.8,456.7,412.3z"/>
	<path class="st1" d="M401.9,404.2c3.5-2.3,7.8-2.2,11,1.5c1.7-2,3.8-3.1,6.5-3.1c3.9,0.1,7.4,3.4,7.4,7.3c0.1,7.2,0,14.4,0,21.5
		c0,1-0.6,1.6-1.5,1.6c-0.9,0-1.4-0.7-1.4-1.8c0-6.9,0-13.9,0-20.8c0-3.1-2.4-5.2-5.4-4.9c-2.4,0.3-4.1,2.3-4.1,4.9
		c0,6.8,0,13.5,0,20.3c0,0.3,0,0.6,0,0.9c-0.1,0.8-0.5,1.2-1.3,1.3c-0.8,0.1-1.4-0.3-1.6-1.1c-0.1-0.3-0.1-0.7-0.1-1.1
		c0-6.8,0-13.6,0-20.4c0-3.6-3.6-5.9-6.8-4.3c-1.9,1-2.7,2.6-2.7,4.7c0,6.7,0,13.3,0,20c0,0.3,0,0.7,0,1c-0.1,0.8-0.6,1.2-1.3,1.3
		c-0.8,0.1-1.3-0.3-1.5-1.1c-0.1-0.3-0.1-0.7-0.1-1c0-9.1,0-18.2,0-27.3c0-0.4,0-0.7,0.1-1.1c0.2-0.7,0.8-1,1.5-1
		c0.7,0.1,1.2,0.5,1.3,1.2C401.9,403.3,401.9,403.7,401.9,404.2z"/>
	<path class="st1" d="M437.3,408.5c1.3,0,2.4,0,3.5,0c1.2,0,1.8,0.6,1.8,1.5c0,0.9-0.7,1.4-1.8,1.4c-2.2,0-4.4,0-6.5,0
		c-0.7,0-1.4-0.2-1.7-0.9c-0.3-0.7,0-1.3,0.5-1.8c1.6-2.1,3.3-4.1,4.8-6.3c0.7-1,1.2-2.2,1.6-3.3c0.3-0.9,0.1-1.8-0.7-2.4
		c-0.7-0.5-1.4-0.6-2.2-0.2c-0.7,0.3-1.1,0.9-1.2,1.7c-0.2,1.2-0.8,1.7-1.7,1.6c-0.9-0.1-1.3-0.8-1.2-2c0.2-2.8,2.9-4.9,5.8-4.5
		c2.9,0.4,4.8,3.3,4.1,6.3c-0.6,2.6-2.1,4.7-3.6,6.8C438.4,407.1,437.9,407.7,437.3,408.5z"/>
</g>
<g>
	<path class="st1" d="M156.8,71.2c-3-4.1-6.7-7.5-11.4-9.6c-3.9-1.7-7.7-1.9-11.6,0.1c-3.1,1.6-5.1,4.2-6.6,7.3
		c-2,4.1-2.7,8.5-2.8,13.1c0,1.2,0.1,2.5,0.1,3.7c0,0.9,0.5,1.3,1.1,1.3c0.8-0.1,1-0.7,0.9-1.4c0-0.2,0-0.4,0-0.6
		c-0.2-3.1-0.1-6.2,0.5-9.2c0.7-3.7,2-7.1,4.6-9.9c2.6-2.9,5.9-4.2,9.8-3.5c2.7,0.5,5,1.7,7.1,3.4c9.2,7.3,14.1,17,14.5,28.7
		c0.3,9.9-0.1,19.8-0.2,29.7c0,1,0,2,0,3c0.1,1.8-0.1,3.6-0.8,5.3c-1,2.3-3.7,4.4-6.9,2.5c-2-1.2-3.9-2.5-5.5-4.1
		c-9-8.9-15.4-19.5-20.1-31.3c-0.6-1.6-1.1-3.3-1.6-5c-0.2-0.6-0.6-1-1.3-0.8c-0.6,0.2-0.8,0.7-0.7,1.3c0.1,0.3,0.2,0.7,0.3,1
		c4.3,13.3,11.3,25,20.9,35.2c2,2.2,4.2,4.1,6.9,5.4c1.2,0.6,2.5,1.1,3.9,1c3-0.2,5.4-2.3,6.4-5.6c0.6-2.1,0.5-4.2,0.5-6.4
		c-0.1-4.9,0-9.7,0-14.6c0.1,0,0.2,0,0.3,0c0-4.8-0.1-9.5,0-14.3C165.4,87.3,162.5,78.8,156.8,71.2z"/>
	<path class="st1" d="M146.4,92.2c-0.3,0.6-0.4,1.1,0.2,1.6c0.6,0.4,1.1,0.2,1.4-0.4c1.3-2.4,2.7-4.7,3.9-7.1
		c0.5-0.9,0.7-2.1,0.7-3.2c0.2-6.8-5.3-13.9-11.9-15.4c-5.1-1.2-8.9,0.8-10.8,5.6c-0.6,1.6-1,3.2-1.3,4.9c-0.7,4.9-0.1,9.8,1.1,14.6
		c0.4,1.6,0.9,3.2,1.4,4.8c0.2,0.6,0.7,0.9,1.3,0.7c0.6-0.2,0.8-0.7,0.6-1.4c-0.1-0.3-0.2-0.6-0.3-1c-1.3-4.1-2.2-8.3-2.3-12.7
		c-0.1-3.2,0.2-6.4,1.4-9.4c1.5-3.6,4.3-5.1,8-4.2c4.6,1,7.7,3.9,9.6,8.1c0.5,1,0.7,2,1.1,3.1c-0.6,0.2-0.9,0.3-1.3,0.4
		c-2.3,1-4.8,1.5-6.8,3c-6.3,4.5-8.6,11.3-5.4,18.6c2,4.5,5,8,9.5,10.1c1,0.5,2,1.3,2.8,2.1c1,0.9,1.8,1.9,2.8,2.7
		c0.9,0.8,1.8,1.6,2.8,2.1c1.8,1,3.6,0.1,4-1.9c0.5-2.7,0.3-5.3-1.6-7.6c-1.3-1.5-2.4-3.3-3-5.3c-0.5-1.9-0.4-3.6,1.1-5.1
		c0.6-0.6,0.7-1.2,0.3-1.7c-0.4-0.5-1.1-0.4-1.8,0.2c-1.6,1.6-2.1,3.6-1.8,5.7c0.4,2.8,1.8,5.2,3.7,7.3c1.2,1.4,1.5,3,1.4,4.7
		c0,0.6-0.3,1.1-0.5,1.7c-0.6-0.2-1.3-0.3-1.8-0.7c-1.3-1.1-2.4-2.3-3.6-3.4c-1.2-1-2.4-2.2-3.7-2.9c-4.1-2.1-6.9-5.3-8.7-9.4
		c-2.9-7,0.3-13,5.6-16.2c1.9-1.1,4.1-1.7,6.2-2.6c0.1,0.1,0.2,0.2,0.3,0.2c-0.3,0.8-0.4,1.8-0.8,2.5C149,87.9,147.7,90,146.4,92.2z
		"/>
	<path class="st1" d="M114.5,81.6c-0.5-0.7-1.1-0.9-1.6-0.5c-0.5,0.4-0.5,1,0,1.7c0.9,1.3,1.8,2.5,2.6,3.9c3.7,6.5,4.8,13.2,2,20.4
		c-1.1,2.9-2.8,5.6-4.7,8.1c-0.4,0.5-0.5,1.1,0.1,1.6c0.6,0.5,1.1,0.2,1.5-0.3c0.4-0.6,0.9-1.2,1.3-1.8c3.3-4.7,5.4-9.8,5.5-15.6
		c-0.1-1.2-0.2-2.5-0.4-3.7C119.9,90.2,117.5,85.8,114.5,81.6z"/>
	<path class="st1" d="M109.6,85.5c-0.4-0.5-0.9-0.7-1.5-0.3c-0.5,0.4-0.5,0.9-0.2,1.5c0.8,1.2,1.7,2.4,2.4,3.7
		c2.9,5.3,3.2,10.6,0.5,16.1c-0.8,1.6-1.9,3.1-2.9,4.6c-0.4,0.5-0.4,1.1,0.1,1.5c0.5,0.4,1,0.3,1.4-0.2c3.1-3.9,5.2-8.2,5.2-13.6
		C114.7,93.9,112.6,89.6,109.6,85.5z"/>
	<path class="st1" d="M108.2,97.2c-0.4-2.7-1.6-5-3.2-7.1c-0.4-0.5-0.9-0.6-1.4-0.2c-0.5,0.4-0.6,0.9-0.2,1.4
		c0.2,0.3,0.4,0.6,0.6,0.9c2.6,3.9,3.2,7.9,0.8,12.2c-0.4,0.8-1,1.5-1.5,2.3c-0.3,0.5-0.4,1,0.2,1.4c0.5,0.4,1,0.3,1.4-0.2
		c2-2.6,3.4-5.4,3.5-9.1C108.3,98.4,108.3,97.8,108.2,97.2z"/>
	<path class="st1" d="M141.3,102.3c0.8,1.4,1.7,2.7,2.6,4c0.2,0.3,0.8,0.4,1.1,0.4c0.3-0.1,0.5-0.5,0.8-0.8
		c-0.2-0.4-0.3-0.6-0.4-0.8c-1.4-1.7-2.5-3.6-3.2-5.7c-0.2-0.6-0.7-0.9-1.3-0.7c-0.7,0.3-0.8,0.8-0.6,1.4
		C140.6,100.8,140.9,101.6,141.3,102.3z"/>
	<path class="st1" d="M141.6,96.2c0-0.2,0-0.5-0.1-0.7c-0.1-0.6-0.5-0.9-1.1-0.8c-0.5,0.1-0.9,0.4-0.9,1c0,0.2,0,0.5,0,0.7
		c0.1,0.7,0.5,1.2,1.1,1.1C141.3,97.3,141.6,96.9,141.6,96.2z"/>
</g>
<g>
	<path class="st1" d="M92.5,221.2c0-6.3,0-12.7,0-19c0.5-1.6,1.6-2.5,3.2-3.2c5.4-2.3,9.4-6.1,11.8-11.4c0.7-1.5,1.6-2.7,3.2-3.3
		c11.6,0,23.3,0,34.9,0c1.3,0.5,2.3,1.2,2.9,2.5c2.5,5.9,6.8,10,12.7,12.4c1.8,0.7,2.6,2,2.6,4c0,5.1,0,10.2,0,15.3
		c0,1.5-0.1,3-0.2,4.5c-0.1,0.7,0.1,1,0.7,1.4c8.4,5,12.8,14.6,11,24c-3.2,16.7-22.3,24.5-36.3,14.8c-0.4-0.3-0.7-0.3-1.1,0
		c-2.6,1.3-5.3,2.6-7.9,3.9c-1.2,0.6-2.4,0.5-3.6,0c-6.2-2.4-11.8-5.9-16.7-10.3c-9.3-8.5-14.9-18.9-16.7-31.5
		C92.8,224,92.7,222.6,92.5,221.2z M133,257.1c-1.1,0.6-2.3,1.1-3.4,1.7c-0.9,0.4-1.7,0.4-2.6,0c-4.2-2-8.1-4.4-11.5-7.5
		c-9.7-8.7-14.8-19.6-15-32.7c-0.1-3.8,0-7.6,0-11.5c0-1.2,0.5-2,1.5-2.6c4.8-2.7,8.6-6.4,11.4-11.2c0.6-1,1.3-1.4,2.5-1.4
		c8.3,0,16.5,0,24.8,0c1.1,0,1.9,0.4,2.4,1.3c2.8,4.8,6.7,8.5,11.5,11.3c1,0.5,1.4,1.3,1.4,2.4c0,2.6,0,5.1,0,7.7c0,0.6,0,1.3,0,1.9
		c0,0.7-0.4,1.1-1.1,1.1c-0.7,0.1-1.1-0.3-1.3-1c-0.1-0.3,0-0.5,0-0.8c0-2.8,0-5.6,0-8.5c0-0.5-0.1-0.9-0.6-1.2
		c-4.8-2.8-8.8-6.6-11.7-11.4c-0.3-0.4-0.6-0.6-1.1-0.6c-7.9,0-15.9,0-23.8,0c-0.5,0-0.8,0.1-1.1,0.6c-2.9,4.8-6.8,8.6-11.7,11.4
		c-0.5,0.3-0.7,0.6-0.7,1.1c0,3.5-0.1,7.1,0,10.6c0.1,2.5,0.2,5,0.7,7.4c2.8,14.3,11.2,24.4,24.1,30.8c0.2,0.1,0.5,0.2,0.7,0.1
		c1.1-0.5,2.2-1.1,3.3-1.6c-0.2-0.3-0.3-0.6-0.4-0.8c-4.6-9.7-1.7-21.6,6.8-28.1c0.6-0.5,0.9-1.5,0.6-2.4c-0.3-0.8-0.9-1-1.7-1
		c-5.9,0-11.8,0-17.7,0c-1.3,0-1.8,0.5-1.8,1.8c0,3,0,6,0,8.9c0,1.3,0.5,1.8,1.8,1.8c2.2,0,4.3,0,6.5,0c0.8,0,1.3,0.5,1.3,1.2
		c0,0.7-0.5,1.2-1.3,1.2c-2.4,0-4.7,0-7.1,0c-2,0-3.6-1.7-3.7-3.7c0-3.3,0-6.7,0-10c0-1.7,1.2-3.2,2.9-3.6c0.4-0.1,0.8-0.1,1.3-0.2
		c0-1.4,0-2.8,0-4.2c0-0.9,0-1.7,0.1-2.6c0.6-4.2,4.3-7.3,8.6-7.4c4.3,0,8.2,3,8.8,7.3c0.3,2,0.1,4,0.2,6c0,0.3,0,0.6,0,0.9
		c2.7,0.3,3.7,1.2,4.3,3.8c6.4-3.3,13.1-3.7,19.9-1.1c0.1-1.2,0.2-2.4,0.2-3.6c0-5.3,0-10.6,0-15.8c0-1.3-0.2-1.5-1.3-2
		c-6.3-2.7-11-7.1-13.7-13.5c-0.4-0.9-0.9-1.2-1.9-1.2c-10.9,0-21.7,0-32.6,0c-0.9,0-1.5,0.4-1.9,1.2c-2.8,6.3-7.4,10.8-13.8,13.5
		c-0.9,0.4-1.3,0.9-1.3,1.9c0,5,0,10,0,15c0,6.2,1.1,12.2,3.4,17.9c5.3,13.2,14.7,22.3,27.6,28.1c1.6,0.7,2.9,0.8,4.4,0
		c2-1.1,4.1-2,6.1-3C135.3,259.9,134.1,258.5,133,257.1z M138.5,259.6c1.3-4.4,4-7.5,8.1-9.5c-1.1-1.4-1.7-2.8-1.8-4.5
		c0-1.4-0.1-2.9,0.1-4.3c0.3-3.7,3.5-6.6,7.1-6.8c4-0.2,7.5,2.3,8,6.1c0.5,3.2,0.8,6.6-1.6,9.5c2,0.9,3.7,2.2,5.1,3.9
		c1.4,1.6,2.4,3.5,3,5.6c5.7-4.9,8.6-13.8,5.6-22.2c-3.1-8.5-11.1-13.9-20.4-13.7c-8.6,0.2-16.6,6.2-19.1,14.6
		C130,246.6,133.1,255,138.5,259.6z M152.6,265.1c3.9,0,7.8-1.1,11.2-3.4c0.4-0.3,0.5-0.5,0.4-1c-1-4.1-3.5-6.9-7.4-8.6
		c-0.4-0.2-0.9-0.1-1.3,0c-2.1,0.9-4.2,0.9-6.3,0c-0.5-0.2-0.9-0.2-1.4,0c-3.8,1.6-6.2,4.4-7.3,8.4c-0.2,0.6,0,0.9,0.5,1.3
		C144.7,264,148.4,265.1,152.6,265.1z M134.6,220.2c0-1.9,0-3.7,0-5.5c-0.1-3.3-2.6-6-5.9-6.2c-3.3-0.3-6.3,1.9-6.8,5.1
		c-0.3,2-0.1,4-0.2,6c0,0.2,0,0.4,0.1,0.6C126.1,220.2,130.3,220.2,134.6,220.2z M157.8,243.7C157.8,243.7,157.8,243.7,157.8,243.7
		c-0.1-0.5-0.1-1.1-0.1-1.6c-0.1-2.7-2.2-4.9-4.9-5.1c-2.9-0.2-5.3,1.7-5.6,4.5c-0.2,1.4-0.1,2.9,0,4.4c0.3,2.5,2.3,4.4,4.9,4.6
		c2.4,0.2,4.8-1.5,5.3-4C157.8,245.6,157.7,244.6,157.8,243.7z"/>
</g>
<g>
	<path class="st1" d="M176.3,373.4c-0.1,0.4-0.3,0.9-0.4,1.3c-1,2.4-2.8,3.8-5.4,4c-2.5,0.1-4.9,0.1-7.4,0c-1.1,0-1.5-0.6-1.5-1.7
		c0-2.6,0-5.1,0-7.7c0-0.3,0-0.6,0-1c-0.4,0-0.8,0-1.1,0c-9.4,0-18.7,0-28.1,0c-0.4,0-0.8,0-1.1-0.1c-0.7-0.2-1.1-0.7-1-1.4
		c0-0.7,0.4-1.1,1.1-1.3c0.3-0.1,0.7-0.1,1-0.1c10,0,20.1,0,30.1,0c1.7,0,2,0.4,2,2c0,2.4,0,4.9,0,7.3c0,0.3,0,0.6,0,0.9
		c2.2,0,4.4,0.1,6.5,0c1.5-0.1,2.6-1.7,2.7-3.2c0-4.1,0-8.3,0-12.4c0-1.9-1.5-3.3-3.4-3.3c-0.7,0-1.4,0-2.1,0c-2,0-3.4,1.4-3.6,3.4
		c0,0.5,0,1,0,1.5c-0.1,0.8-0.6,1.3-1.3,1.3c-0.7,0-1.3-0.4-1.4-1.1c-0.5-4.1,1.7-6.9,4.9-7.6c0.6-0.1,0.7-0.3,0.7-0.9
		c0-2.7,0-5.4,0-8.1c0-3.2-1.9-5.1-5.1-5.1c-5.4,0-10.9,0-16.3,0c-0.3,0-0.5,0-0.9,0c0,0.3,0,0.6,0,0.9c0,4.7,0,9.4,0,14.2
		c0,0.2,0,0.4,0,0.7c0,0.9-0.6,1.4-1.4,1.4c-0.8,0-1.4-0.5-1.4-1.4c0-0.8,0-1.7,0-2.6c0-4.1,0-8.2,0-12.3c0-0.3,0-0.6,0-1
		c-0.4,0-0.6,0-0.9,0c-5.5,0-11.1,0-16.6,0c-3.2,0-5.1,1.9-5.2,5.2c0,1,0,1.9,0,2.9c0,0.8-0.6,1.4-1.3,1.4c-0.8,0-1.4-0.5-1.4-1.3
		c0-1.7-0.1-3.4,0.2-5.1c0.7-3.6,3.8-5.9,7.6-5.9c9.1,0,18.1,0,27.2,0c3.5,0,7,0,10.5,0c4.8,0,8,3.2,8,8c0,2.6,0,5.1,0,7.7
		c0,0.3,0,0.6,0,0.9c0.6,0.1,1.1,0.2,1.6,0.3c2.2,0.6,3.6,2,4.4,4.2c0.1,0.3,0.2,0.6,0.3,0.8C176.3,363.9,176.3,368.6,176.3,373.4z"
		/>
	<path class="st1" d="M136.1,378.7c-6.3,0-12.5,0-18.8,0c-3.2,0-5.6-1.7-6.4-4.5c-0.2-0.7-0.3-1.3-0.3-2c0-3.9,0-7.7,0-11.6
		c0-3.9,2.7-6.6,6.6-6.6c0.9,0,1.8-0.1,2.6,0.1c3.3,0.4,5.5,3,5.6,6.3c0,2.5,0,5.1,0,7.6c0,1-0.6,1.7-1.4,1.7
		c-0.9,0-1.4-0.6-1.4-1.7c0-2.4,0-4.8,0-7.2c0-2.6-1.4-4-4-4c-0.6,0-1.2,0-1.7,0c-1.9,0.1-3.4,1.5-3.4,3.4c0,4.1,0,8.2,0,12.4
		c0,1.9,1.5,3.3,3.4,3.4c0.3,0,0.7,0,1,0c12.4,0,24.8,0,37.2,0c0.4,0,0.7,0,1.1,0.1c0.7,0.1,1.1,0.6,1.1,1.3c0,0.7-0.5,1.3-1.2,1.4
		c-0.3,0-0.7,0-1,0C148.7,378.7,142.4,378.7,136.1,378.7z"/>
	<path class="st1" d="M102.2,343.7c0-8.9,0-17.8,0-26.8c0-5.9,3.9-10.7,9.7-11.6c4.5-0.8,8.4,0.5,11.4,4c0.2,0.2,0.4,0.5,0.6,0.8
		c0.3,0.7,0.2,1.3-0.4,1.7c-0.6,0.4-1.2,0.4-1.7,0c-0.2-0.2-0.3-0.4-0.5-0.6c-3.2-4.1-9.4-4-12.6-1.5c-2.3,1.7-3.5,4-3.6,6.9
		c-0.1,2.8,0,5.7,0,8.5c0,15.3,0,30.6,0.1,45.9c0,0.3,0,0.7,0,1c-0.1,0.7-0.6,1.2-1.3,1.2c-0.7,0-1.3-0.4-1.4-1.1
		c-0.1-0.3-0.1-0.7-0.1-1C102.3,361.9,102.3,352.8,102.2,343.7C102.2,343.7,102.2,343.7,102.2,343.7z"/>
	<path class="st1" d="M124.7,329c-2.7,0-5.3,0-8,0c-1.4,0-1.8-0.4-1.9-1.9c0-2.2,0-4.3,1-6.3c2-4,6.5-6.2,10.8-5.3
		c4.6,1,7.8,4.9,7.9,9.5c0,0.8,0,1.6,0,2.4c0,1.2-0.5,1.7-1.7,1.7C130.1,329,127.4,329,124.7,329z M117.7,326.1c4.7,0,9.3,0,13.9,0
		c0.4-4.5-2.7-8-7-8C120.6,318.1,117.2,321.6,117.7,326.1z"/>
	<path class="st1" d="M100,378.7c-2.1,0-4.2,0-6.3,0c-0.7,0-1.2-0.2-1.5-0.9c-0.3-0.8,0.1-1.6,0.9-1.8c0.3-0.1,0.7-0.1,1.1-0.1
		c4,0,8,0,11.9,0c0.2,0,0.4,0,0.6,0c0.9,0.1,1.4,0.6,1.4,1.4c0,0.8-0.6,1.4-1.5,1.4C104.3,378.7,102.1,378.7,100,378.7
		C100,378.7,100,378.7,100,378.7z"/>
</g>
<g>
	<linearGradient id="SVGID_1_" gradientUnits="userSpaceOnUse" x1="111.1807" y1="639.013" x2="195.325" y2="639.013">
		<stop  offset="0" style="stop-color:#5A5A59"/>
		<stop  offset="7.713336e-02" style="stop-color:#5E5E5D"/>
		<stop  offset="0.155" style="stop-color:#6A6A69"/>
		<stop  offset="0.2332" style="stop-color:#7E7E7D"/>
		<stop  offset="0.3116" style="stop-color:#9A9A9A"/>
		<stop  offset="0.3903" style="stop-color:#BFBEBE"/>
		<stop  offset="0.4681" style="stop-color:#EAEAEA"/>
		<stop  offset="0.5006" style="stop-color:#FFFFFF"/>
		<stop  offset="0.5585" style="stop-color:#F0F0F0"/>
		<stop  offset="0.6696" style="stop-color:#C9C9C9"/>
		<stop  offset="0.748" style="stop-color:#AAAAA9"/>
		<stop  offset="0.8078" style="stop-color:#8E8D8D"/>
		<stop  offset="0.8868" style="stop-color:#6F6E6E"/>
		<stop  offset="0.9537" style="stop-color:#5C5B5B"/>
		<stop  offset="1" style="stop-color:#555454"/>
	</linearGradient>
	<path class="st2" d="M184.1,665.9c0-10.1,0-20.2,0-30.5c-4,4.2-8.4,7.4-13.6,9.7c0.6,1.6,1.1,3.2,1.6,4.7c2.5,7.3,5,14.6,7.5,21.8
		c0.6,1.7,0.1,2.4-1.7,2.4c-16.4,0-32.8,0-49.2,0c-1.8,0-2.3-0.7-1.7-2.4c2.9-8.5,5.8-16.9,8.7-25.4c0.1-0.4,0.2-0.7,0.4-1.1
		c-5.1-2.3-9.6-5.5-13.5-9.7c0,10.2,0,20.3,0,30.4c2.1,0.9,2.9,2.7,2.7,4.9c0,0.6,0,1.2,0,1.8c0,0.9-0.5,1.5-1.5,1.5
		c-3.7,0-7.4,0-11,0c-0.9,0-1.5-0.5-1.5-1.5c0-1,0-2,0-3c0.1-1.6,0.8-2.6,2.8-3.8c0-12.2,0-24.5,0-36.8c-3.1-1.5-3.9-5.2-0.9-7.6
		c-2.6-3.8-2.4-7.5,0.5-10.1c2.6-2.3,6.7-2.3,9.3,0c2.9,2.6,3.1,6.4,0.5,10.1c1.9,1.9,2.2,2.7,1.7,4.9c1.9,2.2,3.7,4.3,5.4,6.3
		c0.1-0.1,0.2-0.2,0.3-0.3c0-6.3,0-12.7,0-19.1c-2.5-3.2-1.1-6.5,0.6-8c2.1-1.8,5.3-1.8,7.4,0.1c2.2,2,2.5,4.9,0.6,7.8
		c6.5,6.9,19.8,7.9,27.8,0c-1.1-1.5-1.6-3.1-1.1-4.9c0.3-1.3,1-2.4,2.1-3.2c2.2-1.6,5.3-1.4,7.2,0.5c2.1,2.1,2.3,5,0.3,7.8
		c0,6.3,0,12.7,0,19.3c2.1-2,4-3.9,6-5.8c-0.8-2.2-0.3-4,1.5-5.5c-1.4-1.6-2.1-3.5-1.9-5.6c0.2-1.8,1-3.3,2.4-4.5
		c2.7-2.3,6.7-2.2,9.3,0.2c2.9,2.6,3,6.3,0.4,10c3.1,2.6,2,6.4-0.9,7.6c0,12.3,0,24.6,0,36.9c2.1,0.9,2.9,2.6,2.8,4.9
		c0,0.6,0,1.3,0,1.9c0,0.8-0.6,1.4-1.4,1.4c-3.7,0-7.5,0-11.2,0c-0.7,0-1.3-0.4-1.3-1.1c-0.1-1.3-0.1-2.6,0.1-3.9
		C181.6,667.5,182.7,666.5,184.1,665.9z M130,671.2c15.6,0,31,0,46.5,0c-2.9-8.4-5.7-16.7-8.6-25c-9.8,3.5-19.5,3.5-29.3,0
		C135.7,654.5,132.9,662.8,130,671.2z M167.3,617c-9.4,6.1-18.7,6.1-28,0c0,0.4,0,0.7,0,1c0,4.6,0,9.1,0,13.7c0,1.3-0.5,1.7-1.7,1.8
		c-1.5,0-3.1,0-4.6,0c-0.2,0-0.4,0-0.6,0.1c0,0.1,0,0.2-0.1,0.2c2.1,1.2,4.3,2.5,6.5,3.7c0.7-2,1.3-3.8,1.9-5.6
		c0.3-0.8,0.8-1.2,1.7-1.2c7.3,0,14.7,0,22,0c0.8,0,1.3,0.4,1.6,1.1c0.3,0.8,0.6,1.7,0.9,2.5c0.4,1,0.7,2.1,1.1,3.1
		c2.4-1.1,4.5-2.3,6.7-3.9c-2,0-3.7,0-5.4,0c-1.4,0-1.9-0.4-1.9-1.9c0-4.5,0-9,0-13.6C167.3,617.6,167.3,617.3,167.3,617z
		 M184,628.7c-0.4,0.3-0.6,0.4-0.8,0.6c-0.8,0.7-1.5,1.5-2.2,2.2c-8.5,8.5-18.8,12.4-30.8,11.6c-7.5-0.5-14.3-3.1-20.3-7.8
		c-2.3-1.8-4.4-4-6.5-6c-0.2-0.2-0.5-0.4-0.9-0.6c0,1.1,0,1.9,0,2.7c17.2,19.7,44.9,19.2,61.6,0C184,630.6,184,629.8,184,628.7z
		 M163.5,633.5c-6.9,0-13.7,0-20.5,0c-0.6,1.6-1.1,3.3-1.7,4.9c8,2.7,15.9,2.7,23.8,0C164.6,636.7,164,635.1,163.5,633.5z
		 M116.9,629.2c0,12.2,0,24.3,0,36.3c0.9,0,1.8,0,2.7,0c0-12.1,0-24.2,0-36.3C118.7,629.2,117.8,629.2,116.9,629.2z M187,629.2
		c0,12.2,0,24.3,0,36.3c0.9,0,1.8,0,2.7,0c0-12.1,0-24.2,0-36.3C188.7,629.2,187.9,629.2,187,629.2z M122.4,616.6
		c0-2.3-1.9-4.2-4.3-4.2c-2.3,0-4.2,1.9-4.1,4.2c0,2.3,1.9,4.2,4.3,4.2C120.6,620.7,122.4,618.8,122.4,616.6z M188.3,612.4
		c-2.3,0-4.2,1.9-4.2,4.2c0,2.3,1.9,4.2,4.2,4.2c2.3,0,4.2-1.9,4.2-4.2C192.5,614.3,190.6,612.4,188.3,612.4z M136.4,630.6
		c0-5.2,0-10.4,0-15.4c-0.9,0-1.8,0-2.7,0c0,5.1,0,10.3,0,15.4C134.6,630.6,135.4,630.6,136.4,630.6z M172.8,630.6
		c0-5.2,0-10.4,0-15.4c-0.9,0-1.8,0-2.7,0c0,5.1,0,10.3,0,15.4C171,630.6,171.9,630.6,172.8,630.6z M137.8,609.5
		c0-1.5-1.3-2.8-2.8-2.8c-1.5,0-2.8,1.3-2.8,2.8c0,1.6,1.3,2.8,2.9,2.8C136.6,612.3,137.8,611.1,137.8,609.5z M174.3,609.6
		c0-1.5-1.2-2.8-2.7-2.8c-1.5,0-2.8,1.2-2.8,2.7c0,1.6,1.2,2.9,2.8,2.9C173,612.4,174.3,611.1,174.3,609.6z M114,671.2
		c2.9,0,5.6,0,8.4,0c0-0.3,0-0.6,0-0.9c0-1.4-0.5-1.8-1.8-1.8c-1.7,0-3.3,0-5,0c-1,0-1.6,0.5-1.6,1.5C114,670.4,114,670.8,114,671.2
		z M184.1,671.2c2.9,0,5.6,0,8.4,0c0-0.5,0-0.9,0-1.4c-0.1-0.8-0.5-1.3-1.3-1.3c-1.9,0-3.8,0-5.7,0c-0.8,0-1.3,0.5-1.4,1.3
		C184.1,670.2,184.1,670.7,184.1,671.2z M118.2,626.4c0.9,0,1.8,0,2.6,0c1,0,1.6-0.6,1.6-1.4c0-0.8-0.6-1.4-1.6-1.4
		c-1.8,0-3.5,0-5.3,0c-1,0-1.6,0.6-1.6,1.4c0,0.9,0.6,1.4,1.6,1.4C116.5,626.4,117.3,626.4,118.2,626.4z M188.2,626.4
		c0.9,0,1.9,0,2.8,0c0.9,0,1.5-0.6,1.5-1.4c0-0.8-0.6-1.4-1.5-1.4c-1.8,0-3.6,0-5.4,0c-0.9,0-1.5,0.6-1.5,1.4c0,0.8,0.6,1.4,1.5,1.4
		C186.5,626.4,187.3,626.4,188.2,626.4z"/>
	
		<linearGradient id="SVGID_00000019677715635943509600000009614172323515516048_" gradientUnits="userSpaceOnUse" x1="149.0373" y1="602.5634" x2="166.1549" y2="602.5634">
		<stop  offset="0" style="stop-color:#5A5A59"/>
		<stop  offset="7.713336e-02" style="stop-color:#5E5E5D"/>
		<stop  offset="0.155" style="stop-color:#6A6A69"/>
		<stop  offset="0.2332" style="stop-color:#7E7E7D"/>
		<stop  offset="0.3116" style="stop-color:#9A9A9A"/>
		<stop  offset="0.3903" style="stop-color:#BFBEBE"/>
		<stop  offset="0.4681" style="stop-color:#EAEAEA"/>
		<stop  offset="0.5006" style="stop-color:#FFFFFF"/>
		<stop  offset="0.5585" style="stop-color:#F0F0F0"/>
		<stop  offset="0.6696" style="stop-color:#C9C9C9"/>
		<stop  offset="0.748" style="stop-color:#AAAAA9"/>
		<stop  offset="0.8078" style="stop-color:#8E8D8D"/>
		<stop  offset="0.8868" style="stop-color:#6F6E6E"/>
		<stop  offset="0.9537" style="stop-color:#5C5B5B"/>
		<stop  offset="1" style="stop-color:#555454"/>
	</linearGradient>
	<path style="fill:url(#SVGID_00000019677715635943509600000009614172323515516048_);" d="M166.2,602.5c-0.5,0.5-0.8,1.1-1.2,1.3
		c-1.1,0.7-2.2,1.2-3.3,1.8c-0.4,0.2-0.7,0.6-0.9,1c-0.7,1.5-1.3,3-1.9,4.5c-0.3,0.6-0.6,1.1-1.4,1.1c-0.8,0-1.2-0.5-1.5-1.2
		c-0.6-1.5-1.3-3.1-1.9-4.6c-0.2-0.3-0.5-0.7-0.8-0.9c-1.1-0.6-2.2-1.2-3.3-1.8c-1.3-0.8-1.3-2,0-2.8c0.8-0.5,1.7-1,2.5-1.4
		c1-0.4,1.5-1.1,1.9-2.1c0.5-1.3,1.1-2.6,1.6-3.9c0.3-0.6,0.7-1,1.4-1.1c0.7,0,1.2,0.4,1.4,1.1c0.6,1.6,1.3,3.1,2,4.7
		c0.2,0.3,0.5,0.7,0.8,0.9c1.1,0.7,2.3,1.2,3.4,1.9C165.4,601.5,165.7,602,166.2,602.5z M161.6,602.7c-1.1-0.7-2.1-1.2-2.8-1.9
		c-0.6-0.8-0.9-1.8-1.3-2.8c-0.1,0-0.1-0.1-0.2-0.1c-0.5,2.2-1.6,3.9-3.9,4.6c2.4,0.7,3.3,2.5,4,4.6
		C158.2,605.1,159.1,603.3,161.6,602.7z"/>
	
		<linearGradient id="SVGID_00000064335167396295738260000013211019449143840162_" gradientUnits="userSpaceOnUse" x1="144.8253" y1="591.3861" x2="147.6535" y2="591.3861">
		<stop  offset="0" style="stop-color:#5A5A59"/>
		<stop  offset="7.713336e-02" style="stop-color:#5E5E5D"/>
		<stop  offset="0.155" style="stop-color:#6A6A69"/>
		<stop  offset="0.2332" style="stop-color:#7E7E7D"/>
		<stop  offset="0.3116" style="stop-color:#9A9A9A"/>
		<stop  offset="0.3903" style="stop-color:#BFBEBE"/>
		<stop  offset="0.4681" style="stop-color:#EAEAEA"/>
		<stop  offset="0.5006" style="stop-color:#FFFFFF"/>
		<stop  offset="0.5585" style="stop-color:#F0F0F0"/>
		<stop  offset="0.6696" style="stop-color:#C9C9C9"/>
		<stop  offset="0.748" style="stop-color:#AAAAA9"/>
		<stop  offset="0.8078" style="stop-color:#8E8D8D"/>
		<stop  offset="0.8868" style="stop-color:#6F6E6E"/>
		<stop  offset="0.9537" style="stop-color:#5C5B5B"/>
		<stop  offset="1" style="stop-color:#555454"/>
	</linearGradient>
	<path style="fill:url(#SVGID_00000064335167396295738260000013211019449143840162_);" d="M144.9,592.8c0-0.9,0-1.8,0-2.8
		c0.9,0,1.8,0,2.8,0c0,0.9,0,1.8,0,2.8c0,0,0,0,0,0C146.7,592.7,145.8,592.7,144.9,592.8L144.9,592.8z"/>
	
		<linearGradient id="SVGID_00000067234809507291716480000007186993241587559066_" gradientUnits="userSpaceOnUse" x1="142.0953" y1="594.153" x2="144.8513" y2="594.153">
		<stop  offset="0" style="stop-color:#5A5A59"/>
		<stop  offset="7.713336e-02" style="stop-color:#5E5E5D"/>
		<stop  offset="0.155" style="stop-color:#6A6A69"/>
		<stop  offset="0.2332" style="stop-color:#7E7E7D"/>
		<stop  offset="0.3116" style="stop-color:#9A9A9A"/>
		<stop  offset="0.3903" style="stop-color:#BFBEBE"/>
		<stop  offset="0.4681" style="stop-color:#EAEAEA"/>
		<stop  offset="0.5006" style="stop-color:#FFFFFF"/>
		<stop  offset="0.5585" style="stop-color:#F0F0F0"/>
		<stop  offset="0.6696" style="stop-color:#C9C9C9"/>
		<stop  offset="0.748" style="stop-color:#AAAAA9"/>
		<stop  offset="0.8078" style="stop-color:#8E8D8D"/>
		<stop  offset="0.8868" style="stop-color:#6F6E6E"/>
		<stop  offset="0.9537" style="stop-color:#5C5B5B"/>
		<stop  offset="1" style="stop-color:#555454"/>
	</linearGradient>
	<path style="fill:url(#SVGID_00000067234809507291716480000007186993241587559066_);" d="M144.8,595.5c-0.9,0-1.8,0-2.8,0
		c0-0.9,0-1.8,0-2.8c0.9,0,1.8,0,2.8,0l0,0C144.8,593.7,144.8,594.6,144.8,595.5L144.8,595.5z"/>
	
		<linearGradient id="SVGID_00000084497727840243763490000001537513733493533364_" gradientUnits="userSpaceOnUse" x1="147.6275" y1="594.153" x2="150.3829" y2="594.153">
		<stop  offset="0" style="stop-color:#5A5A59"/>
		<stop  offset="7.713336e-02" style="stop-color:#5E5E5D"/>
		<stop  offset="0.155" style="stop-color:#6A6A69"/>
		<stop  offset="0.2332" style="stop-color:#7E7E7D"/>
		<stop  offset="0.3116" style="stop-color:#9A9A9A"/>
		<stop  offset="0.3903" style="stop-color:#BFBEBE"/>
		<stop  offset="0.4681" style="stop-color:#EAEAEA"/>
		<stop  offset="0.5006" style="stop-color:#FFFFFF"/>
		<stop  offset="0.5585" style="stop-color:#F0F0F0"/>
		<stop  offset="0.6696" style="stop-color:#C9C9C9"/>
		<stop  offset="0.748" style="stop-color:#AAAAA9"/>
		<stop  offset="0.8078" style="stop-color:#8E8D8D"/>
		<stop  offset="0.8868" style="stop-color:#6F6E6E"/>
		<stop  offset="0.9537" style="stop-color:#5C5B5B"/>
		<stop  offset="1" style="stop-color:#555454"/>
	</linearGradient>
	<path style="fill:url(#SVGID_00000084497727840243763490000001537513733493533364_);" d="M147.6,592.8c0.9,0,1.8,0,2.8,0
		c0,0.9,0,1.8,0,2.8c-0.9,0-1.8,0-2.8,0l0,0C147.7,594.6,147.7,593.7,147.6,592.8L147.6,592.8z"/>
	
		<linearGradient id="SVGID_00000158748614083547570490000004575785912144420517_" gradientUnits="userSpaceOnUse" x1="175.6965" y1="594.1608" x2="178.418" y2="594.1608">
		<stop  offset="0" style="stop-color:#5A5A59"/>
		<stop  offset="7.713336e-02" style="stop-color:#5E5E5D"/>
		<stop  offset="0.155" style="stop-color:#6A6A69"/>
		<stop  offset="0.2332" style="stop-color:#7E7E7D"/>
		<stop  offset="0.3116" style="stop-color:#9A9A9A"/>
		<stop  offset="0.3903" style="stop-color:#BFBEBE"/>
		<stop  offset="0.4681" style="stop-color:#EAEAEA"/>
		<stop  offset="0.5006" style="stop-color:#FFFFFF"/>
		<stop  offset="0.5585" style="stop-color:#F0F0F0"/>
		<stop  offset="0.6696" style="stop-color:#C9C9C9"/>
		<stop  offset="0.748" style="stop-color:#AAAAA9"/>
		<stop  offset="0.8078" style="stop-color:#8E8D8D"/>
		<stop  offset="0.8868" style="stop-color:#6F6E6E"/>
		<stop  offset="0.9537" style="stop-color:#5C5B5B"/>
		<stop  offset="1" style="stop-color:#555454"/>
	</linearGradient>
	<path style="fill:url(#SVGID_00000158748614083547570490000004575785912144420517_);" d="M175.7,595.5c0-0.9,0-1.8,0-2.7
		c0.9,0,1.8,0,2.7,0c0,0.9,0,1.7,0,2.7C177.5,595.5,176.7,595.5,175.7,595.5z"/>
	
		<linearGradient id="SVGID_00000055682359496497161930000002072757744513449655_" gradientUnits="userSpaceOnUse" x1="129.4558" y1="595.5625" x2="132.1667" y2="595.5625">
		<stop  offset="0" style="stop-color:#5A5A59"/>
		<stop  offset="7.713336e-02" style="stop-color:#5E5E5D"/>
		<stop  offset="0.155" style="stop-color:#6A6A69"/>
		<stop  offset="0.2332" style="stop-color:#7E7E7D"/>
		<stop  offset="0.3116" style="stop-color:#9A9A9A"/>
		<stop  offset="0.3903" style="stop-color:#BFBEBE"/>
		<stop  offset="0.4681" style="stop-color:#EAEAEA"/>
		<stop  offset="0.5006" style="stop-color:#FFFFFF"/>
		<stop  offset="0.5585" style="stop-color:#F0F0F0"/>
		<stop  offset="0.6696" style="stop-color:#C9C9C9"/>
		<stop  offset="0.748" style="stop-color:#AAAAA9"/>
		<stop  offset="0.8078" style="stop-color:#8E8D8D"/>
		<stop  offset="0.8868" style="stop-color:#6F6E6E"/>
		<stop  offset="0.9537" style="stop-color:#5C5B5B"/>
		<stop  offset="1" style="stop-color:#555454"/>
	</linearGradient>
	<path style="fill:url(#SVGID_00000055682359496497161930000002072757744513449655_);" d="M129.5,596.9c0-0.9,0-1.8,0-2.7
		c0.9,0,1.8,0,2.7,0c0,0.9,0,1.8,0,2.7C131.3,596.9,130.4,596.9,129.5,596.9z"/>
	
		<linearGradient id="SVGID_00000034091641956889470800000007783801931410252478_" gradientUnits="userSpaceOnUse" x1="144.8253" y1="596.9189" x2="147.6535" y2="596.9189">
		<stop  offset="0" style="stop-color:#5A5A59"/>
		<stop  offset="7.713336e-02" style="stop-color:#5E5E5D"/>
		<stop  offset="0.155" style="stop-color:#6A6A69"/>
		<stop  offset="0.2332" style="stop-color:#7E7E7D"/>
		<stop  offset="0.3116" style="stop-color:#9A9A9A"/>
		<stop  offset="0.3903" style="stop-color:#BFBEBE"/>
		<stop  offset="0.4681" style="stop-color:#EAEAEA"/>
		<stop  offset="0.5006" style="stop-color:#FFFFFF"/>
		<stop  offset="0.5585" style="stop-color:#F0F0F0"/>
		<stop  offset="0.6696" style="stop-color:#C9C9C9"/>
		<stop  offset="0.748" style="stop-color:#AAAAA9"/>
		<stop  offset="0.8078" style="stop-color:#8E8D8D"/>
		<stop  offset="0.8868" style="stop-color:#6F6E6E"/>
		<stop  offset="0.9537" style="stop-color:#5C5B5B"/>
		<stop  offset="1" style="stop-color:#555454"/>
	</linearGradient>
	<path style="fill:url(#SVGID_00000034091641956889470800000007783801931410252478_);" d="M147.6,595.5c0,0.9,0,1.8,0,2.8
		c-0.9,0-1.8,0-2.8,0c0-0.9,0-1.8,0-2.8c0,0,0,0,0,0C145.8,595.6,146.7,595.6,147.6,595.5L147.6,595.5z"/>
	
		<linearGradient id="SVGID_00000139262798864447964590000017978708630247301510_" gradientUnits="userSpaceOnUse" x1="144.8795" y1="609.5657" x2="147.584" y2="609.5657">
		<stop  offset="0" style="stop-color:#5A5A59"/>
		<stop  offset="7.713336e-02" style="stop-color:#5E5E5D"/>
		<stop  offset="0.155" style="stop-color:#6A6A69"/>
		<stop  offset="0.2332" style="stop-color:#7E7E7D"/>
		<stop  offset="0.3116" style="stop-color:#9A9A9A"/>
		<stop  offset="0.3903" style="stop-color:#BFBEBE"/>
		<stop  offset="0.4681" style="stop-color:#EAEAEA"/>
		<stop  offset="0.5006" style="stop-color:#FFFFFF"/>
		<stop  offset="0.5585" style="stop-color:#F0F0F0"/>
		<stop  offset="0.6696" style="stop-color:#C9C9C9"/>
		<stop  offset="0.748" style="stop-color:#AAAAA9"/>
		<stop  offset="0.8078" style="stop-color:#8E8D8D"/>
		<stop  offset="0.8868" style="stop-color:#6F6E6E"/>
		<stop  offset="0.9537" style="stop-color:#5C5B5B"/>
		<stop  offset="1" style="stop-color:#555454"/>
	</linearGradient>
	<path style="fill:url(#SVGID_00000139262798864447964590000017978708630247301510_);" d="M144.9,608.2c0.9,0,1.8,0,2.7,0
		c0,0.9,0,1.8,0,2.7c-0.9,0-1.8,0-2.7,0C144.9,610,144.9,609.2,144.9,608.2z"/>
</g>
<g>
	
		<linearGradient id="SVGID_00000126302736972382730360000001400126607082784664_" gradientUnits="userSpaceOnUse" x1="228.7412" y1="606.6232" x2="318.4577" y2="606.6232">
		<stop  offset="0" style="stop-color:#5A5A59"/>
		<stop  offset="7.713336e-02" style="stop-color:#5E5E5D"/>
		<stop  offset="0.155" style="stop-color:#6A6A69"/>
		<stop  offset="0.2332" style="stop-color:#7E7E7D"/>
		<stop  offset="0.3116" style="stop-color:#9A9A9A"/>
		<stop  offset="0.3903" style="stop-color:#BFBEBE"/>
		<stop  offset="0.4681" style="stop-color:#EAEAEA"/>
		<stop  offset="0.5006" style="stop-color:#FFFFFF"/>
		<stop  offset="0.5585" style="stop-color:#F0F0F0"/>
		<stop  offset="0.6696" style="stop-color:#C9C9C9"/>
		<stop  offset="0.748" style="stop-color:#AAAAA9"/>
		<stop  offset="0.8078" style="stop-color:#8E8D8D"/>
		<stop  offset="0.8868" style="stop-color:#6F6E6E"/>
		<stop  offset="0.9537" style="stop-color:#5C5B5B"/>
		<stop  offset="1" style="stop-color:#555454"/>
	</linearGradient>
	<path style="fill:url(#SVGID_00000126302736972382730360000001400126607082784664_);" d="M318.5,625c-0.5,0.8-1.2,1-2,1
		c-17.5,0-35,0-52.5,0c-0.2,0-0.5,0-0.8,0c0-1,0-1.9,0-2.9c17.4,0,34.8,0,52.2,0c0-11,0-21.9,0-32.9c-27.9,0-55.7,0-83.7,0
		c0,9.4,0,18.8,0,28.3c-1,0-1.9,0-3,0c0-0.3,0-0.6,0-0.9c0-9.4,0-18.9,0-28.3c0-0.9,0.2-1.6,1.1-2.1c29.5,0,59.1,0,88.7,0
		C318.5,599.8,318.5,612.4,318.5,625z"/>
	
		<linearGradient id="SVGID_00000038392182995990739280000007297293798739348373_" gradientUnits="userSpaceOnUse" x1="300.5195" y1="660.4166" x2="318.4577" y2="660.4166">
		<stop  offset="0" style="stop-color:#5A5A59"/>
		<stop  offset="7.713336e-02" style="stop-color:#5E5E5D"/>
		<stop  offset="0.155" style="stop-color:#6A6A69"/>
		<stop  offset="0.2332" style="stop-color:#7E7E7D"/>
		<stop  offset="0.3116" style="stop-color:#9A9A9A"/>
		<stop  offset="0.3903" style="stop-color:#BFBEBE"/>
		<stop  offset="0.4681" style="stop-color:#EAEAEA"/>
		<stop  offset="0.5006" style="stop-color:#FFFFFF"/>
		<stop  offset="0.5585" style="stop-color:#F0F0F0"/>
		<stop  offset="0.6696" style="stop-color:#C9C9C9"/>
		<stop  offset="0.748" style="stop-color:#AAAAA9"/>
		<stop  offset="0.8078" style="stop-color:#8E8D8D"/>
		<stop  offset="0.8868" style="stop-color:#6F6E6E"/>
		<stop  offset="0.9537" style="stop-color:#5C5B5B"/>
		<stop  offset="1" style="stop-color:#555454"/>
	</linearGradient>
	<path style="fill:url(#SVGID_00000038392182995990739280000007297293798739348373_);" d="M318.5,675.8c-0.5,0.8-1.2,1.1-2.1,1.1
		c-4.6,0-9.2,0-13.7,0c-1.6,0-2.1-0.5-2.1-2.1c0-3.8,0-7.6,0-11.4c0-2.8,1-5,3.4-6.5c0.1,0,0.1-0.1,0.3-0.2c-1.8-2-2.6-4.3-2.1-6.9
		c0.4-1.8,1.3-3.2,2.7-4.3c2.9-2.3,6.9-2.1,9.7,0.5c2.9,2.7,3,6.4,0.2,10.8c1.6,1,2.8,2.3,3.4,4.2c0.1,0.3,0.2,0.6,0.3,0.9
		C318.5,666.5,318.5,671.2,318.5,675.8z M303.5,673.8c4.1,0,8,0,11.9,0c0-3.8,0.1-7.5,0-11.2c0-2.1-1.6-3.6-3.7-3.7
		c-1.3-0.1-2.6,0-3.9,0c-2.7,0-4.2,1.6-4.2,4.3c0,3.2,0,6.5,0,9.7C303.5,673.2,303.5,673.5,303.5,673.8z M313.9,651.4
		c0-2.5-2-4.5-4.4-4.5c-2.4,0-4.5,2-4.5,4.4c0,2.5,2,4.5,4.5,4.5C312,655.9,313.9,653.9,313.9,651.4z"/>
	
		<linearGradient id="SVGID_00000114054532538438284950000001321036453810048167_" gradientUnits="userSpaceOnUse" x1="228.7378" y1="635.036" x2="276.8289" y2="635.036">
		<stop  offset="0" style="stop-color:#5A5A59"/>
		<stop  offset="7.713336e-02" style="stop-color:#5E5E5D"/>
		<stop  offset="0.155" style="stop-color:#6A6A69"/>
		<stop  offset="0.2332" style="stop-color:#7E7E7D"/>
		<stop  offset="0.3116" style="stop-color:#9A9A9A"/>
		<stop  offset="0.3903" style="stop-color:#BFBEBE"/>
		<stop  offset="0.4681" style="stop-color:#EAEAEA"/>
		<stop  offset="0.5006" style="stop-color:#FFFFFF"/>
		<stop  offset="0.5585" style="stop-color:#F0F0F0"/>
		<stop  offset="0.6696" style="stop-color:#C9C9C9"/>
		<stop  offset="0.748" style="stop-color:#AAAAA9"/>
		<stop  offset="0.8078" style="stop-color:#8E8D8D"/>
		<stop  offset="0.8868" style="stop-color:#6F6E6E"/>
		<stop  offset="0.9537" style="stop-color:#5C5B5B"/>
		<stop  offset="1" style="stop-color:#555454"/>
	</linearGradient>
	<path style="fill:url(#SVGID_00000114054532538438284950000001321036453810048167_);" d="M242.2,645.3c0-7,0-14,0-20.9
		c-0.1,0-0.1,0-0.2,0c-0.4,1.3-0.7,2.6-1.3,3.8c-0.4,1-0.9,2-1.7,2.7c-1.5,1.4-3.8,1.5-5.6,0.4c-1.7-1.1-2.6-3.2-2-5.2
		c1.3-4.7,2.7-9.4,4.1-14c1.1-3.7,4.8-6.6,8.6-6.8c0.3,0,0.6-0.1,1-0.1c-1.3-1.9-1.8-4-1.3-6.1c0.4-1.7,1.3-3.1,2.7-4.2
		c2.4-1.9,6-2.1,8.7-0.4c2.3,1.5,4.4,4.7,2.8,9.3c0.3-0.2,0.6-0.3,0.9-0.4c3.6-1.9,7.2-3.8,10.9-5.6c2.1-1.1,4.6-0.5,6,1.4
		c1.4,1.8,1.3,4.4-0.3,6.1c-0.4,0.5-1,0.8-1.5,1.1c-4.3,2.3-8.7,4.5-13,6.8c-0.3,0.1-0.6,0.3-0.8,0.4c0,10.2,0,20.4,0,30.5
		c3.4-0.4,6.1,0.6,7.8,3.6c1.9,3.2,1.3,6.3-1.1,9.1c0.5,0.4,1.1,0.8,1.5,1.2c1.4,1.3,2.1,3,2.1,4.9c0,4.1,0,8.2,0,12.3
		c0,1.2-0.6,1.8-1.8,1.8c-4.8,0-9.6,0-14.4,0c-1.2,0-1.8-0.5-1.8-1.8c0-4.1,0-8.2,0-12.3c0-2.1,0.9-3.8,2.5-5.3c-3.7,0-7.3,0-11,0
		c0.4,0.5,0.8,0.9,1.1,1.3c0.9,1.2,1.3,2.6,1.3,4.2c0,4,0,7.9,0,11.9c0,1.4-0.5,1.9-2,1.9c-4.6,0-9.3,0-13.9,0c-1.5,0-2-0.5-2-2.1
		c0-3.7,0-7.4,0-11.1c-0.1-3,1-5.3,3.7-6.9c-2.8-3.5-3.1-7.1-0.1-10.5C234.6,643.7,237.6,643.4,242.2,645.3z M257.1,645.4
		c0-0.4,0-0.7,0-1.1c0-10.3,0-20.7,0-31c0-1.2,0.4-1.9,1.5-2.5c4.5-2.3,8.9-4.6,13.4-6.9c0.3-0.2,0.7-0.3,1-0.6
		c0.8-0.5,1-1.5,0.6-2.3c-0.4-0.8-1.3-1.2-2.2-0.9c-0.3,0.1-0.5,0.2-0.8,0.4c-4.5,2.3-9,4.7-13.5,7c-0.6,0.3-1.4,0.5-2.1,0.5
		c-3.2,0.1-6.3,0-9.5,0c-3.4,0-6.2,1.8-7.1,4.7c-1.4,4.6-2.7,9.2-4,13.9c-0.3,1,0.2,2,1.1,2.2c0.9,0.3,1.8-0.2,2.3-1.1
		c0.1-0.2,0.1-0.4,0.2-0.7c1.4-4.4,2.8-8.8,4.2-13.3c0.3-0.9,0.9-1.3,1.7-1.2c0.8,0.1,1.3,0.7,1.3,1.6c0,0.3,0,0.5,0,0.8
		c0,10.9,0,21.8,0,32.7c0,2.2,0.3,4.5-0.7,6.7c1.7,0,3.4,0,5.1,0c0-8.5,0-16.9,0-25.3c1,0,2,0,3,0c0,8.5,0,16.9,0,25.3
		c0.8,0,1.4,0,2.1,0C253.5,650.8,254.3,647.9,257.1,645.4z M243.7,673.9c0-3.9,0-7.6,0-11.4c0-1.8-1.6-3.3-3.4-3.5
		c-1.4-0.1-2.7-0.1-4.1-0.1c-2.8,0-4.3,1.6-4.3,4.4c0,3.2,0,6.5,0,9.7c0,0.3,0,0.6,0,0.8C235.8,673.9,239.7,673.9,243.7,673.9z
		 M255.7,673.8c4,0,8,0,11.9,0c0-3.7,0.1-7.4,0-11.1c0-2.2-1.7-3.7-3.8-3.8c-1.2-0.1-2.5,0-3.7,0c-2.9,0-4.4,1.5-4.4,4.4
		c0,2.6,0,5.2,0,7.8C255.7,672.1,255.7,672.9,255.7,673.8z M237.8,655.9c2.5,0,4.5-2,4.5-4.5c0-2.4-2-4.5-4.5-4.5
		c-2.5,0-4.5,2-4.5,4.5C233.3,653.9,235.3,655.9,237.8,655.9z M266.1,651.4c0-2.5-2-4.5-4.4-4.5c-2.5,0-4.5,2.1-4.5,4.5
		c0,2.5,2,4.4,4.5,4.4C264.1,655.9,266.1,653.9,266.1,651.4z M251.2,605.1c2.5,0,4.5-2,4.5-4.4c0-2.4-2-4.5-4.4-4.5
		c-2.5,0-4.5,2.1-4.5,4.5C246.7,603.1,248.7,605.1,251.2,605.1z"/>
	
		<linearGradient id="SVGID_00000104674527077809077890000004614201323400732350_" gradientUnits="userSpaceOnUse" x1="276.58" y1="660.4052" x2="294.5287" y2="660.4052">
		<stop  offset="0" style="stop-color:#5A5A59"/>
		<stop  offset="7.713336e-02" style="stop-color:#5E5E5D"/>
		<stop  offset="0.155" style="stop-color:#6A6A69"/>
		<stop  offset="0.2332" style="stop-color:#7E7E7D"/>
		<stop  offset="0.3116" style="stop-color:#9A9A9A"/>
		<stop  offset="0.3903" style="stop-color:#BFBEBE"/>
		<stop  offset="0.4681" style="stop-color:#EAEAEA"/>
		<stop  offset="0.5006" style="stop-color:#FFFFFF"/>
		<stop  offset="0.5585" style="stop-color:#F0F0F0"/>
		<stop  offset="0.6696" style="stop-color:#C9C9C9"/>
		<stop  offset="0.748" style="stop-color:#AAAAA9"/>
		<stop  offset="0.8078" style="stop-color:#8E8D8D"/>
		<stop  offset="0.8868" style="stop-color:#6F6E6E"/>
		<stop  offset="0.9537" style="stop-color:#5C5B5B"/>
		<stop  offset="1" style="stop-color:#555454"/>
	</linearGradient>
	<path style="fill:url(#SVGID_00000104674527077809077890000004614201323400732350_);" d="M280.3,656.8c-2.9-4.4-2.8-8.3,0.3-10.9
		c3.1-2.6,7.2-2.6,10.2,0.2c2.3,2.2,3.7,6.7,0.1,10.7c0.2,0.1,0.4,0.3,0.6,0.4c1.8,1.3,2.9,3,3,5.2c0.1,4.3,0.1,8.6,0.1,12.9
		c0,1.1-0.6,1.7-1.7,1.7c-4.8,0-9.7,0-14.5,0c-1.1,0-1.7-0.6-1.7-1.7c0-4.2,0-8.3,0-12.5C276.7,660.2,277.8,658.5,280.3,656.8z
		 M291.5,673.9c0-3.9,0.1-7.8,0-11.7c0-1.7-1.7-3.1-3.4-3.2c-1.4-0.1-2.7-0.1-4.1-0.1c-2.8,0-4.4,1.6-4.4,4.4c0,3.2,0,6.4,0,9.6
		c0,0.3,0,0.6,0,0.9C283.6,673.9,287.5,673.9,291.5,673.9z M285.6,655.9c2.4,0,4.5-2,4.5-4.5c0-2.4-2-4.5-4.5-4.5
		c-2.5,0-4.5,2-4.5,4.5C281.1,653.9,283.1,655.9,285.6,655.9z"/>
	
		<linearGradient id="SVGID_00000078730408264254546710000012917970192589528212_" gradientUnits="userSpaceOnUse" x1="282.6204" y1="605.1271" x2="312.4615" y2="605.1271">
		<stop  offset="0" style="stop-color:#5A5A59"/>
		<stop  offset="7.713336e-02" style="stop-color:#5E5E5D"/>
		<stop  offset="0.155" style="stop-color:#6A6A69"/>
		<stop  offset="0.2332" style="stop-color:#7E7E7D"/>
		<stop  offset="0.3116" style="stop-color:#9A9A9A"/>
		<stop  offset="0.3903" style="stop-color:#BFBEBE"/>
		<stop  offset="0.4681" style="stop-color:#EAEAEA"/>
		<stop  offset="0.5006" style="stop-color:#FFFFFF"/>
		<stop  offset="0.5585" style="stop-color:#F0F0F0"/>
		<stop  offset="0.6696" style="stop-color:#C9C9C9"/>
		<stop  offset="0.748" style="stop-color:#AAAAA9"/>
		<stop  offset="0.8078" style="stop-color:#8E8D8D"/>
		<stop  offset="0.8868" style="stop-color:#6F6E6E"/>
		<stop  offset="0.9537" style="stop-color:#5C5B5B"/>
		<stop  offset="1" style="stop-color:#555454"/>
	</linearGradient>
	<path style="fill:url(#SVGID_00000078730408264254546710000012917970192589528212_);" d="M312.5,603.7c0,1,0,1.9,0,2.8
		c-9.9,0-19.9,0-29.8,0c0-0.9,0-1.8,0-2.8C292.5,603.7,302.5,603.7,312.5,603.7z"/>
	
		<linearGradient id="SVGID_00000067943327086038227610000017407773506925097378_" gradientUnits="userSpaceOnUse" x1="276.632" y1="614.0793" x2="306.4459" y2="614.0793">
		<stop  offset="0" style="stop-color:#5A5A59"/>
		<stop  offset="7.713336e-02" style="stop-color:#5E5E5D"/>
		<stop  offset="0.155" style="stop-color:#6A6A69"/>
		<stop  offset="0.2332" style="stop-color:#7E7E7D"/>
		<stop  offset="0.3116" style="stop-color:#9A9A9A"/>
		<stop  offset="0.3903" style="stop-color:#BFBEBE"/>
		<stop  offset="0.4681" style="stop-color:#EAEAEA"/>
		<stop  offset="0.5006" style="stop-color:#FFFFFF"/>
		<stop  offset="0.5585" style="stop-color:#F0F0F0"/>
		<stop  offset="0.6696" style="stop-color:#C9C9C9"/>
		<stop  offset="0.748" style="stop-color:#AAAAA9"/>
		<stop  offset="0.8078" style="stop-color:#8E8D8D"/>
		<stop  offset="0.8868" style="stop-color:#6F6E6E"/>
		<stop  offset="0.9537" style="stop-color:#5C5B5B"/>
		<stop  offset="1" style="stop-color:#555454"/>
	</linearGradient>
	<path style="fill:url(#SVGID_00000067943327086038227610000017407773506925097378_);" d="M276.6,615.5c0-1,0-1.9,0-2.9
		c9.9,0,19.8,0,29.8,0c0,1,0,1.9,0,2.9C296.5,615.5,286.6,615.5,276.6,615.5z"/>
	
		<linearGradient id="SVGID_00000129163478955145822390000005370776881796667782_" gradientUnits="userSpaceOnUse" x1="278.1792" y1="596.1594" x2="307.9364" y2="596.1594">
		<stop  offset="0" style="stop-color:#5A5A59"/>
		<stop  offset="7.713336e-02" style="stop-color:#5E5E5D"/>
		<stop  offset="0.155" style="stop-color:#6A6A69"/>
		<stop  offset="0.2332" style="stop-color:#7E7E7D"/>
		<stop  offset="0.3116" style="stop-color:#9A9A9A"/>
		<stop  offset="0.3903" style="stop-color:#BFBEBE"/>
		<stop  offset="0.4681" style="stop-color:#EAEAEA"/>
		<stop  offset="0.5006" style="stop-color:#FFFFFF"/>
		<stop  offset="0.5585" style="stop-color:#F0F0F0"/>
		<stop  offset="0.6696" style="stop-color:#C9C9C9"/>
		<stop  offset="0.748" style="stop-color:#AAAAA9"/>
		<stop  offset="0.8078" style="stop-color:#8E8D8D"/>
		<stop  offset="0.8868" style="stop-color:#6F6E6E"/>
		<stop  offset="0.9537" style="stop-color:#5C5B5B"/>
		<stop  offset="1" style="stop-color:#555454"/>
	</linearGradient>
	<path style="fill:url(#SVGID_00000129163478955145822390000005370776881796667782_);" d="M307.9,594.7c0,1,0,1.9,0,2.9
		c-9.9,0-19.8,0-29.8,0c0-0.9,0-1.9,0-2.9C288.1,594.7,298,594.7,307.9,594.7z"/>
</g>
<g>
	
		<linearGradient id="SVGID_00000145026770737077797270000014270690443687332797_" gradientUnits="userSpaceOnUse" x1="373.7867" y1="632.0359" x2="457.554" y2="632.0359">
		<stop  offset="0" style="stop-color:#5A5A59"/>
		<stop  offset="7.713336e-02" style="stop-color:#5E5E5D"/>
		<stop  offset="0.155" style="stop-color:#6A6A69"/>
		<stop  offset="0.2332" style="stop-color:#7E7E7D"/>
		<stop  offset="0.3116" style="stop-color:#9A9A9A"/>
		<stop  offset="0.3903" style="stop-color:#BFBEBE"/>
		<stop  offset="0.4681" style="stop-color:#EAEAEA"/>
		<stop  offset="0.5006" style="stop-color:#FFFFFF"/>
		<stop  offset="0.5585" style="stop-color:#F0F0F0"/>
		<stop  offset="0.6696" style="stop-color:#C9C9C9"/>
		<stop  offset="0.748" style="stop-color:#AAAAA9"/>
		<stop  offset="0.8078" style="stop-color:#8E8D8D"/>
		<stop  offset="0.8868" style="stop-color:#6F6E6E"/>
		<stop  offset="0.9537" style="stop-color:#5C5B5B"/>
		<stop  offset="1" style="stop-color:#555454"/>
	</linearGradient>
	<path style="fill:url(#SVGID_00000145026770737077797270000014270690443687332797_);" d="M377.5,676.9c-1.8-0.6-3.2-1.6-3.6-3.6
		c-0.1-0.5-0.1-0.9-0.1-1.4c0-20.1,0-40.1,0-60.2c0-1.7,0.5-2.2,2.1-2.1c3.3,0.2,6.4-0.5,9.5-1.4c22-7,44-13.8,66-20.8
		c1.6-0.5,2.1-0.2,2.7,1.4c1.1,3.4,2.1,6.7,3.2,10.1c0.5,1.7,0.3,2.2-1.4,2.8c-20.2,6.3-40.4,12.7-60.6,19c-0.3,0.1-0.5,0.2-1,0.3
		c0.3,0.2,0.5,0.4,0.7,0.4c0.2,0.1,0.5,0,0.8,0c19.8,0,39.6,0,59.4,0c0.3,0,0.6,0,1,0c1,0.1,1.5,0.6,1.6,1.6c0,0.3,0,0.5,0,0.8
		c0,15.7,0,31.5,0,47.2c0,2.8-0.9,4.8-3.7,5.7C428.4,676.9,402.9,676.9,377.5,676.9z M454.5,636.6c-26,0-51.8,0-77.8,0
		c0,0.4,0,0.7,0,0.9c0,11.4,0,22.8,0,34.2c0,1.7,0.5,2.2,2.2,2.2c24.5,0,48.9,0,73.4,0c1.7,0,2.2-0.5,2.2-2.2c0-11.4,0-22.8,0-34.2
		C454.5,637.2,454.5,636.9,454.5,636.6z M394.7,633.5c0-2.1,0-4.1,0-6.2c0-0.5-0.2-1-0.5-1.3c-2-2.6-4.1-5.2-6.2-7.8
		c-1.5-1.9-3-3.7-4.4-5.5c-2.3,0-4.5,0-6.8,0c0,7,0,13.9,0,20.8C382.8,633.5,388.7,633.5,394.7,633.5z M415.6,611.2
		c2.7-0.8,5.3-1.6,7.8-2.5c1.2-3.5,2.5-6.9,3.7-10.6c-2.7,0.8-5.3,1.6-7.8,2.5C418.1,604.1,416.9,607.6,415.6,611.2z M446.3,601.6
		c1.2-3.5,2.5-7,3.7-10.6c-2.7,0.9-5.3,1.7-7.8,2.5c-1.2,3.5-2.5,7-3.7,10.6C441.2,603.2,443.7,602.4,446.3,601.6z M430.8,597
		c-1.2,3.5-2.4,6.9-3.7,10.6c2.7-0.9,5.3-1.7,7.8-2.5c1.2-3.5,2.4-6.9,3.7-10.6C435.9,595.4,433.3,596.2,430.8,597z M412.1,612.3
		c1.2-3.5,2.4-6.9,3.7-10.6c-2.8,0.9-5.3,1.7-7.8,2.5c-1.2,3.5-2.5,7-3.7,10.6C406.9,613.9,409.5,613.1,412.1,612.3z M392.8,618.3
		c2.8-0.9,5.3-1.7,7.8-2.5c1.2-3.5,2.4-6.9,3.7-10.6c-2.7,0.9-5.3,1.7-7.8,2.5C395.3,611.3,394.1,614.7,392.8,618.3z M402.2,633.5
		c2.9,0,5.6,0,8.2,0c2.2-3,4.4-5.9,6.7-8.9c-2.9,0-5.5,0-8.2,0C406.7,627.5,404.5,630.4,402.2,633.5z M422.4,633.5
		c2.2-2.9,4.4-5.8,6.7-8.9c-2.9,0-5.5,0-8.2,0c-2.2,2.9-4.4,5.9-6.7,8.9C417,633.5,419.7,633.5,422.4,633.5z M434.4,633.5
		c2.2-2.9,4.4-5.8,6.7-8.9c-2.8,0-5.5,0-8.2,0c-2.2,2.9-4.4,5.8-6.7,8.9C429,633.5,431.7,633.5,434.4,633.5z M444.8,624.6
		c-2.2,3-4.4,5.9-6.7,8.9c2.9,0,5.5,0,8.2,0c2.2-2.9,4.4-5.9,6.7-8.9C450.2,624.6,447.5,624.6,444.8,624.6z M405.1,624.6
		c-2.8,0-5.4,0-7.9,0c1,2.9,0.1,5.9,0.6,9.1c0.4-0.3,0.8-0.5,1-0.8c1.8-2.4,3.6-4.8,5.5-7.3C404.6,625.3,404.8,625,405.1,624.6z
		 M390.4,616.3c0.9-2.5,1.7-4.9,2.6-7.4c-2.4,0.7-4.6,1.4-6.8,2.1C387.6,612.9,388.9,614.5,390.4,616.3z M454.1,599.1
		c-0.6-1.9-1.2-3.7-1.8-5.7c-0.9,2.4-1.6,4.6-2.5,7C451.4,600,452.7,599.5,454.1,599.1z M450.1,633.5c1.6,0,3,0,4.4,0
		c0-1.9,0-3.8,0-5.8C453,629.6,451.6,631.5,450.1,633.5z"/>
	
		<linearGradient id="SVGID_00000010273577071948468270000017759848197346743452_" gradientUnits="userSpaceOnUse" x1="382.8116" y1="663.3987" x2="448.5352" y2="663.3987">
		<stop  offset="0" style="stop-color:#5A5A59"/>
		<stop  offset="7.713336e-02" style="stop-color:#5E5E5D"/>
		<stop  offset="0.155" style="stop-color:#6A6A69"/>
		<stop  offset="0.2332" style="stop-color:#7E7E7D"/>
		<stop  offset="0.3116" style="stop-color:#9A9A9A"/>
		<stop  offset="0.3903" style="stop-color:#BFBEBE"/>
		<stop  offset="0.4681" style="stop-color:#EAEAEA"/>
		<stop  offset="0.5006" style="stop-color:#FFFFFF"/>
		<stop  offset="0.5585" style="stop-color:#F0F0F0"/>
		<stop  offset="0.6696" style="stop-color:#C9C9C9"/>
		<stop  offset="0.748" style="stop-color:#AAAAA9"/>
		<stop  offset="0.8078" style="stop-color:#8E8D8D"/>
		<stop  offset="0.8868" style="stop-color:#6F6E6E"/>
		<stop  offset="0.9537" style="stop-color:#5C5B5B"/>
		<stop  offset="1" style="stop-color:#555454"/>
	</linearGradient>
	<path style="fill:url(#SVGID_00000010273577071948468270000017759848197346743452_);" d="M448.5,657.5c0,1,0,1.9,0,2.9
		c-6.5,0-12.9,0-19.4,0c0,3,0,5.9,0,8.9c-1,0-2,0-3,0c0-2.9,0-5.9,0-8.8c-7,0-14,0-21,0c0,3,0,5.9,0,8.8c-1,0-2,0-3,0
		c0-2.9,0-5.9,0-8.9c-6.5,0-12.9,0-19.4,0c0-1,0-2,0-3C404.7,657.5,426.6,657.5,448.5,657.5z"/>
	
		<linearGradient id="SVGID_00000143580825805801655120000006472873677588439695_" gradientUnits="userSpaceOnUse" x1="382.8127" y1="646.9767" x2="448.5168" y2="646.9767">
		<stop  offset="0" style="stop-color:#5A5A59"/>
		<stop  offset="7.713336e-02" style="stop-color:#5E5E5D"/>
		<stop  offset="0.155" style="stop-color:#6A6A69"/>
		<stop  offset="0.2332" style="stop-color:#7E7E7D"/>
		<stop  offset="0.3116" style="stop-color:#9A9A9A"/>
		<stop  offset="0.3903" style="stop-color:#BFBEBE"/>
		<stop  offset="0.4681" style="stop-color:#EAEAEA"/>
		<stop  offset="0.5006" style="stop-color:#FFFFFF"/>
		<stop  offset="0.5585" style="stop-color:#F0F0F0"/>
		<stop  offset="0.6696" style="stop-color:#C9C9C9"/>
		<stop  offset="0.748" style="stop-color:#AAAAA9"/>
		<stop  offset="0.8078" style="stop-color:#8E8D8D"/>
		<stop  offset="0.8868" style="stop-color:#6F6E6E"/>
		<stop  offset="0.9537" style="stop-color:#5C5B5B"/>
		<stop  offset="1" style="stop-color:#555454"/>
	</linearGradient>
	<path style="fill:url(#SVGID_00000143580825805801655120000006472873677588439695_);" d="M448.5,645.5c0,1,0,1.9,0,2.9
		c-21.9,0-43.8,0-65.7,0c0-0.9,0-1.9,0-2.9C404.7,645.5,426.6,645.5,448.5,645.5z"/>
	
		<linearGradient id="SVGID_00000183953082518243500520000009152369169035345073_" gradientUnits="userSpaceOnUse" x1="379.8075" y1="617.0502" x2="382.687" y2="617.0502">
		<stop  offset="0" style="stop-color:#5A5A59"/>
		<stop  offset="7.713336e-02" style="stop-color:#5E5E5D"/>
		<stop  offset="0.155" style="stop-color:#6A6A69"/>
		<stop  offset="0.2332" style="stop-color:#7E7E7D"/>
		<stop  offset="0.3116" style="stop-color:#9A9A9A"/>
		<stop  offset="0.3903" style="stop-color:#BFBEBE"/>
		<stop  offset="0.4681" style="stop-color:#EAEAEA"/>
		<stop  offset="0.5006" style="stop-color:#FFFFFF"/>
		<stop  offset="0.5585" style="stop-color:#F0F0F0"/>
		<stop  offset="0.6696" style="stop-color:#C9C9C9"/>
		<stop  offset="0.748" style="stop-color:#AAAAA9"/>
		<stop  offset="0.8078" style="stop-color:#8E8D8D"/>
		<stop  offset="0.8868" style="stop-color:#6F6E6E"/>
		<stop  offset="0.9537" style="stop-color:#5C5B5B"/>
		<stop  offset="1" style="stop-color:#555454"/>
	</linearGradient>
	<path style="fill:url(#SVGID_00000183953082518243500520000009152369169035345073_);" d="M379.8,615.6c1,0,1.9,0,2.9,0
		c0,1,0,1.9,0,2.9c-1,0-1.9,0-2.9,0C379.8,617.5,379.8,616.6,379.8,615.6z"/>
	
		<linearGradient id="SVGID_00000044171104786280154710000009525234173584239520_" gradientUnits="userSpaceOnUse" x1="379.8213" y1="629.0202" x2="382.687" y2="629.0202">
		<stop  offset="0" style="stop-color:#5A5A59"/>
		<stop  offset="7.713336e-02" style="stop-color:#5E5E5D"/>
		<stop  offset="0.155" style="stop-color:#6A6A69"/>
		<stop  offset="0.2332" style="stop-color:#7E7E7D"/>
		<stop  offset="0.3116" style="stop-color:#9A9A9A"/>
		<stop  offset="0.3903" style="stop-color:#BFBEBE"/>
		<stop  offset="0.4681" style="stop-color:#EAEAEA"/>
		<stop  offset="0.5006" style="stop-color:#FFFFFF"/>
		<stop  offset="0.5585" style="stop-color:#F0F0F0"/>
		<stop  offset="0.6696" style="stop-color:#C9C9C9"/>
		<stop  offset="0.748" style="stop-color:#AAAAA9"/>
		<stop  offset="0.8078" style="stop-color:#8E8D8D"/>
		<stop  offset="0.8868" style="stop-color:#6F6E6E"/>
		<stop  offset="0.9537" style="stop-color:#5C5B5B"/>
		<stop  offset="1" style="stop-color:#555454"/>
	</linearGradient>
	<path style="fill:url(#SVGID_00000044171104786280154710000009525234173584239520_);" d="M379.8,627.6c1,0,1.9,0,2.9,0
		c0,1,0,1.9,0,2.9c-1,0-1.9,0-2.9,0C379.8,629.5,379.8,628.6,379.8,627.6z"/>
	
		<linearGradient id="SVGID_00000053534631001035067400000018260204762925686462_" gradientUnits="userSpaceOnUse" x1="388.7957" y1="629.0047" x2="391.6546" y2="629.0047">
		<stop  offset="0" style="stop-color:#5A5A59"/>
		<stop  offset="7.713336e-02" style="stop-color:#5E5E5D"/>
		<stop  offset="0.155" style="stop-color:#6A6A69"/>
		<stop  offset="0.2332" style="stop-color:#7E7E7D"/>
		<stop  offset="0.3116" style="stop-color:#9A9A9A"/>
		<stop  offset="0.3903" style="stop-color:#BFBEBE"/>
		<stop  offset="0.4681" style="stop-color:#EAEAEA"/>
		<stop  offset="0.5006" style="stop-color:#FFFFFF"/>
		<stop  offset="0.5585" style="stop-color:#F0F0F0"/>
		<stop  offset="0.6696" style="stop-color:#C9C9C9"/>
		<stop  offset="0.748" style="stop-color:#AAAAA9"/>
		<stop  offset="0.8078" style="stop-color:#8E8D8D"/>
		<stop  offset="0.8868" style="stop-color:#6F6E6E"/>
		<stop  offset="0.9537" style="stop-color:#5C5B5B"/>
		<stop  offset="1" style="stop-color:#555454"/>
	</linearGradient>
	<path style="fill:url(#SVGID_00000053534631001035067400000018260204762925686462_);" d="M388.8,627.6c1,0,1.9,0,2.9,0
		c0,0.9,0,1.9,0,2.9c-0.9,0-1.9,0-2.9,0C388.8,629.5,388.8,628.6,388.8,627.6z"/>
</g>
<g>
	
		<linearGradient id="SVGID_00000120529527646883509760000010709049352067790232_" gradientUnits="userSpaceOnUse" x1="507.5785" y1="612.2382" x2="597.2387" y2="612.2382">
		<stop  offset="0" style="stop-color:#5A5A59"/>
		<stop  offset="7.713336e-02" style="stop-color:#5E5E5D"/>
		<stop  offset="0.155" style="stop-color:#6A6A69"/>
		<stop  offset="0.2332" style="stop-color:#7E7E7D"/>
		<stop  offset="0.3116" style="stop-color:#9A9A9A"/>
		<stop  offset="0.3903" style="stop-color:#BFBEBE"/>
		<stop  offset="0.4681" style="stop-color:#EAEAEA"/>
		<stop  offset="0.5006" style="stop-color:#FFFFFF"/>
		<stop  offset="0.5585" style="stop-color:#F0F0F0"/>
		<stop  offset="0.6696" style="stop-color:#C9C9C9"/>
		<stop  offset="0.748" style="stop-color:#AAAAA9"/>
		<stop  offset="0.8078" style="stop-color:#8E8D8D"/>
		<stop  offset="0.8868" style="stop-color:#6F6E6E"/>
		<stop  offset="0.9537" style="stop-color:#5C5B5B"/>
		<stop  offset="1" style="stop-color:#555454"/>
	</linearGradient>
	<path style="fill:url(#SVGID_00000120529527646883509760000010709049352067790232_);" d="M597.2,587.2c0,2.7,0,5.4,0,8.1
		c-0.9,0-1.8,0-2.7,0c0,5.3,0,10.5,0,15.8c1,0,1.8,0,2.7,0c0,8.8,0,17.5,0,26.3c-6.6,0-13.2,0-19.9,0c0-0.9,0-1.7,0-2.6
		c5.8,0,11.5,0,17.2,0c0-0.9,0-1.7,0-2.6c-28.2,0-56.3,0-84.4,0c0,0.9,0,1.7,0,2.6c21.5,0,43,0,64.5,0c0,0.9,0,1.7,0,2.6
		c-22.4,0-44.8,0-67.1,0c0-8.8,0-17.4,0-26.2c0.9,0,1.8,0,2.7,0c0-5.3,0-10.5,0-15.8c-0.9,0-1.8,0-2.7,0c0-2.7,0-5.3,0-8
		c3.6,0,7.1,0,10.6,0c0,0.9,0,1.7,0,2.6c-2.7,0-5.3,0-8,0c0,1,0,1.8,0,2.7c28.1,0,56.2,0,84.3,0c0-0.9,0-1.8,0-2.8
		c-24.6,0-49.1,0-73.6,0c0-0.9,0-1.7,0-2.6C546.4,587.2,571.8,587.2,597.2,587.2z M539.9,619.3c0.2-0.1,0.3-0.1,0.3-0.2
		c10.1-7.2,20.3-14.3,30.4-21.6c0.8-0.6,1.5-1.5,2.2-2.3c-13.6,0-27.2,0-40.9,0c0,0.1-0.1,0.2-0.1,0.2c5.6,4.9,12,8.6,17.9,13.2
		c-0.5,0.7-1,1.4-1.5,2.1c-5-3.6-10-7.1-14.9-10.5c-0.8,0.8-1.5,1.5-2.3,2.2C533.9,608,536.9,613.6,539.9,619.3z M571.6,600.2
		c-10.2,7.2-20.3,14.4-30.4,21.5c1.4,2.6,2.7,5.2,4.1,7.7c4.8,0,9.5,0,14.3,0c1.4-2.6,2.7-5.1,4.1-7.7c-2.8-2-5.5-3.9-8.3-5.9
		c0.5-0.7,1-1.4,1.5-2.1c2.7,1.9,5.3,3.8,8,5.7c3-5.7,6-11.3,9-16.9C573.1,601.7,572.4,600.9,571.6,600.2z M537.8,620.9
		c-0.2-0.4-0.3-0.7-0.5-1c-2.2-4.1-4.4-8.1-6.5-12.3c-1.5-3.1-3.3-5.9-6-8.2c-1.1-1-1.5-2.3-1.2-3.7c0-0.1,0-0.3,0-0.4
		c-0.9,0-1.8,0-2.7,0c0,5.3,0,10.5,0,15.8c0.9,0,1.7,0,2.6,0c0,6.2,0,12.2,0,18.3c1.3,0.1,2.4,0.1,3.5-0.8c1.6-1.3,3.3-2.3,4.9-3.5
		C533.8,623.7,535.8,622.3,537.8,620.9z M583.9,611c0-5.3,0-10.5,0-15.7c-0.9,0-1.8,0-2.7,0c0.5,2-0.2,3.4-1.6,4.7
		c-0.6,0.5-1.1,1.1-1.6,1.6c-1,0.9-1.7,1.9-2.3,3.1c-2.7,5.1-5.4,10.2-8.2,15.4c-0.1,0.3-0.3,0.6-0.4,0.9c0.3,0.2,0.6,0.4,0.9,0.6
		c3.4,2.4,6.8,4.8,10.2,7.3c1,0.8,2,0.6,3.2,0.6c0-6.2,0-12.2,0-18.3C582.2,611,583,611,583.9,611z M584,613.7c0,5.3,0,10.5,0,15.7
		c3.6,0,7.1,0,10.6,0c0-5.3,0-10.4,0-15.7C591,613.7,587.5,613.7,584,613.7z M510.2,629.3c3.6,0,7.1,0,10.6,0c0-5.3,0-10.5,0-15.7
		c-3.6,0-7,0-10.6,0C510.2,618.9,510.2,624.1,510.2,629.3z M574.2,629.4c0,0,0.1-0.1,0.1-0.1c-2.8-2-5.6-4-8.5-6
		c-1.1,2.1-2.2,4.1-3.3,6.2C566.5,629.4,570.4,629.4,574.2,629.4z M539,623.2c-2.9,2-5.7,4-8.6,6.1c4.1,0,7.9,0,11.9,0
		C541.2,627.3,540.1,625.3,539,623.2z M587.3,603c1.5,1.5,3,3,4.4,4.4c0-2.9,0-5.8,0-8.8C590.2,600.2,588.7,601.6,587.3,603z
		 M513,607.6c1.5-1.6,3-3,4.4-4.4c-1.4-1.4-2.9-2.9-4.4-4.4c0,2.6,0,5.4,0,8.1C513,607.2,513,607.4,513,607.6z M531.1,598.4
		c-1-1-1.9-2-2.9-2.9c-0.5-0.5-1.1-0.4-1.6,0.1c-0.5,0.5-0.7,1.1-0.2,1.6c0.9,1,2,1.9,2.9,2.9C529.9,599.6,530.5,599,531.1,598.4z
		 M575.6,600.2c1-1,1.9-1.9,2.7-2.8c0.5-0.6,0.5-1.3,0-1.8c-0.5-0.5-1.2-0.6-1.7-0.1c-1,0.9-1.9,1.9-2.8,2.9
		C574.4,599,574.9,599.6,575.6,600.2z M518.2,595.3c-1.5,0-3,0-4.2,0c1.4,1.4,2.8,2.8,4.2,4.2C518.2,598.2,518.2,596.8,518.2,595.3z
		 M590.9,611c-1.4-1.4-2.9-2.9-4.3-4.3c0,1.3,0,2.8,0,4.3C588.1,611,589.6,611,590.9,611z M518.2,606.8c-1.4,1.4-2.8,2.8-4.2,4.2
		c1.2,0,2.7,0,4.2,0C518.2,609.5,518.2,608,518.2,606.8z M586.6,599.6c1.4-1.4,2.9-2.9,4.3-4.3c-1.3,0-2.8,0-4.3,0
		C586.6,596.8,586.6,598.3,586.6,599.6z"/>
	
		<linearGradient id="SVGID_00000150793849312150198480000002015187027559350414_" gradientUnits="userSpaceOnUse" x1="507.5278" y1="658.4179" x2="597.2387" y2="658.4179">
		<stop  offset="0" style="stop-color:#5A5A59"/>
		<stop  offset="7.713336e-02" style="stop-color:#5E5E5D"/>
		<stop  offset="0.155" style="stop-color:#6A6A69"/>
		<stop  offset="0.2332" style="stop-color:#7E7E7D"/>
		<stop  offset="0.3116" style="stop-color:#9A9A9A"/>
		<stop  offset="0.3903" style="stop-color:#BFBEBE"/>
		<stop  offset="0.4681" style="stop-color:#EAEAEA"/>
		<stop  offset="0.5006" style="stop-color:#FFFFFF"/>
		<stop  offset="0.5585" style="stop-color:#F0F0F0"/>
		<stop  offset="0.6696" style="stop-color:#C9C9C9"/>
		<stop  offset="0.748" style="stop-color:#AAAAA9"/>
		<stop  offset="0.8078" style="stop-color:#8E8D8D"/>
		<stop  offset="0.8868" style="stop-color:#6F6E6E"/>
		<stop  offset="0.9537" style="stop-color:#5C5B5B"/>
		<stop  offset="1" style="stop-color:#555454"/>
	</linearGradient>
	<path style="fill:url(#SVGID_00000150793849312150198480000002015187027559350414_);" d="M597.2,646.8c0,0.8,0,1.6,0,2.5
		c-0.9,0-1.7,0-2.6,0c0-0.7-0.1-1.3-0.1-2c-0.3-2.7-2.5-4.6-5.1-4.7c-2.5-0.1-4.8,1.7-5.2,4.3c-0.2,1.6,0,3.2,0,4.8
		c4.2-1.7,7-1.3,9.1,1.5c2.1,2.7,1.8,5.7-0.9,9c1.8,1.1,3.3,2.5,4.1,4.5c0.3,0.8,0.5,1.6,0.8,2.4c0,2.6,0,5.3,0,7.9
		c-6.1,0-12.3,0-18.4,0c0-2.2,0-4.5,0-6.7c0-2.7,1.1-5,3.2-6.9c0.5-0.5,1.1-0.8,1.7-1.3c-1.9-1.7-2.4-3.8-2.3-6.2
		c0.1-1.1,0-2.2,0-3.2c-0.1-2-1-3.4-2.8-4.3c-3.7-1.7-7.7,0.7-7.8,4.8c0,1.4,0,2.8,0,4.2c0,1.6-0.6,2.9-1.7,4.1
		c-0.2,0.2-0.3,0.4-0.5,0.6c2.7,1.6,4.5,3.9,4.7,6.9c0.2,2.6,0.1,5.2,0.1,7.9c-6.1,0-12.3,0-18.4,0c0-2.2,0-4.4,0-6.6
		c0.1-3.4,1.5-6.1,4.4-8c0.1-0.1,0.3-0.2,0.4-0.3c-2-2.5-2.2-3.1-2.2-6.4c0-0.8,0-1.6,0-2.5c0-0.5-0.1-1.1-0.2-1.6
		c-0.7-2.4-3-4-5.5-3.7c-2.4,0.2-4.5,2.2-4.7,4.7c-0.1,1.4-0.1,2.7-0.1,4.1c0,2-0.6,3.8-2,5.2c-0.1,0.1-0.1,0.2-0.2,0.3
		c2.6,1.5,4.4,3.7,4.7,6.7c0.3,2.7,0.1,5.4,0.1,8.1c-6.1,0-12.3,0-18.4,0c0-2.2,0-4.3,0.1-6.5c0-2.8,1-5.1,3.1-7
		c0.6-0.5,1.2-0.9,1.8-1.4c-1.9-1.7-2.4-3.9-2.3-6.3c0-0.9,0-1.8,0-2.6c0-0.6-0.1-1.2-0.3-1.8c-0.8-2.3-3.1-3.7-5.5-3.5
		c-2.5,0.3-4.5,2.2-4.8,4.6c-0.1,1.4-0.1,2.9-0.1,4.4c0,1.9-0.6,3.5-2,4.9c-0.1,0.1-0.2,0.2-0.2,0.4c2.6,1.5,4.4,3.7,4.7,6.7
		c0.3,2.7,0.1,5.4,0.1,8.1c-6.1,0-12.3,0-18.4,0c0-2.2,0-4.4,0-6.7c0-3.1,1.3-5.5,3.7-7.4c0.4-0.3,0.8-0.5,1.1-0.8
		c-2.5-3.3-2.9-6-1.1-8.6c2.4-3.4,5.7-3.8,9.3-1.9c0-1.3,0-2.6,0-3.9c-0.1-2.9-2.5-5.2-5.3-5.2c-2.9,0.1-5.1,2.4-5.2,5.3
		c0,0.4,0,0.8,0,1.2c-0.9,0-1.8,0-2.6,0c-0.3-4.5,2.2-8.1,6.2-9c1.9-0.4,3.7-0.1,5.4,0.8c2.4,1.4,3.7,3.5,4.1,6.3
		c3-2.4,6.2-2.8,9.6-1c1.1-3.8,3.5-6.1,7.5-6.3c4.2-0.1,6.8,2.3,8.1,6.3c2.7-1.5,5.4-1.5,8.1,0c1.1-3.7,3.4-6,7.2-6.3
		c4.4-0.3,7,2.2,8.4,6.2c3.3-1.8,6.4-1.3,9.4,0.9c0.1-0.3,0.1-0.6,0.2-0.9c0.7-3.5,3.4-5.9,7-6.3c3.2-0.4,6.5,1.6,7.9,4.6
		C596.8,645.3,597,646,597.2,646.8z M570.8,674.2c0-1.5,0-2.9,0-4.3c-0.1-3.3-2.7-5.9-6.1-6.2c-3.1-0.3-6.2,1.9-6.8,5
		c-0.3,1.8-0.2,3.6-0.3,5.5C562.1,674.2,566.4,674.2,570.8,674.2z M547.2,674.2c0-1.6,0.1-3.1,0-4.5c-0.2-3.1-2.6-5.6-5.8-6
		c-3.1-0.4-6.2,1.6-6.9,4.6c-0.4,1.9-0.3,3.9-0.5,5.9C538.5,674.2,542.8,674.2,547.2,674.2z M523.3,674.2c0-1.6,0.1-3.1,0-4.5
		c-0.2-3.2-2.7-5.7-6-6c-3-0.3-6.1,1.7-6.8,4.7c-0.4,1.9-0.3,3.9-0.5,5.8C514.6,674.2,518.9,674.2,523.3,674.2z M581.6,674.2
		c4.3,0,8.6,0,13,0c0-1.5,0-2.9,0-4.3c-0.1-3.3-2.7-6-6.1-6.3c-3.2-0.3-6.3,2-6.8,5.2C581.4,670.6,581.6,672.4,581.6,674.2z
		 M544.5,651.8c0.4-1,0.8-1.9,1.2-2.8c0.1-0.1,0.1-0.3,0.1-0.4c0.3-3-1.9-5.7-4.9-5.9c-2.8-0.2-5.4,2.2-5.6,5.1
		c-0.1,1.6,1.2,2.6,1.2,4.2C539.3,650.1,541.9,650.1,544.5,651.8z M568.2,651.8c0.4-1,0.8-1.9,1.2-2.8c0.1-0.2,0.1-0.3,0.1-0.5
		c0.3-2.7-1.6-5.3-4.3-5.8c-2.7-0.5-5.2,1.2-6,3.9c-0.6,2,0.8,3.4,1.1,5.3C563,650.1,565.6,650.1,568.2,651.8z M588,661
		c2.2,0,4-1.7,4-3.9c0-2.2-1.8-4-3.9-4c-2.1,0-3.9,1.8-3.9,3.9C584.1,659.2,585.8,661,588,661z M568.2,657c0-2.2-1.8-4-4-3.9
		c-2.1,0-3.9,1.8-3.9,3.9c0,2.2,1.8,3.9,4,3.9C566.5,661,568.2,659.3,568.2,657z M544.6,657.1c0-2.2-1.8-4-3.9-4c-2.2,0-4,1.8-3.9,4
		c0,2.1,1.8,3.9,3.9,3.9C542.8,661,544.6,659.3,544.6,657.1z M520.7,657c0-2.2-1.8-4-4-3.9c-2.1,0-3.9,1.8-3.9,3.9
		c0,2.2,1.8,3.9,4,3.9C519,661,520.8,659.2,520.7,657z"/>
	
		<linearGradient id="SVGID_00000083090169806461567600000017519613576069803692_" gradientUnits="userSpaceOnUse" x1="587.9294" y1="624.1633" x2="590.4296" y2="624.1633">
		<stop  offset="0" style="stop-color:#5A5A59"/>
		<stop  offset="7.713336e-02" style="stop-color:#5E5E5D"/>
		<stop  offset="0.155" style="stop-color:#6A6A69"/>
		<stop  offset="0.2332" style="stop-color:#7E7E7D"/>
		<stop  offset="0.3116" style="stop-color:#9A9A9A"/>
		<stop  offset="0.3903" style="stop-color:#BFBEBE"/>
		<stop  offset="0.4681" style="stop-color:#EAEAEA"/>
		<stop  offset="0.5006" style="stop-color:#FFFFFF"/>
		<stop  offset="0.5585" style="stop-color:#F0F0F0"/>
		<stop  offset="0.6696" style="stop-color:#C9C9C9"/>
		<stop  offset="0.748" style="stop-color:#AAAAA9"/>
		<stop  offset="0.8078" style="stop-color:#8E8D8D"/>
		<stop  offset="0.8868" style="stop-color:#6F6E6E"/>
		<stop  offset="0.9537" style="stop-color:#5C5B5B"/>
		<stop  offset="1" style="stop-color:#555454"/>
	</linearGradient>
	<path style="fill:url(#SVGID_00000083090169806461567600000017519613576069803692_);" d="M590.4,626.8c-0.9,0-1.7,0-2.5,0
		c0-1.7,0-3.4,0-5.2c0.8,0,1.6,0,2.5,0C590.4,623.3,590.4,625,590.4,626.8z"/>
	
		<linearGradient id="SVGID_00000002362441348604767210000018120948561742654110_" gradientUnits="userSpaceOnUse" x1="587.9167" y1="617.582" x2="590.4415" y2="617.582">
		<stop  offset="0" style="stop-color:#5A5A59"/>
		<stop  offset="7.713336e-02" style="stop-color:#5E5E5D"/>
		<stop  offset="0.155" style="stop-color:#6A6A69"/>
		<stop  offset="0.2332" style="stop-color:#7E7E7D"/>
		<stop  offset="0.3116" style="stop-color:#9A9A9A"/>
		<stop  offset="0.3903" style="stop-color:#BFBEBE"/>
		<stop  offset="0.4681" style="stop-color:#EAEAEA"/>
		<stop  offset="0.5006" style="stop-color:#FFFFFF"/>
		<stop  offset="0.5585" style="stop-color:#F0F0F0"/>
		<stop  offset="0.6696" style="stop-color:#C9C9C9"/>
		<stop  offset="0.748" style="stop-color:#AAAAA9"/>
		<stop  offset="0.8078" style="stop-color:#8E8D8D"/>
		<stop  offset="0.8868" style="stop-color:#6F6E6E"/>
		<stop  offset="0.9537" style="stop-color:#5C5B5B"/>
		<stop  offset="1" style="stop-color:#555454"/>
	</linearGradient>
	<path style="fill:url(#SVGID_00000002362441348604767210000018120948561742654110_);" d="M590.4,616.3c0,0.9,0,1.7,0,2.6
		c-0.9,0-1.7,0-2.5,0c0-0.9,0-1.7,0-2.6C588.8,616.3,589.6,616.3,590.4,616.3z"/>
	
		<linearGradient id="SVGID_00000030479425586870695210000003341374088370709404_" gradientUnits="userSpaceOnUse" x1="514.3286" y1="624.1519" x2="516.8541" y2="624.1519">
		<stop  offset="0" style="stop-color:#5A5A59"/>
		<stop  offset="7.713336e-02" style="stop-color:#5E5E5D"/>
		<stop  offset="0.155" style="stop-color:#6A6A69"/>
		<stop  offset="0.2332" style="stop-color:#7E7E7D"/>
		<stop  offset="0.3116" style="stop-color:#9A9A9A"/>
		<stop  offset="0.3903" style="stop-color:#BFBEBE"/>
		<stop  offset="0.4681" style="stop-color:#EAEAEA"/>
		<stop  offset="0.5006" style="stop-color:#FFFFFF"/>
		<stop  offset="0.5585" style="stop-color:#F0F0F0"/>
		<stop  offset="0.6696" style="stop-color:#C9C9C9"/>
		<stop  offset="0.748" style="stop-color:#AAAAA9"/>
		<stop  offset="0.8078" style="stop-color:#8E8D8D"/>
		<stop  offset="0.8868" style="stop-color:#6F6E6E"/>
		<stop  offset="0.9537" style="stop-color:#5C5B5B"/>
		<stop  offset="1" style="stop-color:#555454"/>
	</linearGradient>
	<path style="fill:url(#SVGID_00000030479425586870695210000003341374088370709404_);" d="M514.3,626.7c0-1.8,0-3.5,0-5.2
		c0.9,0,1.7,0,2.5,0c0,1.7,0,3.4,0,5.2C516,626.7,515.2,626.7,514.3,626.7z"/>
	
		<linearGradient id="SVGID_00000046316619921546137560000006076539903174490778_" gradientUnits="userSpaceOnUse" x1="514.3372" y1="617.5819" x2="516.8536" y2="617.5819">
		<stop  offset="0" style="stop-color:#5A5A59"/>
		<stop  offset="7.713336e-02" style="stop-color:#5E5E5D"/>
		<stop  offset="0.155" style="stop-color:#6A6A69"/>
		<stop  offset="0.2332" style="stop-color:#7E7E7D"/>
		<stop  offset="0.3116" style="stop-color:#9A9A9A"/>
		<stop  offset="0.3903" style="stop-color:#BFBEBE"/>
		<stop  offset="0.4681" style="stop-color:#EAEAEA"/>
		<stop  offset="0.5006" style="stop-color:#FFFFFF"/>
		<stop  offset="0.5585" style="stop-color:#F0F0F0"/>
		<stop  offset="0.6696" style="stop-color:#C9C9C9"/>
		<stop  offset="0.748" style="stop-color:#AAAAA9"/>
		<stop  offset="0.8078" style="stop-color:#8E8D8D"/>
		<stop  offset="0.8868" style="stop-color:#6F6E6E"/>
		<stop  offset="0.9537" style="stop-color:#5C5B5B"/>
		<stop  offset="1" style="stop-color:#555454"/>
	</linearGradient>
	<path style="fill:url(#SVGID_00000046316619921546137560000006076539903174490778_);" d="M514.3,616.3c0.8,0,1.7,0,2.5,0
		c0,0.8,0,1.7,0,2.5c-0.8,0-1.7,0-2.5,0C514.3,618,514.3,617.2,514.3,616.3z"/>
</g>
<g>
	
		<linearGradient id="SVGID_00000042699907295843032280000007291189530754204566_" gradientUnits="userSpaceOnUse" x1="764.3957" y1="615.6895" x2="851.3011" y2="615.6895">
		<stop  offset="0" style="stop-color:#5A5A59"/>
		<stop  offset="7.713336e-02" style="stop-color:#5E5E5D"/>
		<stop  offset="0.155" style="stop-color:#6A6A69"/>
		<stop  offset="0.2332" style="stop-color:#7E7E7D"/>
		<stop  offset="0.3116" style="stop-color:#9A9A9A"/>
		<stop  offset="0.3903" style="stop-color:#BFBEBE"/>
		<stop  offset="0.4681" style="stop-color:#EAEAEA"/>
		<stop  offset="0.5006" style="stop-color:#FFFFFF"/>
		<stop  offset="0.5585" style="stop-color:#F0F0F0"/>
		<stop  offset="0.6696" style="stop-color:#C9C9C9"/>
		<stop  offset="0.748" style="stop-color:#AAAAA9"/>
		<stop  offset="0.8078" style="stop-color:#8E8D8D"/>
		<stop  offset="0.8868" style="stop-color:#6F6E6E"/>
		<stop  offset="0.9537" style="stop-color:#5C5B5B"/>
		<stop  offset="1" style="stop-color:#555454"/>
	</linearGradient>
	<path style="fill:url(#SVGID_00000042699907295843032280000007291189530754204566_);" d="M791,624.9c0,6.5,0,13,0,19.5
		c-0.9,0-1.8,0-2.8,0c0-3.7,0-7.4,0-11.2c-0.4,0-0.7,0-1,0c-7,0-13.9,0-20.9,0c-1.6,0-2-0.4-2-2c0-14.1,0-28.2,0-42.3
		c0-1.6,0.4-2,2-2c27.7,0,55.3,0,83,0c1.5,0,2,0.4,2,2c0,14.1,0,28.2,0,42.3c0,1.5-0.4,2-2,2c-6.9,0-13.8,0-20.8,0
		c-0.3,0-0.6,0-1.1,0c0,3.7,0,7.4,0,11.2c-1,0-1.9,0-2.8,0c0-6.5,0-13,0-19.5C813.5,624.9,802.3,624.9,791,624.9z M848.5,589.8
		c-27.1,0-54.2,0-81.2,0c0,0.9,0,1.8,0,2.8c10.7,0,21.4,0,32.1,0c0,1,0,1.9,0,2.8c-10.7,0-21.4,0-32.1,0c0,11.7,0,23.3,0,35
		c7,0,14,0,21,0c0-2.3,0-4.5,0-6.7c0-1.1,0.5-1.6,1.5-1.6c0.2,0,0.3,0,0.3,0c-0.2-2-0.4-3.9-0.6-5.8c-2.1-1.2-3-2.9-2.5-4.9
		c0.5-1.9,2-3.2,3.9-3.2c1.9-0.1,3.6,1.1,4.2,2.9c0.6,2.1-0.2,3.8-2.8,5.4c0.2,1.8,0.5,3.7,0.7,5.6c1.4,0,2.5,0,3.6,0
		c0-2.3,0-4.6,0-6.9c0-3.2,2-5.8,5-6.7c0.2-0.1,0.4-0.1,0.6-0.2c-2.1-3.7-1.8-7.1,0.9-9.5c2.4-2.2,6-2.4,8.7-0.5
		c1.3,0.9,2.2,2.2,2.7,3.8c0.7,2.3,0.2,4.4-1.2,6.3c3.2,0.9,5.2,2.9,5.6,6.1c0.2,1.4,0.1,2.8,0.1,4.2c0,1.2,0,2.4,0,3.6
		c1.2,0,2.3,0,3.6,0c0.2-1.9,0.5-3.9,0.7-5.7c-2.3-1.2-3.3-3-2.9-4.9c0.4-1.9,2-3.3,4-3.3c2,0,3.7,1.2,4.2,3.1
		c0.6,2.1-0.3,3.8-2.5,5.1c-0.2,2-0.4,3.9-0.6,5.8c1.6,0.2,1.8,0.5,1.8,2.2c0,0.9,0,1.8,0,2.6c0,1.2,0,2.4,0,3.5c7.1,0,14,0,21,0
		c0-11.7,0-23.3,0-35c-10.7,0-21.4,0-32.1,0c0-1,0-1.9,0-2.8c10.7,0,21.4,0,32.1,0C848.5,591.6,848.5,590.8,848.5,589.8z M816.2,622
		c0-2.5,0.1-5,0-7.5c-0.1-2.1-2-3.6-4.1-3.6c-2.9,0-5.7,0-8.6,0c-2.1,0-3.9,1.6-4.1,3.6c-0.2,2.5,0,5,0,7.5
		C805.1,622,810.6,622,816.2,622z M812,603.8c0-2.3-1.9-4.2-4.2-4.2c-2.3,0-4.2,1.9-4.2,4.2c0,2.3,1.9,4.2,4.2,4.2
		C810.2,608,812.1,606.1,812,603.8z M791,613.6c0.8,0,1.4-0.6,1.4-1.4c0-0.8-0.7-1.4-1.4-1.4c-0.8,0-1.4,0.7-1.4,1.4
		C789.6,613,790.3,613.6,791,613.6z M826.1,612.2c0-0.8-0.6-1.4-1.4-1.4c-0.8,0-1.4,0.6-1.4,1.4c0,0.8,0.6,1.5,1.4,1.4
		C825.4,613.6,826.1,613,826.1,612.2z"/>
	
		<linearGradient id="SVGID_00000011739017768948865890000009459259978485346206_" gradientUnits="userSpaceOnUse" x1="764.389" y1="660.5836" x2="851.3162" y2="660.5836">
		<stop  offset="0" style="stop-color:#5A5A59"/>
		<stop  offset="7.713336e-02" style="stop-color:#5E5E5D"/>
		<stop  offset="0.155" style="stop-color:#6A6A69"/>
		<stop  offset="0.2332" style="stop-color:#7E7E7D"/>
		<stop  offset="0.3116" style="stop-color:#9A9A9A"/>
		<stop  offset="0.3903" style="stop-color:#BFBEBE"/>
		<stop  offset="0.4681" style="stop-color:#EAEAEA"/>
		<stop  offset="0.5006" style="stop-color:#FFFFFF"/>
		<stop  offset="0.5585" style="stop-color:#F0F0F0"/>
		<stop  offset="0.6696" style="stop-color:#C9C9C9"/>
		<stop  offset="0.748" style="stop-color:#AAAAA9"/>
		<stop  offset="0.8078" style="stop-color:#8E8D8D"/>
		<stop  offset="0.8868" style="stop-color:#6F6E6E"/>
		<stop  offset="0.9537" style="stop-color:#5C5B5B"/>
		<stop  offset="1" style="stop-color:#555454"/>
	</linearGradient>
	<path style="fill:url(#SVGID_00000011739017768948865890000009459259978485346206_);" d="M769.2,657.4c-1.9-3.5-1.5-6.5,1-8.7
		c2.2-1.9,5.5-2,7.9-0.2c2.7,2.1,3.1,5,1.3,8.9c0.6,0.3,1.2,0.6,1.8,1c0.5,0.4,1,0.9,1.5,1.3c1.1-0.8,2.2-1.6,3.4-2.4
		c-1.1-1.6-1.5-3.4-1-5.4c0.4-1.4,1.2-2.6,2.4-3.5c2.4-1.7,5.7-1.6,7.8,0.4c2.4,2.2,2.8,5.3,0.9,8.4c1.1,0.8,2.2,1.6,3.3,2.4
		c1-0.7,2.1-1.5,3.3-2.4c-1.1-1.7-1.6-3.7-0.8-5.8c0.5-1.3,1.3-2.4,2.5-3.2c2.4-1.6,5.5-1.3,7.6,0.6c2.4,2.1,2.7,5,0.9,8.4
		c1.1,0.8,2.2,1.6,3.3,2.3c1-0.7,2.1-1.5,3.3-2.4c-1.1-1.6-1.5-3.4-1-5.4c0.4-1.4,1.2-2.6,2.4-3.4c2.4-1.7,5.7-1.5,7.9,0.5
		c2.3,2.2,2.6,5.2,0.8,8.3c1.1,0.8,2.2,1.6,3.3,2.4c1-0.7,2.1-1.5,3.3-2.3c-1.8-3.7-1.4-6.7,1.3-8.7c2.3-1.8,5.7-1.7,7.9,0.2
		c2.5,2.1,2.8,5.2,0.9,8.6c0.2,0.1,0.4,0.2,0.6,0.3c2.7,1.3,4.1,3.5,4.2,6.5c0,2.7,0,5.3,0,8c0,1.3-0.5,1.7-1.8,1.7
		c-27.8,0-55.6,0-83.4,0c-1.3,0-1.8-0.5-1.8-1.7c0-2.6,0-5.2,0-7.8c0-3.2,1.5-5.4,4.4-6.7C768.9,657.6,769,657.5,769.2,657.4z
		 M781.2,671.1c0-0.3,0-0.6,0-0.8c0-2.2,0.1-4.3,0-6.5c-0.1-2.2-1.9-3.9-4.2-3.9c-1.9,0-3.7,0-5.6,0c-2.4,0-4.2,1.8-4.2,4.3
		c0,1.4,0,2.9,0,4.3c0,0.9,0,1.7,0,2.6C771.9,671.1,776.5,671.1,781.2,671.1z M798,671.1c0-2.5,0.1-5,0-7.5c-0.1-2.1-1.9-3.6-4-3.7
		c-2,0-3.9,0-5.9,0c-2,0-3.9,1.5-4,3.6c-0.2,2.5,0,5.1,0,7.6C788.7,671.1,793.3,671.1,798,671.1z M800.9,671c4.7,0,9.3,0,14,0
		c0-2.4,0-4.8,0-7.1c-0.1-2.2-1.8-3.9-4-4c-2-0.1-4,0-5.9,0c-2.1,0-3.9,1.6-4,3.7C800.8,666,800.9,668.5,800.9,671z M831.7,671.1
		c0-2.4,0-4.6,0-6.9c0-2.4-1.8-4.2-4.3-4.3c-1.8,0-3.6,0-5.4,0c-2.5,0-4.3,1.8-4.3,4.3c0,2.1,0,4.1,0,6.2c0,0.2,0,0.4,0.1,0.7
		C822.4,671.1,827,671.1,831.7,671.1z M848.5,671.1c0-2.5,0.1-5,0-7.4c-0.1-2.1-1.9-3.7-4-3.8c-2,0-3.9,0-5.9,0
		c-1.9,0-3.5,1.3-3.9,3.2c-0.2,0.8-0.1,1.6-0.1,2.4c0,1.8,0,3.7,0,5.5C839.2,671.1,843.8,671.1,848.5,671.1z M774.2,657.1
		c1.9,0,3.5-1.5,3.5-3.5c0-1.9-1.5-3.5-3.5-3.6c-1.9,0-3.5,1.5-3.5,3.5C770.7,655.5,772.2,657,774.2,657.1z M794.5,653.6
		c0-1.9-1.6-3.5-3.5-3.5c-1.9,0-3.5,1.6-3.5,3.5c0,1.9,1.6,3.5,3.5,3.5C792.9,657.1,794.5,655.5,794.5,653.6z M811.3,653.6
		c0-1.9-1.5-3.5-3.5-3.5c-1.9,0-3.5,1.6-3.5,3.5c0,1.9,1.6,3.5,3.5,3.5C809.7,657.1,811.3,655.5,811.3,653.6z M828.2,653.6
		c0-1.9-1.6-3.5-3.5-3.5c-1.9,0-3.5,1.6-3.5,3.5c0,1.9,1.6,3.5,3.5,3.5C826.6,657.1,828.2,655.5,828.2,653.6z M845,653.6
		c0-1.9-1.6-3.5-3.5-3.5c-1.9,0-3.5,1.6-3.5,3.5c0,1.9,1.6,3.5,3.5,3.5C843.4,657.1,845,655.5,845,653.6z"/>
</g>
<g>
	
		<linearGradient id="SVGID_00000005259483992778552790000004236521239069754267_" gradientUnits="userSpaceOnUse" x1="626.8818" y1="670.3758" x2="768.5339" y2="552.9845">
		<stop  offset="0" style="stop-color:#5A5A59"/>
		<stop  offset="7.713336e-02" style="stop-color:#5E5E5D"/>
		<stop  offset="0.155" style="stop-color:#6A6A69"/>
		<stop  offset="0.2332" style="stop-color:#7E7E7D"/>
		<stop  offset="0.3116" style="stop-color:#9A9A9A"/>
		<stop  offset="0.3903" style="stop-color:#BFBEBE"/>
		<stop  offset="0.4681" style="stop-color:#EAEAEA"/>
		<stop  offset="0.5006" style="stop-color:#FFFFFF"/>
		<stop  offset="0.5585" style="stop-color:#F0F0F0"/>
		<stop  offset="0.6696" style="stop-color:#C9C9C9"/>
		<stop  offset="0.748" style="stop-color:#AAAAA9"/>
		<stop  offset="0.8078" style="stop-color:#8E8D8D"/>
		<stop  offset="0.8868" style="stop-color:#6F6E6E"/>
		<stop  offset="0.9537" style="stop-color:#5C5B5B"/>
		<stop  offset="1" style="stop-color:#555454"/>
	</linearGradient>
	<path style="fill:url(#SVGID_00000005259483992778552790000004236521239069754267_);" d="M745.3,632.4c-0.4,0.7-1,0.9-1.8,0.9
		c-28.7,0-57.3,0-86,0c-1.5,0-1.8-0.4-1.8-1.9c0-14.6,0-29.3,0-43.9c0-1.5,0.4-1.9,1.9-1.9c28.6,0,57.2,0,85.8,0
		c0.8,0,1.5,0.2,1.9,0.9C745.3,601.8,745.3,617.1,745.3,632.4z M663.3,591.2c0.2,0,0.5,0,0.9,0c17.9,0,35.8,0,53.7,0
		c0.4,0,0.7,0,1,0c0.7,0.1,1.1,0.5,1.2,1.2c0.1,0.7-0.3,1.2-1,1.3c-0.4,0.1-0.8,0.1-1.1,0.1c-17.7,0-35.3,0-53,0c-0.4,0-0.7,0-1.1,0
		c0,9.9,0,19.6,0,29.5c2.1-2,4.1-3.8,6-5.7c0.8-0.8,1.6-0.8,2.1-0.2c0.6,0.6,0.5,1.4-0.3,2.1c-1.4,1.4-2.9,2.7-4.3,4.1
		c-0.5,0.4-0.9,0.9-1.5,1.4c14.8,0,29.5,0,44.3,0c-0.2-0.2-0.2-0.3-0.3-0.4c-6.5-6.1-12.9-12.2-19.4-18.2c-1.5-1.4-3.3-1.4-4.8,0.1
		c-3.2,3-6.3,6-9.5,8.9c-0.7,0.7-1.5,0.7-2.1,0.1c-0.6-0.6-0.5-1.3,0.3-2.1c3.2-3,6.5-6.1,9.7-9.1c2.4-2.2,5.8-2.2,8.2,0
		c1.9,1.7,3.7,3.5,5.6,5.2c2.6,2.4,5.1,4.8,7.7,7.2c0.3-0.3,0.5-0.5,0.7-0.7c3.2-3,6.3-6,9.5-8.9c2.7-2.6,6-2.6,8.7,0
		c4,3.8,8,7.5,12,11.3c0.2,0.2,0.4,0.3,0.6,0.5c0-8.5,0-16.8,0-25.2c-0.4,0-0.7,0-1,0c-3.8,0-7.6,0-11.4,0c-0.3,0-0.7,0-1-0.1
		c-0.6-0.2-0.9-0.7-0.9-1.3c0.1-0.6,0.5-1.1,1.1-1.1c0.3,0,0.6,0,1,0c4.3,0,8.6,0,12.7,0c1.1-1.1,2-2,2.9-2.9c-26.6,0-53.4,0-80.1,0
		C661.3,589.2,662.2,590.1,663.3,591.2z M707.4,618.6c2.3,2.2,4.6,4.3,6.8,6.4c7.7,0,15.3,0,22.9,0c0-0.8,0-1.5,0-2.3
		c-0.2-0.1-0.3-0.3-0.5-0.4c-4.4-4.2-8.9-8.3-13.2-12.5c-2.3-2.2-4.1-2.5-6.5,0C713.8,612.8,710.6,615.6,707.4,618.6z M737.8,627.7
		c-24.9,0-49.8,0-74.4,0c-1.1,1.1-2,2-2.8,2.8c26.5,0,53.3,0,80,0C739.6,629.6,738.7,628.7,737.8,627.7z M658.3,590.3
		c0,12.7,0,25.5,0,38.2c0.9-0.9,1.9-1.8,2.9-2.8c0-10.8,0-21.7,0-32.6C660.2,592.2,659.3,591.3,658.3,590.3z M742.6,628.5
		c0-12.7,0-25.4,0-38.2c-1,0.9-1.9,1.9-2.9,2.8c0,10.8,0,21.8,0,32.6C740.8,626.7,741.7,627.6,742.6,628.5z"/>
	
		<linearGradient id="SVGID_00000021092117742086308750000016037374496709677710_" gradientUnits="userSpaceOnUse" x1="651.1282" y1="699.6332" x2="792.7803" y2="582.2419">
		<stop  offset="0" style="stop-color:#5A5A59"/>
		<stop  offset="7.713336e-02" style="stop-color:#5E5E5D"/>
		<stop  offset="0.155" style="stop-color:#6A6A69"/>
		<stop  offset="0.2332" style="stop-color:#7E7E7D"/>
		<stop  offset="0.3116" style="stop-color:#9A9A9A"/>
		<stop  offset="0.3903" style="stop-color:#BFBEBE"/>
		<stop  offset="0.4681" style="stop-color:#EAEAEA"/>
		<stop  offset="0.5006" style="stop-color:#FFFFFF"/>
		<stop  offset="0.5585" style="stop-color:#F0F0F0"/>
		<stop  offset="0.6696" style="stop-color:#C9C9C9"/>
		<stop  offset="0.748" style="stop-color:#AAAAA9"/>
		<stop  offset="0.8078" style="stop-color:#8E8D8D"/>
		<stop  offset="0.8868" style="stop-color:#6F6E6E"/>
		<stop  offset="0.9537" style="stop-color:#5C5B5B"/>
		<stop  offset="1" style="stop-color:#555454"/>
	</linearGradient>
	<path style="fill:url(#SVGID_00000021092117742086308750000016037374496709677710_);" d="M656.5,675.3c-0.9-0.5-1-1.3-0.8-2.2
		c0.4-2.5,1.8-4,4.7-5.2c0-6.5,0-13,0-19.5c-3.6-2.9-3.1-7.2-0.7-9.5c2.5-2.4,6.4-2.3,8.7,0.2c2.2,2.3,2.6,6.6-0.9,9.3
		c-0.4,1.8,0.2,3.2,1.2,4.6c5.5,8,16.2,9.8,23.5,3.9c1.3-1.1,2.4-2.5,3.6-3.8c1.1-1.3,1.7-2.9,1.2-4.7c-3.6-2.9-2.9-7.1-0.8-9.3
		c2.4-2.4,6.4-2.4,8.8,0c2.2,2.3,2.7,6.5-0.8,9.3c-0.3,1.7,0.1,3.1,1.1,4.5c6,8.9,16.4,8.9,22.3,4.9c2.5-1.7,4.5-3.8,5.9-6.5
		c0.4-0.8,0.3-1.9,0.4-2.8c-3.7-2.9-3.3-7.3-0.9-9.6c2.4-2.4,6.3-2.3,8.7,0.1c2,2.1,2.8,6.3-0.9,9.4c0,2.1,0,4.3,0,6.5
		c0,0.3,0,0.6,0,0.9c-0.1,0.7-0.5,1.2-1.3,1.2c-0.7,0-1.3-0.5-1.3-1.3c0-1.2,0-2.4,0-3.6c0-0.9,0-1.8,0-2.7c-0.6,0-1.1,0-1.6,0
		c0,6.1,0,12.2,0,18.3c0.5,0,1,0,1.6,0c0-0.3,0-0.6,0-0.9c0-1.8,0-3.7,0-5.5c0-1.1,0.5-1.6,1.3-1.6c0.8,0,1.3,0.6,1.3,1.6
		c0,2.2,0,4.4,0,6.6c1.4,0.4,2.7,1.1,3.5,2.3c0.6,0.9,0.9,1.9,1.3,2.8c0,0.8,0,1.5,0,2.3c-5.3,0-10.5,0-15.8,0
		c-0.7-0.5-0.9-1.2-0.7-2.1c0.3-2.2,1.5-3.8,3.5-4.8c0.4-0.2,0.8-0.4,1.2-0.5c0-4,0-8,0-12.1c-3.9,4.6-8.8,7.1-14.8,7.1
		c-6,0-10.8-2.5-14.7-7.1c0,4.2,0,8.1,0,12.1c0.3,0.1,0.6,0.2,0.9,0.4c2.3,1,3.5,2.8,3.8,5.2c0.1,0.8-0.2,1.4-0.9,1.8
		c-4.9,0-9.8,0-14.7,0c-1.1-0.6-1-1.5-0.8-2.5c0.6-2.5,2.2-4.1,4.6-4.9c0-4,0-8,0-12.1c-3.9,4.6-8.7,7.1-14.7,7.1
		c-6,0-10.8-2.5-14.8-7.1c0,4.2,0,8.2,0,12.1c0.3,0.1,0.6,0.2,0.9,0.4c2.2,1,3.4,2.6,3.8,5c0.1,0.9,0,1.5-0.7,2.1
		C666.4,675.3,661.5,675.3,656.5,675.3z M667.4,643.3c0-1.9-1.5-3.5-3.5-3.5c-1.9,0-3.5,1.6-3.5,3.5c0,1.9,1.6,3.5,3.5,3.5
		C665.8,646.8,667.4,645.3,667.4,643.3z M700.4,646.8c1.9,0,3.5-1.5,3.5-3.4c0-1.9-1.5-3.5-3.5-3.5c-1.9,0-3.5,1.6-3.5,3.5
		C696.9,645.2,698.5,646.8,700.4,646.8z M737,646.8c1.9,0,3.5-1.5,3.5-3.5c0-1.9-1.6-3.5-3.5-3.5c-1.9,0-3.5,1.5-3.5,3.5
		C733.5,645.2,735.1,646.8,737,646.8z M699.7,649.4c0,6.1,0,12.2,0,18.3c0.6,0,1.1,0,1.6,0c0-6.1,0-12.2,0-18.3
		C700.7,649.4,700.2,649.4,699.7,649.4z M663.1,649.4c0,6.1,0,12.2,0,18.3c0.6,0,1,0,1.6,0c0-6.1,0-12.2,0-18.3
		C664.1,649.4,663.6,649.4,663.1,649.4z M705.9,672.6c-0.7-1.4-1.7-2.1-3.1-2.2c-1.6-0.1-3.1-0.1-4.7,0c-1.4,0.1-2.7,1.1-2.8,2.2
		C698.7,672.6,702.2,672.6,705.9,672.6z M658.6,672.6c3.5,0,7,0,10.6,0c-0.7-1.4-1.7-2.1-3.1-2.2c-1.5-0.1-3,0-4.5,0
		C660.2,670.4,659.1,671.3,658.6,672.6z M742.3,672.6c-0.2-1.2-1.5-2.2-2.9-2.2c-1.5-0.1-3,0-4.5,0c-1.4,0-2.7,1-3,2.2
		C735.3,672.6,738.8,672.6,742.3,672.6z"/>
	
		<linearGradient id="SVGID_00000135659626152789063250000016377213411218402441_" gradientUnits="userSpaceOnUse" x1="625.4617" y1="668.6622" x2="767.1138" y2="551.2709">
		<stop  offset="0" style="stop-color:#5A5A59"/>
		<stop  offset="7.713336e-02" style="stop-color:#5E5E5D"/>
		<stop  offset="0.155" style="stop-color:#6A6A69"/>
		<stop  offset="0.2332" style="stop-color:#7E7E7D"/>
		<stop  offset="0.3116" style="stop-color:#9A9A9A"/>
		<stop  offset="0.3903" style="stop-color:#BFBEBE"/>
		<stop  offset="0.4681" style="stop-color:#EAEAEA"/>
		<stop  offset="0.5006" style="stop-color:#FFFFFF"/>
		<stop  offset="0.5585" style="stop-color:#F0F0F0"/>
		<stop  offset="0.6696" style="stop-color:#C9C9C9"/>
		<stop  offset="0.748" style="stop-color:#AAAAA9"/>
		<stop  offset="0.8078" style="stop-color:#8E8D8D"/>
		<stop  offset="0.8868" style="stop-color:#6F6E6E"/>
		<stop  offset="0.9537" style="stop-color:#5C5B5B"/>
		<stop  offset="1" style="stop-color:#555454"/>
	</linearGradient>
	<path style="fill:url(#SVGID_00000135659626152789063250000016377213411218402441_);" d="M705.5,608c-3.1,0-5.7-2.5-5.7-5.6
		c0-3.1,2.6-5.8,5.7-5.7c3.1,0,5.7,2.6,5.7,5.7C711.1,605.5,708.6,608,705.5,608z M708.5,602.4c0-1.7-1.4-3.1-3-3.1
		c-1.7,0-3.1,1.4-3.1,3.1c0,1.7,1.4,3.1,3.1,3.1C707.2,605.4,708.5,604.1,708.5,602.4z"/>
</g>
</svg>
