<?xml version="1.0" encoding="utf-8"?>
<!-- Generator: Adobe Illustrator 27.2.0, SVG Export Plug-In . SVG Version: 6.00 Build 0)  -->
<svg version="1.1" id="Слой_1" xmlns="http://www.w3.org/2000/svg" xmlns:xlink="http://www.w3.org/1999/xlink" x="0px" y="0px"
	 viewBox="0 0 101.7 101.1" style="enable-background:new 0 0 101.7 101.1;" xml:space="preserve">
<style type="text/css">
	.st0{fill:#FFFFFF;}
</style>
<g>
	<path class="st0" d="M8.5,7.2C7,8.7,5.7,10,4.3,11.4c-0.2,0.2-0.5,0.5-0.8,0.7c-0.7,0.6-1.8,0.6-2.4,0C0.4,11.4,0.3,10.4,1,9.6
		C3.8,6.8,6.6,4,9.3,1.3c0.8-0.8,1.7-0.7,2.5,0.1c2.8,2.7,5.4,5.4,8.2,8.2c0.8,0.8,0.7,1.8,0,2.5c-0.7,0.6-1.7,0.6-2.5-0.1
		c-1.5-1.5-2.8-2.8-4.2-4.2c-0.2-0.2-0.5-0.5-1-0.8c0,0.6-0.1,1-0.1,1.2c0,24.4,0,48.7,0,73.2c0,3,1.1,5.3,3.9,6.7
		c1,0.5,2.1,0.6,3.1,0.6c24.5,0,49.1,0,73.8,0c0.2,0,0.5,0,1,0c-0.4-0.4-0.6-0.7-0.8-1c-1.5-1.5-2.9-2.9-4.4-4.4
		c-0.7-0.7-0.7-1.8,0-2.5s1.7-0.7,2.4,0c2.9,2.8,5.7,5.7,8.5,8.5c0.7,0.7,0.6,1.7-0.1,2.4c-2.8,2.8-5.4,5.6-8.2,8.2
		c-0.8,0.8-1.8,0.7-2.5,0s-0.6-1.8,0.1-2.5c1.3-1.5,2.8-2.8,4.1-4.2c0.2-0.2,0.5-0.5,1-1c-0.7,0-1.2,0-1.7,0c-24.2,0-48.5,0-72.7,0
		c-3.7,0-6.9-1.2-9.1-4.4c-1.5-1.9-1.8-4.2-1.8-6.7c0-24.2,0-48.4,0-72.5c0-0.5,0-1,0-1.5C8.7,7.3,8.6,7.3,8.5,7.2z"/>
	<path class="st0" d="M100.3,42.7c0,10.5,0,21,0,31.6c0,0.4,0,0.8,0,1.2c-0.2,0.8-0.8,1.5-1.7,1.5c-1,0-1.6-0.5-1.7-1.5
		c-0.1-0.4,0-0.8,0-1.2c0-20.8,0-41.6,0-62.5c0-4.7-2.7-7.4-7.4-7.4c-20.8,0-41.6,0-62.4,0c-1.8,0-2.7-0.5-2.7-1.7s0.8-1.8,2.7-1.8
		c20.8,0,41.6,0,62.4,0c6.7,0,10.9,4.2,10.9,10.9C100.3,22.2,100.3,32.5,100.3,42.7z"/>
	<path class="st0" d="M34,33.1c4.2-2.8,9.4-2.7,13.3,1.8c2.1-2.4,4.6-3.7,7.9-3.7c4.7,0.1,8.9,4.1,8.9,8.8c0.1,8.7,0,17.4,0,26
		c0,1.2-0.7,1.9-1.8,1.9s-1.7-0.8-1.7-2.2c0-8.3,0-16.8,0-25.2c0-3.7-2.9-6.3-6.5-5.9c-2.9,0.4-5,2.8-5,5.9c0,8.2,0,16.3,0,24.5
		c0,0.4,0,0.7,0,1.1c-0.1,1-0.6,1.5-1.6,1.6s-1.7-0.4-1.9-1.3c-0.1-0.4-0.1-0.8-0.1-1.3c0-8.2,0-16.4,0-24.7c0-4.4-4.4-7.1-8.2-5.2
		C35,36.4,34,38.3,34,40.9c0,8.1,0,16.1,0,24.2c0,0.4,0,0.8,0,1.2c-0.1,1-0.7,1.5-1.6,1.6c-1,0.1-1.6-0.4-1.8-1.3
		c-0.1-0.4-0.1-0.8-0.1-1.2c0-11,0-22,0-33c0-0.5,0-0.8,0.1-1.3c0.2-0.8,1-1.2,1.8-1.2c0.8,0.1,1.5,0.6,1.6,1.5
		C34,31.9,34,32.4,34,33.1z"/>
	<path class="st0" d="M76.8,38.2c1.6,0,2.9,0,4.2,0c1.5,0,2.2,0.7,2.2,1.8s-0.8,1.7-2.2,1.7c-2.7,0-5.3,0-7.9,0
		c-0.8,0-1.7-0.2-2.1-1.1c-0.4-0.8,0-1.6,0.6-2.2c1.9-2.5,4-5,5.8-7.6c0.8-1.2,1.5-2.7,1.9-4c0.4-1.1,0.1-2.2-0.8-2.9
		c-0.8-0.6-1.7-0.7-2.7-0.2c-0.8,0.4-1.3,1.1-1.5,2.1c-0.2,1.5-1,2.1-2.1,1.9c-1.1-0.1-1.6-1-1.5-2.4c0.2-3.4,3.5-5.9,7-5.4
		s5.8,4,5,7.6c-0.7,3.1-2.5,5.7-4.4,8.2C78,36.5,77.5,37.2,76.8,38.2z"/>
</g>
</svg>
