<?xml version="1.0" encoding="utf-8"?>
<!-- Generator: Adobe Illustrator 27.2.0, SVG Export Plug-In . SVG Version: 6.00 Build 0)  -->
<svg version="1.1" id="Слой_1" xmlns="http://www.w3.org/2000/svg" xmlns:xlink="http://www.w3.org/1999/xlink" x="0px" y="0px"
	 viewBox="0 0 99.6 101.1" style="enable-background:new 0 0 99.6 101.1;" xml:space="preserve">
<style type="text/css">
	.st0{fill:#FFFFFF;}
</style>
<g>
	<path class="st0" d="M0.3,44.8c0-7.5,0-15.1,0-22.6c0.6-1.9,1.9-3,3.8-3.8c6.4-2.7,11.2-7.3,14-13.6C18.9,3,20,1.6,21.9,0.9
		c13.8,0,27.7,0,41.5,0c1.5,0.6,2.7,1.4,3.5,3c3,7,8.1,11.9,15.1,14.8c2.1,0.8,3.1,2.4,3.1,4.8c0,6.1,0,12.1,0,18.2
		c0,1.8-0.1,3.6-0.2,5.4c-0.1,0.8,0.1,1.2,0.8,1.7c10,5.9,15.2,17.4,13.1,28.6C95,97.3,72.3,106.5,55.6,95c-0.5-0.4-0.8-0.4-1.3,0
		c-3.1,1.5-6.3,3.1-9.4,4.6c-1.4,0.7-2.9,0.6-4.3,0c-7.4-2.9-14-7-19.9-12.3C9.6,77.2,3,64.8,0.8,49.8C0.7,48.1,0.6,46.5,0.3,44.8z
		 M48.4,87.6c-1.3,0.7-2.7,1.3-4,2c-1.1,0.5-2,0.5-3.1,0c-5-2.4-9.6-5.2-13.7-8.9C16.1,70.3,10,57.4,9.8,41.8c-0.1-4.5,0-9,0-13.7
		c0-1.4,0.6-2.4,1.8-3.1c5.7-3.2,10.2-7.6,13.6-13.3c0.7-1.2,1.5-1.7,3-1.7c9.9,0,19.6,0,29.5,0c1.3,0,2.3,0.5,2.9,1.5
		c3.3,5.7,8,10.1,13.7,13.4c1.2,0.6,1.7,1.5,1.7,2.9c0,3.1,0,6.1,0,9.2c0,0.7,0,1.5,0,2.3s-0.5,1.3-1.3,1.3
		c-0.8,0.1-1.3-0.4-1.5-1.2c-0.1-0.4,0-0.6,0-1c0-3.3,0-6.7,0-10.1c0-0.6-0.1-1.1-0.7-1.4C66.8,23.6,62,19,58.6,13.3
		c-0.4-0.5-0.7-0.7-1.3-0.7c-9.4,0-18.9,0-28.3,0c-0.6,0-1,0.1-1.3,0.7c-3.5,5.7-8.1,10.2-13.9,13.6c-0.6,0.4-0.8,0.7-0.8,1.3
		c0,4.2-0.1,8.4,0,12.6c0.1,3,0.2,5.9,0.8,8.8c3.3,17,13.3,29,28.7,36.6c0.2,0.1,0.6,0.2,0.8,0.1c1.3-0.6,2.6-1.3,3.9-1.9
		c-0.2-0.4-0.4-0.7-0.5-1c-5.5-11.5-2-25.7,8.1-33.4c0.7-0.6,1.1-1.8,0.7-2.9c-0.4-1-1.1-1.2-2-1.2c-7,0-14,0-21.1,0
		c-1.5,0-2.1,0.6-2.1,2.1c0,3.6,0,7.1,0,10.6c0,1.5,0.6,2.1,2.1,2.1c2.6,0,5.1,0,7.7,0c1,0,1.5,0.6,1.5,1.4s-0.6,1.4-1.5,1.4
		c-2.9,0-5.6,0-8.4,0c-2.4,0-4.3-2-4.4-4.4c0-3.9,0-8,0-11.9c0-2,1.4-3.8,3.5-4.3c0.5-0.1,1-0.1,1.5-0.2c0-1.7,0-3.3,0-5
		c0-1.1,0-2,0.1-3.1c0.7-5,5.1-8.7,10.2-8.8c5.1,0,9.8,3.6,10.5,8.7c0.4,2.4,0.1,4.8,0.2,7.1c0,0.4,0,0.7,0,1.1
		c3.2,0.4,4.4,1.4,5.1,4.5c7.6-3.9,15.6-4.4,23.7-1.3c0.1-1.4,0.2-2.9,0.2-4.3c0-6.3,0-12.6,0-18.8c0-1.5-0.2-1.8-1.5-2.4
		C73.3,17.2,67.7,12,64.5,4.3c-0.5-1.1-1.1-1.4-2.3-1.4c-13,0-25.8,0-38.8,0c-1.1,0-1.8,0.5-2.3,1.4c-3.3,7.5-8.8,12.8-16.4,16.1
		c-1.1,0.5-1.5,1.1-1.5,2.3c0,5.9,0,11.9,0,17.8c0,7.4,1.3,14.5,4,21.3C13.5,77.5,24.7,88.3,40,95.2c1.9,0.8,3.5,1,5.2,0
		c2.4-1.3,4.9-2.4,7.3-3.6C51.2,90.8,49.8,89.3,48.4,87.6z M54.9,90.5c1.5-5.2,4.8-8.9,9.6-11.3c-1.3-1.7-2-3.3-2.1-5.4
		c0-1.7-0.1-3.5,0.1-5.1c0.4-4.4,4.2-7.9,8.4-8.1c4.8-0.2,8.9,2.7,9.5,7.3c0.6,3.8,1,7.9-1.9,11.3c2.4,1.1,4.4,2.6,6.1,4.6
		c1.7,1.9,2.9,4.2,3.6,6.7c6.8-5.8,10.2-16.4,6.7-26.4C91.2,54,81.7,47.6,70.6,47.8C60.4,48,50.9,55.2,47.9,65.2
		C44.9,75,48.6,85,54.9,90.5z M71.8,97c4.6,0,9.3-1.3,13.3-4c0.5-0.4,0.6-0.6,0.5-1.2c-1.2-4.9-4.2-8.2-8.8-10.2
		c-0.5-0.2-1.1-0.1-1.5,0c-2.5,1.1-5,1.1-7.5,0c-0.6-0.2-1.1-0.2-1.7,0c-4.5,1.9-7.4,5.2-8.7,10c-0.2,0.7,0,1.1,0.6,1.5
		C62.3,95.7,66.8,97,71.8,97z M50.4,43.6c0-2.3,0-4.4,0-6.5c-0.1-3.9-3.1-7.1-7-7.4c-3.9-0.4-7.5,2.3-8.1,6.1
		c-0.4,2.4-0.1,4.8-0.2,7.1c0,0.2,0,0.5,0.1,0.7C40.3,43.6,45.3,43.6,50.4,43.6z M78,71.6C78,71.6,77.9,71.6,78,71.6
		c-0.1-0.6-0.1-1.3-0.1-1.9c-0.1-3.2-2.6-5.8-5.8-6.1c-3.5-0.2-6.3,2-6.7,5.4c-0.2,1.7-0.1,3.5,0,5.2c0.4,3,2.7,5.2,5.8,5.5
		c2.9,0.2,5.7-1.8,6.3-4.8C77.9,73.8,77.9,72.6,78,71.6z"/>
</g>
</svg>
