<?xml version="1.0" encoding="utf-8"?>
<!-- Generator: Adobe Illustrator 27.2.0, SVG Export Plug-In . SVG Version: 6.00 Build 0)  -->
<svg version="1.1" id="Слой_1" xmlns="http://www.w3.org/2000/svg" xmlns:xlink="http://www.w3.org/1999/xlink" x="0px" y="0px"
	 viewBox="0 0 146.5 146.3" style="enable-background:new 0 0 146.5 146.3;" xml:space="preserve">
<style type="text/css">
	.st0{fill:url(#SVGID_1_);}
	.st1{fill:url(#SVGID_00000158012689937665829860000013291208089377915278_);}
	.st2{fill:url(#SVGID_00000003079017283351007030000012575693309033941934_);}
	.st3{fill:url(#SVGID_00000059301206715237763820000006387251770750683011_);}
	.st4{fill:url(#SVGID_00000139256396562745263100000015311963370428354216_);}
	.st5{fill:url(#SVGID_00000053518251694117569720000007841573686990927508_);}
	.st6{fill:url(#SVGID_00000116231859110003306560000013687036614829896377_);}
</style>
<g>
	
		<linearGradient id="SVGID_1_" gradientUnits="userSpaceOnUse" x1="0.2001" y1="-652.4" x2="146.5001" y2="-652.4" gradientTransform="matrix(1 0 0 -1 0 -620.8)">
		<stop  offset="0" style="stop-color:#5A5A59"/>
		<stop  offset="7.713336e-02" style="stop-color:#5E5E5D"/>
		<stop  offset="0.155" style="stop-color:#6A6A69"/>
		<stop  offset="0.2332" style="stop-color:#7E7E7D"/>
		<stop  offset="0.3116" style="stop-color:#9A9A9A"/>
		<stop  offset="0.3903" style="stop-color:#BFBEBE"/>
		<stop  offset="0.4681" style="stop-color:#EAEAEA"/>
		<stop  offset="0.5006" style="stop-color:#FFFFFF"/>
		<stop  offset="0.5585" style="stop-color:#F0F0F0"/>
		<stop  offset="0.6696" style="stop-color:#C9C9C9"/>
		<stop  offset="0.748" style="stop-color:#AAAAA9"/>
		<stop  offset="0.8078" style="stop-color:#8E8D8D"/>
		<stop  offset="0.8868" style="stop-color:#6F6E6E"/>
		<stop  offset="0.9537" style="stop-color:#5C5B5B"/>
		<stop  offset="1" style="stop-color:#555454"/>
	</linearGradient>
	<path class="st0" d="M146.5,61.6c-0.8,1.3-2,1.6-3.3,1.6c-28.5,0-57,0-85.5,0c-0.3,0-0.8,0-1.3,0c0-1.6,0-3.1,0-4.7
		c28.3,0,56.7,0,85,0c0-17.9,0-35.7,0-53.6c-45.4,0-90.7,0-136.3,0c0,15.3,0,30.6,0,46.1c-1.6,0-3.1,0-4.9,0c0-0.5,0-1,0-1.5
		c0-15.3,0-30.8,0-46.1C0.2,1.9,0.5,0.8,2,0c48,0,96.3,0,144.5,0C146.5,20.5,146.5,41.1,146.5,61.6z"/>
	
		<linearGradient id="SVGID_00000004505818013072417510000000293474696241088178_" gradientUnits="userSpaceOnUse" x1="117.2507" y1="-740.0616" x2="146.4684" y2="-740.0616" gradientTransform="matrix(1 0 0 -1 0 -620.8)">
		<stop  offset="0" style="stop-color:#5A5A59"/>
		<stop  offset="7.713336e-02" style="stop-color:#5E5E5D"/>
		<stop  offset="0.155" style="stop-color:#6A6A69"/>
		<stop  offset="0.2332" style="stop-color:#7E7E7D"/>
		<stop  offset="0.3116" style="stop-color:#9A9A9A"/>
		<stop  offset="0.3903" style="stop-color:#BFBEBE"/>
		<stop  offset="0.4681" style="stop-color:#EAEAEA"/>
		<stop  offset="0.5006" style="stop-color:#FFFFFF"/>
		<stop  offset="0.5585" style="stop-color:#F0F0F0"/>
		<stop  offset="0.6696" style="stop-color:#C9C9C9"/>
		<stop  offset="0.748" style="stop-color:#AAAAA9"/>
		<stop  offset="0.8078" style="stop-color:#8E8D8D"/>
		<stop  offset="0.8868" style="stop-color:#6F6E6E"/>
		<stop  offset="0.9537" style="stop-color:#5C5B5B"/>
		<stop  offset="1" style="stop-color:#555454"/>
	</linearGradient>
	<path style="fill:url(#SVGID_00000004505818013072417510000000293474696241088178_);" d="M146.5,144.3c-0.8,1.3-2,1.8-3.4,1.8
		c-7.5,0-15,0-22.3,0c-2.6,0-3.4-0.8-3.4-3.4c0-6.2,0-12.4,0-18.6c0-4.6,1.6-8.1,5.5-10.6c0.2,0,0.2-0.2,0.5-0.3
		c-2.9-3.3-4.2-7-3.4-11.2c0.7-2.9,2.1-5.2,4.4-7c4.7-3.7,11.2-3.4,15.8,0.8c4.7,4.4,4.9,10.4,0.3,17.6c2.6,1.6,4.6,3.7,5.5,6.8
		c0.2,0.5,0.3,1,0.5,1.5C146.5,129.2,146.5,136.8,146.5,144.3z M122.2,141.1c6.7,0,13,0,19.4,0c0-6.2,0.2-12.2,0-18.2
		c0-3.4-2.6-5.9-6-6c-2.1-0.2-4.2,0-6.4,0c-4.4,0-6.8,2.6-6.8,7c0,5.2,0,10.6,0,15.8C122.2,140.1,122.2,140.6,122.2,141.1z
		 M139.1,104.6c0-4.1-3.3-7.3-7.2-7.3s-7.3,3.3-7.3,7.2c0,4.1,3.3,7.3,7.3,7.3C135.9,111.9,139.1,108.7,139.1,104.6z"/>
	
		<linearGradient id="SVGID_00000011010389586354771800000000542395391501447812_" gradientUnits="userSpaceOnUse" x1="0.3332" y1="-699.0795" x2="78.6635" y2="-699.0795" gradientTransform="matrix(1 0 0 -1 0 -620.8)">
		<stop  offset="0" style="stop-color:#5A5A59"/>
		<stop  offset="7.713336e-02" style="stop-color:#5E5E5D"/>
		<stop  offset="0.155" style="stop-color:#6A6A69"/>
		<stop  offset="0.2332" style="stop-color:#7E7E7D"/>
		<stop  offset="0.3116" style="stop-color:#9A9A9A"/>
		<stop  offset="0.3903" style="stop-color:#BFBEBE"/>
		<stop  offset="0.4681" style="stop-color:#EAEAEA"/>
		<stop  offset="0.5006" style="stop-color:#FFFFFF"/>
		<stop  offset="0.5585" style="stop-color:#F0F0F0"/>
		<stop  offset="0.6696" style="stop-color:#C9C9C9"/>
		<stop  offset="0.748" style="stop-color:#AAAAA9"/>
		<stop  offset="0.8078" style="stop-color:#8E8D8D"/>
		<stop  offset="0.8868" style="stop-color:#6F6E6E"/>
		<stop  offset="0.9537" style="stop-color:#5C5B5B"/>
		<stop  offset="1" style="stop-color:#555454"/>
	</linearGradient>
	<path style="fill:url(#SVGID_00000011010389586354771800000000542395391501447812_);" d="M22.4,94.7c0-11.4,0-22.8,0-34
		c-0.2,0-0.2,0-0.3,0c-0.7,2.1-1.1,4.2-2.1,6.2c-0.7,1.6-1.5,3.3-2.8,4.4c-2.4,2.3-6.2,2.4-9.1,0.7c-2.8-1.8-4.2-5.2-3.3-8.5
		c2.1-7.7,4.4-15.3,6.7-22.8c1.8-6,7.8-10.8,14-11.1c0.5,0,1-0.2,1.6-0.2c-2.1-3.1-2.9-6.5-2.1-9.9c0.7-2.8,2.1-5,4.4-6.8
		c3.9-3.1,9.8-3.4,14.2-0.7c3.7,2.4,7.2,7.7,4.6,15.1c0.5-0.3,1-0.5,1.5-0.7c5.9-3.1,11.7-6.2,17.8-9.1c3.4-1.8,7.5-0.8,9.8,2.3
		c2.3,2.9,2.1,7.2-0.5,9.9c-0.7,0.8-1.6,1.3-2.4,1.8c-7,3.7-14.2,7.3-21.2,11.1c-0.5,0.2-1,0.5-1.3,0.7c0,16.6,0,33.2,0,49.7
		c5.5-0.7,9.9,1,12.7,5.9c3.1,5.2,2.1,10.3-1.8,14.8c0.8,0.7,1.8,1.3,2.4,2c2.3,2.1,3.4,4.9,3.4,8c0,6.7,0,13.4,0,20
		c0,2-1,2.9-2.9,2.9c-7.8,0-15.6,0-23.5,0c-2,0-2.9-0.8-2.9-2.9c0-6.7,0-13.4,0-20c0-3.4,1.5-6.2,4.1-8.6c-6,0-11.9,0-17.9,0
		c0.7,0.8,1.3,1.5,1.8,2.1c1.5,2,2.1,4.2,2.1,6.8c0,6.5,0,12.9,0,19.4c0,2.3-0.8,3.1-3.3,3.1c-7.5,0-15.1,0-22.6,0
		c-2.4,0-3.3-0.8-3.3-3.4c0-6,0-12.1,0-18.1c-0.2-4.9,1.6-8.6,6-11.2c-4.6-5.7-5-11.6-0.2-17.1C9.8,92,14.9,91.6,22.4,94.7z
		 M46.6,94.8c0-0.7,0-1.1,0-1.8c0-16.8,0-33.7,0-50.5c0-2,0.7-3.1,2.4-4.1c7.3-3.7,14.5-7.5,21.8-11.2c0.5-0.3,1.1-0.5,1.6-1
		c1.3-0.8,1.6-2.4,1-3.7c-0.7-1.3-2.1-2-3.6-1.5c-0.5,0.2-0.8,0.3-1.3,0.7c-7.3,3.7-14.7,7.7-22,11.4c-1,0.5-2.3,0.8-3.4,0.8
		c-5.2,0.2-10.3,0-15.5,0c-5.5,0-10.1,2.9-11.6,7.7c-2.3,7.5-4.4,15-6.5,22.6c-0.5,1.6,0.3,3.3,1.8,3.6c1.5,0.5,2.9-0.3,3.7-1.8
		c0.2-0.3,0.2-0.7,0.3-1.1c2.3-7.2,4.6-14.3,6.8-21.7c0.5-1.5,1.5-2.1,2.8-2s2.1,1.1,2.1,2.6c0,0.5,0,0.8,0,1.3
		c0,17.8,0,35.5,0,53.3c0,3.6,0.5,7.3-1.1,10.9c2.8,0,5.5,0,8.3,0c0-13.8,0-27.5,0-41.2c1.6,0,3.3,0,4.9,0c0,13.8,0,27.5,0,41.2
		c1.3,0,2.3,0,3.4,0C40.6,103.6,42.1,98.9,46.6,94.8z M24.6,141.2c0-6.4,0-12.4,0-18.6c0-2.9-2.6-5.4-5.5-5.7
		c-2.3-0.2-4.4-0.2-6.7-0.2c-4.6,0-7,2.6-7,7.2c0,5.2,0,10.6,0,15.8c0,0.5,0,1,0,1.3C11.8,141.2,18.1,141.2,24.6,141.2z M44.2,141.1
		c6.5,0,13,0,19.4,0c0-6,0.2-12.1,0-18.1c0-3.6-2.8-6-6.2-6.2c-2-0.2-4.1,0-6,0c-4.7,0-7.2,2.4-7.2,7.2c0,4.2,0,8.5,0,12.7
		C44.2,138.3,44.2,139.6,44.2,141.1z M15,111.9c4.1,0,7.3-3.3,7.3-7.3c0-3.9-3.3-7.3-7.3-7.3s-7.3,3.3-7.3,7.3S11,111.9,15,111.9z
		 M61.1,104.6c0-4.1-3.3-7.3-7.2-7.3c-4.1,0-7.3,3.4-7.3,7.3c0,4.1,3.3,7.2,7.3,7.2C58,111.9,61.1,108.7,61.1,104.6z M36.9,29.2
		c4.1,0,7.3-3.3,7.3-7.2s-3.3-7.3-7.2-7.3c-4.1,0-7.3,3.4-7.3,7.3C29.7,25.9,32.9,29.2,36.9,29.2z"/>
	
		<linearGradient id="SVGID_00000084524178116190287060000017243800989207617154_" gradientUnits="userSpaceOnUse" x1="78.2582" y1="-740.1933" x2="107.493" y2="-740.1933" gradientTransform="matrix(1 0 0 -1 0 -620.8)">
		<stop  offset="0" style="stop-color:#5A5A59"/>
		<stop  offset="7.713336e-02" style="stop-color:#5E5E5D"/>
		<stop  offset="0.155" style="stop-color:#6A6A69"/>
		<stop  offset="0.2332" style="stop-color:#7E7E7D"/>
		<stop  offset="0.3116" style="stop-color:#9A9A9A"/>
		<stop  offset="0.3903" style="stop-color:#BFBEBE"/>
		<stop  offset="0.4681" style="stop-color:#EAEAEA"/>
		<stop  offset="0.5006" style="stop-color:#FFFFFF"/>
		<stop  offset="0.5585" style="stop-color:#F0F0F0"/>
		<stop  offset="0.6696" style="stop-color:#C9C9C9"/>
		<stop  offset="0.748" style="stop-color:#AAAAA9"/>
		<stop  offset="0.8078" style="stop-color:#8E8D8D"/>
		<stop  offset="0.8868" style="stop-color:#6F6E6E"/>
		<stop  offset="0.9537" style="stop-color:#5C5B5B"/>
		<stop  offset="1" style="stop-color:#555454"/>
	</linearGradient>
	<path style="fill:url(#SVGID_00000084524178116190287060000017243800989207617154_);" d="M84.2,113.4c-4.7-7.2-4.6-13.5,0.5-17.8
		c5-4.2,11.7-4.2,16.6,0.3c3.7,3.6,6,10.9,0.2,17.4c0.3,0.2,0.7,0.5,1,0.7c2.9,2.1,4.7,4.9,4.9,8.5c0.2,7,0.2,14,0.2,21
		c0,1.8-1,2.8-2.8,2.8c-7.8,0-15.8,0-23.6,0c-1.8,0-2.8-1-2.8-2.8c0-6.8,0-13.5,0-20.4C78.4,118.9,80.2,116.2,84.2,113.4z
		 M102.5,141.2c0-6.4,0.2-12.7,0-19.1c0-2.8-2.8-5-5.5-5.2c-2.3-0.2-4.4-0.2-6.7-0.2c-4.6,0-7.2,2.6-7.2,7.2c0,5.2,0,10.4,0,15.6
		c0,0.5,0,1,0,1.5C89.6,141.2,96,141.2,102.5,141.2z M92.9,111.9c3.9,0,7.3-3.3,7.3-7.3c0-3.9-3.3-7.3-7.3-7.3
		c-4.1,0-7.3,3.3-7.3,7.3C85.7,108.7,89,111.9,92.9,111.9z"/>
	
		<linearGradient id="SVGID_00000084528310250179840430000018168536442037392024_" gradientUnits="userSpaceOnUse" x1="88.0966" y1="-650" x2="136.7018" y2="-650" gradientTransform="matrix(1 0 0 -1 0 -620.8)">
		<stop  offset="0" style="stop-color:#5A5A59"/>
		<stop  offset="7.713336e-02" style="stop-color:#5E5E5D"/>
		<stop  offset="0.155" style="stop-color:#6A6A69"/>
		<stop  offset="0.2332" style="stop-color:#7E7E7D"/>
		<stop  offset="0.3116" style="stop-color:#9A9A9A"/>
		<stop  offset="0.3903" style="stop-color:#BFBEBE"/>
		<stop  offset="0.4681" style="stop-color:#EAEAEA"/>
		<stop  offset="0.5006" style="stop-color:#FFFFFF"/>
		<stop  offset="0.5585" style="stop-color:#F0F0F0"/>
		<stop  offset="0.6696" style="stop-color:#C9C9C9"/>
		<stop  offset="0.748" style="stop-color:#AAAAA9"/>
		<stop  offset="0.8078" style="stop-color:#8E8D8D"/>
		<stop  offset="0.8868" style="stop-color:#6F6E6E"/>
		<stop  offset="0.9537" style="stop-color:#5C5B5B"/>
		<stop  offset="1" style="stop-color:#555454"/>
	</linearGradient>
	<path style="fill:url(#SVGID_00000084528310250179840430000018168536442037392024_);" d="M136.7,26.9c0,1.6,0,3.1,0,4.6
		c-16.1,0-32.4,0-48.5,0c0-1.5,0-2.9,0-4.6C104.3,26.9,120.4,26.9,136.7,26.9z"/>
	
		<linearGradient id="SVGID_00000009592060408832438670000015126787227613284227_" gradientUnits="userSpaceOnUse" x1="78.4001" y1="-664.55" x2="126.9001" y2="-664.55" gradientTransform="matrix(1 0 0 -1 0 -620.8)">
		<stop  offset="0" style="stop-color:#5A5A59"/>
		<stop  offset="7.713336e-02" style="stop-color:#5E5E5D"/>
		<stop  offset="0.155" style="stop-color:#6A6A69"/>
		<stop  offset="0.2332" style="stop-color:#7E7E7D"/>
		<stop  offset="0.3116" style="stop-color:#9A9A9A"/>
		<stop  offset="0.3903" style="stop-color:#BFBEBE"/>
		<stop  offset="0.4681" style="stop-color:#EAEAEA"/>
		<stop  offset="0.5006" style="stop-color:#FFFFFF"/>
		<stop  offset="0.5585" style="stop-color:#F0F0F0"/>
		<stop  offset="0.6696" style="stop-color:#C9C9C9"/>
		<stop  offset="0.748" style="stop-color:#AAAAA9"/>
		<stop  offset="0.8078" style="stop-color:#8E8D8D"/>
		<stop  offset="0.8868" style="stop-color:#6F6E6E"/>
		<stop  offset="0.9537" style="stop-color:#5C5B5B"/>
		<stop  offset="1" style="stop-color:#555454"/>
	</linearGradient>
	<path style="fill:url(#SVGID_00000009592060408832438670000015126787227613284227_);" d="M78.4,46.1c0-1.6,0-3.1,0-4.7
		c16.1,0,32.3,0,48.5,0c0,1.6,0,3.1,0,4.7C110.8,46.1,94.7,46.1,78.4,46.1z"/>
	
		<linearGradient id="SVGID_00000080187359444024605360000011895239258757373881_" gradientUnits="userSpaceOnUse" x1="80.8289" y1="-635.35" x2="129.3289" y2="-635.35" gradientTransform="matrix(1 0 0 -1 0 -620.8)">
		<stop  offset="0" style="stop-color:#5A5A59"/>
		<stop  offset="7.713336e-02" style="stop-color:#5E5E5D"/>
		<stop  offset="0.155" style="stop-color:#6A6A69"/>
		<stop  offset="0.2332" style="stop-color:#7E7E7D"/>
		<stop  offset="0.3116" style="stop-color:#9A9A9A"/>
		<stop  offset="0.3903" style="stop-color:#BFBEBE"/>
		<stop  offset="0.4681" style="stop-color:#EAEAEA"/>
		<stop  offset="0.5006" style="stop-color:#FFFFFF"/>
		<stop  offset="0.5585" style="stop-color:#F0F0F0"/>
		<stop  offset="0.6696" style="stop-color:#C9C9C9"/>
		<stop  offset="0.748" style="stop-color:#AAAAA9"/>
		<stop  offset="0.8078" style="stop-color:#8E8D8D"/>
		<stop  offset="0.8868" style="stop-color:#6F6E6E"/>
		<stop  offset="0.9537" style="stop-color:#5C5B5B"/>
		<stop  offset="1" style="stop-color:#555454"/>
	</linearGradient>
	<path style="fill:url(#SVGID_00000080187359444024605360000011895239258757373881_);" d="M129.4,12.2c0,1.6,0,3.1,0,4.7
		c-16.1,0-32.3,0-48.5,0c0-1.5,0-3.1,0-4.7C97,12.2,113.1,12.2,129.4,12.2z"/>
</g>
</svg>
