<?xml version="1.0" encoding="utf-8"?>
<!-- Generator: Adobe Illustrator 27.2.0, SVG Export Plug-In . SVG Version: 6.00 Build 0)  -->
<svg version="1.1" id="Слой_1" xmlns="http://www.w3.org/2000/svg" xmlns:xlink="http://www.w3.org/1999/xlink" x="0px" y="0px"
	 viewBox="0 0 72.7 102.3" style="enable-background:new 0 0 72.7 102.3;" xml:space="preserve">
<style type="text/css">
	.st0{fill:#FFFFFF;}
</style>
<g>
	<path class="st0" d="M19.7,101.2c-1.7-0.4-3.4-0.6-5.2-1c-2.2-0.5-4.2-1.5-5.9-2.8c-3.7-2.9-3.7-7.2,0-10.2
		c2.9-2.3,6.4-3.3,10.1-3.7c4.9-0.5,9.7,0,14.1,2.1c0.2,0.1,0.5,0.1,0.7,0c3.1-1.4,6.1-2.7,9.3-4.1c-2.7-2.9-2.7-6,0-9
		c-3.2-1.4-6.3-2.7-9.3-4.1c-0.2-0.1-0.7,0-1.1,0.2c-7.2,2.9-14.5,2.9-21.6-0.4c-1.1-0.5-2.2-1.4-3.1-2.3c-2.6-2.6-2.5-5.9,0-8.5
		c2.2-2.2,5-3.3,8-4.1c0.2,0,0.4-0.1,0.6-0.1c-0.1-0.2-0.2-0.5-0.4-0.7C12,46.7,8,41.1,4,35.3c-9.3-13.1-1.4-31.7,14.5-34
		c13.6-2,25.7,9.1,24.9,22.9c-0.2,4.1-1.5,7.7-3.8,11.1C34.2,43.2,28.8,51,23.4,58.9c-1.2,1.7-2.1,1.7-3.3,0
		c-0.4-0.6-0.9-1.1-1.2-1.7c-0.5-0.9-1-1.1-2-0.9c-1.6,0.5-3.2,1-4.7,1.6c-0.6,0.2-1.1,0.6-1.7,1c-2.6,1.8-2.6,4.2,0,6.1
		c2.2,1.7,4.9,2.3,7.6,2.7c4.2,0.6,8.2,0.4,12-1.2c1.4-0.6,2.6-1.5,3.7-2.5c1.5-1.4,1.4-2.9,0-4.3c-0.9-0.9-2-1.4-3.1-2.1
		c-0.2-0.2-0.6-0.2-1-0.5c-0.6-0.5-0.7-1-0.5-1.7s0.9-1,1.6-0.9c2.5,0.4,6,3.6,6.6,5.9c0.5,1.8,0,3.4-1.1,4.9
		c-0.2,0.2-0.5,0.5-0.7,0.9c0.4,0.1,0.6,0.4,1,0.5c2.7,1.1,5.3,2.2,8,3.4c0.6,0.2,1,0.2,1.6,0c7.2-2.9,14.4-2.9,21.5,0.4
		C68.9,71.1,70,72,71,73c2.3,2.5,2.3,5.7,0,8.1c-2.2,2.3-5.2,3.6-8.2,4.2c-5.8,1.2-11.6,1-17-1.6c-0.2-0.1-0.6-0.1-0.9-0.1
		c-3.1,1.4-6.1,2.7-9.3,4.1c0.2,0.4,0.5,0.6,0.7,1c1.7,2.2,1.7,4.9,0,7.1c-1.4,1.7-3.1,2.9-5.2,3.6c-2.2,0.7-4.4,1.1-6.6,1.6
		c-0.2,0-0.5,0.1-0.7,0.1C22.8,101.2,21.2,101.2,19.7,101.2z M21.9,56.1c0.2-0.2,0.4-0.5,0.5-0.6c5-7.2,10.2-14.5,15-21.9
		c4.4-6.6,4.7-13.5,0.5-20.3c-4.1-6.8-10.4-9.8-18.3-9C5.6,5.9-1.7,22.1,6.5,33.7c2.5,3.6,4.9,7,7.4,10.6
		C16.5,48.2,19.2,52.2,21.9,56.1z M21.8,98.3c3.2,0,6.3-0.5,9.1-1.7c0.9-0.4,1.7-0.9,2.5-1.5c2.2-1.7,2.2-3.8,0-5.5
		c-0.7-0.6-1.6-1.1-2.5-1.5c-5.9-2.3-11.8-2.5-17.7-0.2c-1.4,0.5-2.6,1.4-3.6,2.3c-1.4,1.4-1.4,2.8,0,4.2c0.6,0.6,1.4,1.2,2.1,1.6
		C15,97.8,18.5,98.3,21.8,98.3z M56.1,71c-1,0.1-3.1,0.4-5,0.7c-2.2,0.5-4.3,1.4-6,3.1c-1.5,1.5-1.5,3.1,0,4.5
		c0.9,0.7,1.7,1.5,2.8,2c6.1,2.6,12.4,2.6,18.6,0c1.1-0.5,2.1-1.2,2.9-2.1c1.4-1.4,1.4-2.8,0-4.2c-0.9-0.9-1.8-1.5-2.9-2.1
		C63.4,71.5,60.2,71.1,56.1,71z"/>
	<path class="st0" d="M20.9,38.9c-5.2-0.2-10-2.8-12.9-8.2c-2.9-5.3-2.7-10.7,0.4-16c0.5-1,1.2-1.2,2-0.9c0.9,0.4,1.1,1.4,0.6,2.3
		c-1,1.6-1.6,3.3-1.8,5.2c-1,6.8,3.6,13.3,10.3,14.5c6.8,1.4,13.4-2.9,15.1-9.6c1.2-5.2-0.6-10.4-4.9-13.6s-9.8-3.4-14.4-0.7
		c-0.5,0.2-1.1,0.5-1.5,0.4c-0.5-0.1-0.9-0.6-1.1-1.1c-0.2-0.7,0.1-1.2,0.7-1.6c2.3-1.5,4.9-2.3,7.7-2.5c9.3-0.5,17,7,16.7,16.3
		C37.6,32,30.5,39,20.9,38.9z"/>
</g>
</svg>
