<?xml version="1.0" encoding="utf-8"?>
<!-- Generator: Adobe Illustrator 27.2.0, SVG Export Plug-In . SVG Version: 6.00 Build 0)  -->
<svg version="1.1" id="Слой_1" xmlns="http://www.w3.org/2000/svg" xmlns:xlink="http://www.w3.org/1999/xlink" x="0px" y="0px"
	 viewBox="0 0 146.9 156.3" style="enable-background:new 0 0 146.9 156.3;" xml:space="preserve">
<style type="text/css">
	.st0{fill:url(#SVGID_1_);}
	.st1{fill:url(#SVGID_00000163056701508212404070000000468612245571711371_);}
	.st2{fill:url(#SVGID_00000055707781653678299080000006763492789688658341_);}
	.st3{fill:url(#SVGID_00000181080721552461032790000017351250694228935352_);}
	.st4{fill:url(#SVGID_00000033365200262002089280000005609279043085547151_);}
	.st5{fill:url(#SVGID_00000164515344319351855390000000487141329946183051_);}
</style>
<g>
	
		<linearGradient id="SVGID_1_" gradientUnits="userSpaceOnUse" x1="0.2001" y1="-689.0149" x2="146.2329" y2="-689.0149" gradientTransform="matrix(1 0 0 -1 0 -610.8198)">
		<stop  offset="0" style="stop-color:#5A5A59"/>
		<stop  offset="7.713336e-02" style="stop-color:#5E5E5D"/>
		<stop  offset="0.155" style="stop-color:#6A6A69"/>
		<stop  offset="0.2332" style="stop-color:#7E7E7D"/>
		<stop  offset="0.3116" style="stop-color:#9A9A9A"/>
		<stop  offset="0.3903" style="stop-color:#BFBEBE"/>
		<stop  offset="0.4681" style="stop-color:#EAEAEA"/>
		<stop  offset="0.5006" style="stop-color:#FFFFFF"/>
		<stop  offset="0.5585" style="stop-color:#F0F0F0"/>
		<stop  offset="0.6696" style="stop-color:#C9C9C9"/>
		<stop  offset="0.748" style="stop-color:#AAAAA9"/>
		<stop  offset="0.8078" style="stop-color:#8E8D8D"/>
		<stop  offset="0.8868" style="stop-color:#6F6E6E"/>
		<stop  offset="0.9537" style="stop-color:#5C5B5B"/>
		<stop  offset="1" style="stop-color:#555454"/>
	</linearGradient>
	<path class="st0" d="M6.7,156.4c-3.1-1-5.6-2.8-6.3-6.3c-0.2-0.9-0.2-1.6-0.2-2.4c0-35,0-69.9,0-104.9c0-3,0.9-3.8,3.7-3.7
		c5.8,0.3,11.2-0.9,16.6-2.4C58.9,24.5,97.2,12.6,135.6,0.4c2.8-0.9,3.7-0.3,4.7,2.4c1.9,5.9,3.7,11.7,5.6,17.6
		c0.9,3,0.5,3.8-2.4,4.9c-35.2,11-70.4,22.1-105.6,33.1c-0.5,0.2-0.9,0.3-1.7,0.5c0.5,0.3,0.9,0.7,1.2,0.7c0.3,0.2,0.9,0,1.4,0
		c34.5,0,69,0,103.6,0c0.5,0,1,0,1.7,0c1.7,0.2,2.6,1,2.8,2.8c0,0.5,0,0.9,0,1.4c0,27.4,0,54.9,0,82.3c0,4.9-1.6,8.4-6.5,9.9
		C95.6,156.4,51.1,156.4,6.7,156.4z M141.1,86.1c-45.3,0-90.3,0-135.6,0c0,0.7,0,1.2,0,1.6c0,19.9,0,39.7,0,59.6
		c0,3,0.9,3.8,3.8,3.8c42.7,0,85.2,0,128,0c3,0,3.8-0.9,3.8-3.8c0-19.9,0-39.7,0-59.6C141.1,87.1,141.1,86.6,141.1,86.1z M36.8,80.7
		c0-3.7,0-7.1,0-10.8c0-0.9-0.3-1.7-0.9-2.3c-3.5-4.5-7.1-9.1-10.8-13.6c-2.6-3.3-5.2-6.5-7.7-9.6c-4,0-7.8,0-11.9,0
		c0,12.2,0,24.2,0,36.3C15.9,80.7,26.2,80.7,36.8,80.7z M73.3,41.8c4.7-1.4,9.2-2.8,13.6-4.4c2.1-6.1,4.4-12,6.5-18.5
		c-4.7,1.4-9.2,2.8-13.6,4.4C77.6,29.4,75.5,35.5,73.3,41.8z M126.8,25.1c2.1-6.1,4.4-12.2,6.5-18.5c-4.7,1.6-9.2,3-13.6,4.4
		c-2.1,6.1-4.4,12.2-6.5,18.5C117.9,27.9,122.3,26.5,126.8,25.1z M99.6,17.1c-2.1,6.1-4.2,12-6.5,18.5c4.7-1.6,9.2-3,13.6-4.4
		c2.1-6.1,4.2-12,6.5-18.5C108.7,14.3,104.1,15.7,99.6,17.1z M67,43.7c2.1-6.1,4.2-12,6.5-18.5c-4.9,1.6-9.2,3-13.6,4.4
		c-2.1,6.1-4.4,12.2-6.5,18.5C58.1,46.5,62.5,45.1,67,43.7z M33.5,54.4c4.9-1.6,9.2-3,13.6-4.4c2.1-6.1,4.2-12,6.5-18.5
		c-4.7,1.6-9.2,3-13.6,4.4C37.9,42,35.8,47.9,33.5,54.4z M49.9,80.7c5.1,0,9.8,0,14.3,0c3.8-5.2,7.7-10.3,11.7-15.5
		c-5.1,0-9.6,0-14.3,0C57.8,70.2,53.9,75.3,49.9,80.7z M85.1,80.7c3.8-5.1,7.7-10.1,11.7-15.5c-5.1,0-9.6,0-14.3,0
		c-3.8,5.1-7.7,10.3-11.7,15.5C75.7,80.7,80.2,80.7,85.1,80.7z M105.9,80.7c3.8-5.1,7.7-10.1,11.7-15.5c-4.9,0-9.6,0-14.3,0
		c-3.8,5.1-7.7,10.1-11.7,15.5C96.6,80.7,101.3,80.7,105.9,80.7z M124.2,65.2c-3.8,5.2-7.7,10.3-11.7,15.5c5.1,0,9.6,0,14.3,0
		c3.8-5.1,7.7-10.3,11.7-15.5C133.4,65.2,128.9,65.2,124.2,65.2z M55,65.2c-4.9,0-9.4,0-13.8,0c1.7,5.1,0.2,10.3,1,15.9
		c0.7-0.5,1.4-0.9,1.7-1.4c3.1-4.2,6.3-8.4,9.6-12.7C54.1,66.6,54.4,65.9,55,65.2z M29.2,50.7c1.6-4.4,3-8.5,4.5-12.9
		c-4.2,1.2-8,2.4-11.9,3.7C24.5,44.8,26.7,47.6,29.2,50.7z M140.4,20.7c-1-3.3-2.1-6.5-3.1-9.9c-1.6,4.2-2.8,8-4.4,12.2
		C135.7,22.3,138,21.6,140.4,20.7z M133.4,80.7c2.8,0,5.2,0,7.7,0c0-3.3,0-6.6,0-10.1C138.3,73.9,135.9,77.2,133.4,80.7z"/>
	
		<linearGradient id="SVGID_00000077312641962113842980000005712492752153672116_" gradientUnits="userSpaceOnUse" x1="16.0001" y1="-743.5599" x2="130.6001" y2="-743.5599" gradientTransform="matrix(1 0 0 -1 0 -610.8198)">
		<stop  offset="0" style="stop-color:#5A5A59"/>
		<stop  offset="7.713336e-02" style="stop-color:#5E5E5D"/>
		<stop  offset="0.155" style="stop-color:#6A6A69"/>
		<stop  offset="0.2332" style="stop-color:#7E7E7D"/>
		<stop  offset="0.3116" style="stop-color:#9A9A9A"/>
		<stop  offset="0.3903" style="stop-color:#BFBEBE"/>
		<stop  offset="0.4681" style="stop-color:#EAEAEA"/>
		<stop  offset="0.5006" style="stop-color:#FFFFFF"/>
		<stop  offset="0.5585" style="stop-color:#F0F0F0"/>
		<stop  offset="0.6696" style="stop-color:#C9C9C9"/>
		<stop  offset="0.748" style="stop-color:#AAAAA9"/>
		<stop  offset="0.8078" style="stop-color:#8E8D8D"/>
		<stop  offset="0.8868" style="stop-color:#6F6E6E"/>
		<stop  offset="0.9537" style="stop-color:#5C5B5B"/>
		<stop  offset="1" style="stop-color:#555454"/>
	</linearGradient>
	<path style="fill:url(#SVGID_00000077312641962113842980000005712492752153672116_);" d="M130.6,122.5c0,1.7,0,3.3,0,5.1
		c-11.3,0-22.5,0-33.8,0c0,5.2,0,10.3,0,15.5c-1.7,0-3.5,0-5.2,0c0-5.1,0-10.3,0-15.3c-12.2,0-24.4,0-36.6,0c0,5.2,0,10.3,0,15.3
		c-1.7,0-3.5,0-5.2,0c0-5.1,0-10.3,0-15.5c-11.3,0-22.5,0-33.8,0c0-1.7,0-3.5,0-5.2C54.3,122.5,92.5,122.5,130.6,122.5z"/>
	
		<linearGradient id="SVGID_00000070108559406483255600000005084587836204007581_" gradientUnits="userSpaceOnUse" x1="16.1001" y1="-714.9599" x2="130.6001" y2="-714.9599" gradientTransform="matrix(1 0 0 -1 0 -610.8198)">
		<stop  offset="0" style="stop-color:#5A5A59"/>
		<stop  offset="7.713336e-02" style="stop-color:#5E5E5D"/>
		<stop  offset="0.155" style="stop-color:#6A6A69"/>
		<stop  offset="0.2332" style="stop-color:#7E7E7D"/>
		<stop  offset="0.3116" style="stop-color:#9A9A9A"/>
		<stop  offset="0.3903" style="stop-color:#BFBEBE"/>
		<stop  offset="0.4681" style="stop-color:#EAEAEA"/>
		<stop  offset="0.5006" style="stop-color:#FFFFFF"/>
		<stop  offset="0.5585" style="stop-color:#F0F0F0"/>
		<stop  offset="0.6696" style="stop-color:#C9C9C9"/>
		<stop  offset="0.748" style="stop-color:#AAAAA9"/>
		<stop  offset="0.8078" style="stop-color:#8E8D8D"/>
		<stop  offset="0.8868" style="stop-color:#6F6E6E"/>
		<stop  offset="0.9537" style="stop-color:#5C5B5B"/>
		<stop  offset="1" style="stop-color:#555454"/>
	</linearGradient>
	<path style="fill:url(#SVGID_00000070108559406483255600000005084587836204007581_);" d="M130.6,101.6c0,1.7,0,3.3,0,5.1
		c-38.2,0-76.4,0-114.5,0c0-1.6,0-3.3,0-5.1C54.3,101.6,92.5,101.6,130.6,101.6z"/>
	
		<linearGradient id="SVGID_00000002383764910440661510000009573416758792560516_" gradientUnits="userSpaceOnUse" x1="10.8242" y1="-662.8599" x2="15.8442" y2="-662.8599" gradientTransform="matrix(1 0 0 -1 0 -610.8198)">
		<stop  offset="0" style="stop-color:#5A5A59"/>
		<stop  offset="7.713336e-02" style="stop-color:#5E5E5D"/>
		<stop  offset="0.155" style="stop-color:#6A6A69"/>
		<stop  offset="0.2332" style="stop-color:#7E7E7D"/>
		<stop  offset="0.3116" style="stop-color:#9A9A9A"/>
		<stop  offset="0.3903" style="stop-color:#BFBEBE"/>
		<stop  offset="0.4681" style="stop-color:#EAEAEA"/>
		<stop  offset="0.5006" style="stop-color:#FFFFFF"/>
		<stop  offset="0.5585" style="stop-color:#F0F0F0"/>
		<stop  offset="0.6696" style="stop-color:#C9C9C9"/>
		<stop  offset="0.748" style="stop-color:#AAAAA9"/>
		<stop  offset="0.8078" style="stop-color:#8E8D8D"/>
		<stop  offset="0.8868" style="stop-color:#6F6E6E"/>
		<stop  offset="0.9537" style="stop-color:#5C5B5B"/>
		<stop  offset="1" style="stop-color:#555454"/>
	</linearGradient>
	<path style="fill:url(#SVGID_00000002383764910440661510000009573416758792560516_);" d="M10.9,49.5c1.7,0,3.3,0,5.1,0
		c0,1.7,0,3.3,0,5.1c-1.7,0-3.3,0-5.1,0C10.9,52.8,10.9,51.2,10.9,49.5z"/>
	
		<linearGradient id="SVGID_00000093157795200867625580000000617512168000800682_" gradientUnits="userSpaceOnUse" x1="10.8483" y1="-683.7599" x2="15.8442" y2="-683.7599" gradientTransform="matrix(1 0 0 -1 0 -610.8198)">
		<stop  offset="0" style="stop-color:#5A5A59"/>
		<stop  offset="7.713336e-02" style="stop-color:#5E5E5D"/>
		<stop  offset="0.155" style="stop-color:#6A6A69"/>
		<stop  offset="0.2332" style="stop-color:#7E7E7D"/>
		<stop  offset="0.3116" style="stop-color:#9A9A9A"/>
		<stop  offset="0.3903" style="stop-color:#BFBEBE"/>
		<stop  offset="0.4681" style="stop-color:#EAEAEA"/>
		<stop  offset="0.5006" style="stop-color:#FFFFFF"/>
		<stop  offset="0.5585" style="stop-color:#F0F0F0"/>
		<stop  offset="0.6696" style="stop-color:#C9C9C9"/>
		<stop  offset="0.748" style="stop-color:#AAAAA9"/>
		<stop  offset="0.8078" style="stop-color:#8E8D8D"/>
		<stop  offset="0.8868" style="stop-color:#6F6E6E"/>
		<stop  offset="0.9537" style="stop-color:#5C5B5B"/>
		<stop  offset="1" style="stop-color:#555454"/>
	</linearGradient>
	<path style="fill:url(#SVGID_00000093157795200867625580000000617512168000800682_);" d="M10.9,70.4c1.7,0,3.3,0,5.1,0
		c0,1.7,0,3.3,0,5.1c-1.7,0-3.3,0-5.1,0C10.9,73.7,10.9,72.2,10.9,70.4z"/>
	
		<linearGradient id="SVGID_00000070826149551671950370000000828755466905399968_" gradientUnits="userSpaceOnUse" x1="26.4935" y1="-683.7599" x2="31.4777" y2="-683.7599" gradientTransform="matrix(1 0 0 -1 0 -610.8198)">
		<stop  offset="0" style="stop-color:#5A5A59"/>
		<stop  offset="7.713336e-02" style="stop-color:#5E5E5D"/>
		<stop  offset="0.155" style="stop-color:#6A6A69"/>
		<stop  offset="0.2332" style="stop-color:#7E7E7D"/>
		<stop  offset="0.3116" style="stop-color:#9A9A9A"/>
		<stop  offset="0.3903" style="stop-color:#BFBEBE"/>
		<stop  offset="0.4681" style="stop-color:#EAEAEA"/>
		<stop  offset="0.5006" style="stop-color:#FFFFFF"/>
		<stop  offset="0.5585" style="stop-color:#F0F0F0"/>
		<stop  offset="0.6696" style="stop-color:#C9C9C9"/>
		<stop  offset="0.748" style="stop-color:#AAAAA9"/>
		<stop  offset="0.8078" style="stop-color:#8E8D8D"/>
		<stop  offset="0.8868" style="stop-color:#6F6E6E"/>
		<stop  offset="0.9537" style="stop-color:#5C5B5B"/>
		<stop  offset="1" style="stop-color:#555454"/>
	</linearGradient>
	<path style="fill:url(#SVGID_00000070826149551671950370000000828755466905399968_);" d="M26.6,70.4c1.7,0,3.3,0,5.1,0
		c0,1.6,0,3.3,0,5.1c-1.6,0-3.3,0-5.1,0C26.6,73.7,26.6,72.2,26.6,70.4z"/>
</g>
</svg>
