<?xml version="1.0" encoding="utf-8"?>
<!-- Generator: Adobe Illustrator 27.2.0, SVG Export Plug-In . SVG Version: 6.00 Build 0)  -->
<svg version="1.1" id="Слой_1" xmlns="http://www.w3.org/2000/svg" xmlns:xlink="http://www.w3.org/1999/xlink" x="0px" y="0px"
	 viewBox="0 0 146.1 146.3" style="enable-background:new 0 0 146.1 146.3;" xml:space="preserve">
<style type="text/css">
	.st0{fill:url(#SVGID_1_);}
	.st1{fill:url(#SVGID_00000177484262854634797510000010160375462548456076_);}
	.st2{fill:url(#SVGID_00000121999048224020253460000011635581044761698235_);}
	.st3{fill:url(#SVGID_00000080921634937871842320000004976348609964193188_);}
	.st4{fill:url(#SVGID_00000051342531416381763700000018055445161610398597_);}
	.st5{fill:url(#SVGID_00000115505272142400171880000002698295367926698645_);}
	.st6{fill:url(#SVGID_00000092443581203658867620000006160732942465282749_);}
	.st7{fill:url(#SVGID_00000027567371969063261260000017355187690404157628_);}
	.st8{fill:url(#SVGID_00000128483595174927031800000017590400097840915338_);}
</style>
<g>
	
		<linearGradient id="SVGID_1_" gradientUnits="userSpaceOnUse" x1="-0.2947" y1="-705.9497" x2="146.1107" y2="-705.9497" gradientTransform="matrix(1 0 0 -1 0 -620.8)">
		<stop  offset="0" style="stop-color:#5A5A59"/>
		<stop  offset="7.713336e-02" style="stop-color:#5E5E5D"/>
		<stop  offset="0.155" style="stop-color:#6A6A69"/>
		<stop  offset="0.2332" style="stop-color:#7E7E7D"/>
		<stop  offset="0.3116" style="stop-color:#9A9A9A"/>
		<stop  offset="0.3903" style="stop-color:#BFBEBE"/>
		<stop  offset="0.4681" style="stop-color:#EAEAEA"/>
		<stop  offset="0.5006" style="stop-color:#FFFFFF"/>
		<stop  offset="0.5585" style="stop-color:#F0F0F0"/>
		<stop  offset="0.6696" style="stop-color:#C9C9C9"/>
		<stop  offset="0.748" style="stop-color:#AAAAA9"/>
		<stop  offset="0.8078" style="stop-color:#8E8D8D"/>
		<stop  offset="0.8868" style="stop-color:#6F6E6E"/>
		<stop  offset="0.9537" style="stop-color:#5C5B5B"/>
		<stop  offset="1" style="stop-color:#555454"/>
	</linearGradient>
	<path class="st0" d="M126.6,132.1c0-17.6,0-35.2,0-53.1c-7,7.3-14.6,12.9-23.7,16.9c1,2.8,1.9,5.6,2.8,8.2
		c4.4,12.7,8.7,25.4,13.1,38c1,3,0.2,4.2-3,4.2c-28.6,0-57.1,0-85.7,0c-3.1,0-4-1.2-3-4.2c5-14.8,10.1-29.4,15.1-44.2
		c0.2-0.7,0.3-1.2,0.7-1.9c-8.9-4-16.7-9.6-23.5-16.9c0,17.8,0,35.3,0,52.9c3.7,1.6,5,4.7,4.7,8.5c0,1,0,2.1,0,3.1
		c0,1.6-0.9,2.6-2.6,2.6c-6.4,0-12.9,0-19.2,0c-1.6,0-2.6-0.9-2.6-2.6s0-3.5,0-5.2c0.2-2.8,1.4-4.5,4.9-6.6c0-21.2,0-42.7,0-64.1
		c-5.4-2.6-6.8-9.1-1.6-13.2c-4.5-6.6-4.2-13.1,0.9-17.6c4.5-4,11.7-4,16.2,0c5,4.5,5.4,11.1,0.9,17.6c3.3,3.3,3.8,4.7,3,8.5
		c3.3,3.8,6.4,7.5,9.4,11c0.2-0.2,0.3-0.3,0.5-0.5c0-11,0-22.1,0-33.3c-4.4-5.6-1.9-11.3,1-13.9c3.7-3.1,9.2-3.1,12.9,0.2
		c3.8,3.5,4.4,8.5,1,13.6c11.3,12,34.5,13.8,48.4,0c-1.9-2.6-2.8-5.4-1.9-8.5c0.5-2.3,1.7-4.2,3.7-5.6c3.8-2.8,9.2-2.4,12.5,0.9
		c3.7,3.7,4,8.7,0.5,13.6c0,11,0,22.1,0,33.6c3.7-3.5,7-6.8,10.4-10.1c-1.4-3.8-0.5-7,2.6-9.6c-2.4-2.8-3.7-6.1-3.3-9.8
		c0.3-3.1,1.7-5.7,4.2-7.8c4.7-4,11.7-3.8,16.2,0.3c5,4.5,5.2,11,0.7,17.4c5.4,4.5,3.5,11.1-1.6,13.2c0,21.4,0,42.8,0,64.2
		c3.7,1.6,5,4.5,4.9,8.5c0,1,0,2.3,0,3.3c0,1.4-1,2.4-2.4,2.4c-6.4,0-13.1,0-19.5,0c-1.2,0-2.3-0.7-2.3-1.9
		c-0.2-2.3-0.2-4.5,0.2-6.8C122.4,134.9,124.3,133.2,126.6,132.1z M32.6,141.4c27.2,0,54,0,81,0c-5-14.6-9.9-29.1-15-43.5
		c-17.1,6.1-34,6.1-51,0C42.5,112.4,37.6,126.7,32.6,141.4z M97.5,47c-16.4,10.6-32.6,10.6-48.8,0c0,0.7,0,1.2,0,1.7
		c0,8,0,15.8,0,23.9c0,2.3-0.9,3-3,3.1c-2.6,0-5.4,0-8,0c-0.3,0-0.7,0-1,0.2c0,0.2,0,0.3-0.2,0.3c3.7,2.1,7.5,4.4,11.3,6.4
		c1.2-3.5,2.3-6.6,3.3-9.8c0.5-1.4,1.4-2.1,3-2.1c12.7,0,25.6,0,38.3,0c1.4,0,2.3,0.7,2.8,1.9c0.5,1.4,1,3,1.6,4.4
		c0.7,1.7,1.2,3.7,1.9,5.4c4.2-1.9,7.8-4,11.7-6.8c-3.5,0-6.4,0-9.4,0c-2.4,0-3.3-0.7-3.3-3.3c0-7.8,0-15.7,0-23.7
		C97.5,48.2,97.5,47.5,97.5,47z M126.6,67.4c-0.7,0.5-1,0.7-1.4,1c-1.4,1.2-2.6,2.6-3.8,3.8C106.6,87,88.7,93.8,67.8,92.4
		C54.7,91.5,42.9,87,32.5,78.8c-4-3.1-7.7-7-11.3-10.4c-0.3-0.3-0.9-0.7-1.6-1c0,1.9,0,3.3,0,4.7c29.9,34.3,78.2,33.4,107.2,0
		C126.6,70.7,126.6,69.3,126.6,67.4z M90.9,75.7c-12,0-23.9,0-35.7,0c-1,2.8-1.9,5.7-3,8.5c13.9,4.7,27.7,4.7,41.4,0
		C92.8,81.3,91.8,78.5,90.9,75.7z M9.6,68.2c0,21.2,0,42.3,0,63.2c1.6,0,3.1,0,4.7,0c0-21.1,0-42.1,0-63.2
		C12.7,68.2,11.3,68.2,9.6,68.2z M131.6,68.2c0,21.2,0,42.3,0,63.2c1.6,0,3.1,0,4.7,0c0-21.1,0-42.1,0-63.2
		C134.8,68.2,133.4,68.2,131.6,68.2z M19.3,46.3c0-4-3.3-7.3-7.5-7.3c-4,0-7.3,3.3-7.1,7.3c0,4,3.3,7.3,7.5,7.3
		C16,53.6,19.3,50.3,19.3,46.3z M134.1,39c-4,0-7.3,3.3-7.3,7.3s3.3,7.3,7.3,7.3s7.3-3.3,7.3-7.3S138.1,39,134.1,39z M43.7,70.7
		c0-9.1,0-18.1,0-26.8c-1.6,0-3.1,0-4.7,0c0,8.9,0,17.9,0,26.8C40.6,70.7,42,70.7,43.7,70.7z M107.1,70.7c0-9.1,0-18.1,0-26.8
		c-1.6,0-3.1,0-4.7,0c0,8.9,0,17.9,0,26.8C104,70.7,105.5,70.7,107.1,70.7z M46.1,33.9c0-2.6-2.3-4.9-4.9-4.9
		c-2.6,0-4.9,2.3-4.9,4.9c0,2.8,2.3,4.9,5,4.9C44.1,39,46.1,36.7,46.1,33.9z M109.7,34.1c0-2.6-2.1-4.9-4.7-4.9s-4.9,2.1-4.9,4.7
		c0,2.8,2.1,5,4.9,5C107.4,39,109.5,36.7,109.7,34.1z M4.7,141.4c5,0,9.8,0,14.6,0c0-0.5,0-1,0-1.6c0-2.4-0.9-3.1-3.1-3.1
		c-3,0-5.7,0-8.7,0c-1.7,0-2.8,0.9-2.8,2.6C4.7,140,4.7,140.7,4.7,141.4z M126.8,141.4c5,0,9.8,0,14.6,0c0-0.9,0-1.6,0-2.4
		c-0.2-1.4-0.9-2.3-2.3-2.3c-3.3,0-6.6,0-9.9,0c-1.4,0-2.3,0.9-2.4,2.3C126.6,139.6,126.8,140.5,126.8,141.4z M12,63.4
		c1.6,0,3.1,0,4.5,0c1.7,0,2.8-1,2.8-2.4s-1-2.4-2.8-2.4c-3.1,0-6.1,0-9.2,0c-1.7,0-2.8,1-2.8,2.4c0,1.6,1,2.4,2.8,2.4
		S10.5,63.4,12,63.4z M133.9,63.4c1.6,0,3.3,0,4.9,0s2.6-1,2.6-2.4s-1-2.4-2.6-2.4c-3.1,0-6.3,0-9.4,0c-1.6,0-2.6,1-2.6,2.4
		s1,2.4,2.6,2.4C130.8,63.4,132.3,63.4,133.9,63.4z"/>
	
		<linearGradient id="SVGID_00000078739694694563418150000003199827258460398770_" gradientUnits="userSpaceOnUse" x1="53.3466" y1="54.4361" x2="109.9553" y2="-14.6943">
		<stop  offset="0" style="stop-color:#5A5A59"/>
		<stop  offset="7.713336e-02" style="stop-color:#5E5E5D"/>
		<stop  offset="0.155" style="stop-color:#6A6A69"/>
		<stop  offset="0.2332" style="stop-color:#7E7E7D"/>
		<stop  offset="0.3116" style="stop-color:#9A9A9A"/>
		<stop  offset="0.3903" style="stop-color:#BFBEBE"/>
		<stop  offset="0.4681" style="stop-color:#EAEAEA"/>
		<stop  offset="0.5006" style="stop-color:#FFFFFF"/>
		<stop  offset="0.5585" style="stop-color:#F0F0F0"/>
		<stop  offset="0.6696" style="stop-color:#C9C9C9"/>
		<stop  offset="0.748" style="stop-color:#AAAAA9"/>
		<stop  offset="0.8078" style="stop-color:#8E8D8D"/>
		<stop  offset="0.8868" style="stop-color:#6F6E6E"/>
		<stop  offset="0.9537" style="stop-color:#5C5B5B"/>
		<stop  offset="1" style="stop-color:#555454"/>
	</linearGradient>
	<path style="fill:url(#SVGID_00000078739694694563418150000003199827258460398770_);" d="M95.4,21.9c-0.9,0.9-1.4,1.9-2.1,2.3
		c-1.9,1.2-3.8,2.1-5.7,3.1c-0.7,0.3-1.2,1-1.6,1.7c-1.2,2.6-2.3,5.2-3.3,7.8c-0.5,1-1,1.9-2.4,1.9s-2.1-0.9-2.6-2.1
		c-1-2.6-2.3-5.4-3.3-8c-0.3-0.5-0.9-1.2-1.4-1.6c-1.9-1-3.8-2.1-5.7-3.1c-2.3-1.4-2.3-3.5,0-4.9c1.4-0.9,3-1.7,4.4-2.4
		c1.7-0.7,2.6-1.9,3.3-3.7c0.9-2.3,1.9-4.5,2.8-6.8c0.5-1,1.2-1.7,2.4-1.9c1.2,0,2.1,0.7,2.4,1.9c1,2.8,2.3,5.4,3.5,8.2
		c0.3,0.5,0.9,1.2,1.4,1.6c1.9,1.2,4,2.1,5.9,3.3C94.2,20,94.5,20.9,95.4,21.9z M87.6,22.1c-1.9-1.2-3.7-2.1-4.9-3.3
		c-1-1.4-1.6-3.1-2.3-4.9c-0.2,0-0.2-0.2-0.3-0.2c-0.9,3.8-2.8,6.8-6.8,8c4.2,1.2,5.7,4.4,7,8C81.7,26.3,83.2,23.1,87.6,22.1z"/>
	
		<linearGradient id="SVGID_00000015354656789206720120000018268159891745514880_" gradientUnits="userSpaceOnUse" x1="32.299" y1="37.2009" x2="88.9077" y2="-31.9296">
		<stop  offset="0" style="stop-color:#5A5A59"/>
		<stop  offset="7.713336e-02" style="stop-color:#5E5E5D"/>
		<stop  offset="0.155" style="stop-color:#6A6A69"/>
		<stop  offset="0.2332" style="stop-color:#7E7E7D"/>
		<stop  offset="0.3116" style="stop-color:#9A9A9A"/>
		<stop  offset="0.3903" style="stop-color:#BFBEBE"/>
		<stop  offset="0.4681" style="stop-color:#EAEAEA"/>
		<stop  offset="0.5006" style="stop-color:#FFFFFF"/>
		<stop  offset="0.5585" style="stop-color:#F0F0F0"/>
		<stop  offset="0.6696" style="stop-color:#C9C9C9"/>
		<stop  offset="0.748" style="stop-color:#AAAAA9"/>
		<stop  offset="0.8078" style="stop-color:#8E8D8D"/>
		<stop  offset="0.8868" style="stop-color:#6F6E6E"/>
		<stop  offset="0.9537" style="stop-color:#5C5B5B"/>
		<stop  offset="1" style="stop-color:#555454"/>
	</linearGradient>
	<path style="fill:url(#SVGID_00000015354656789206720120000018268159891745514880_);" d="M58.3,4.9c0-1.6,0-3.1,0-4.9
		c1.6,0,3.1,0,4.9,0c0,1.6,0,3.1,0,4.9l0,0C61.6,4.7,60.1,4.7,58.3,4.9L58.3,4.9z"/>
	
		<linearGradient id="SVGID_00000098940499773474968990000015746818870679725228_" gradientUnits="userSpaceOnUse" x1="31.6696" y1="36.6855" x2="88.2783" y2="-32.4449">
		<stop  offset="0" style="stop-color:#5A5A59"/>
		<stop  offset="7.713336e-02" style="stop-color:#5E5E5D"/>
		<stop  offset="0.155" style="stop-color:#6A6A69"/>
		<stop  offset="0.2332" style="stop-color:#7E7E7D"/>
		<stop  offset="0.3116" style="stop-color:#9A9A9A"/>
		<stop  offset="0.3903" style="stop-color:#BFBEBE"/>
		<stop  offset="0.4681" style="stop-color:#EAEAEA"/>
		<stop  offset="0.5006" style="stop-color:#FFFFFF"/>
		<stop  offset="0.5585" style="stop-color:#F0F0F0"/>
		<stop  offset="0.6696" style="stop-color:#C9C9C9"/>
		<stop  offset="0.748" style="stop-color:#AAAAA9"/>
		<stop  offset="0.8078" style="stop-color:#8E8D8D"/>
		<stop  offset="0.8868" style="stop-color:#6F6E6E"/>
		<stop  offset="0.9537" style="stop-color:#5C5B5B"/>
		<stop  offset="1" style="stop-color:#555454"/>
	</linearGradient>
	<path style="fill:url(#SVGID_00000098940499773474968990000015746818870679725228_);" d="M58.3,9.6c-1.6,0-3.1,0-4.9,0
		c0-1.6,0-3.1,0-4.9c1.6,0,3.1,0,4.9,0l0,0C58.3,6.4,58.3,8,58.3,9.6L58.3,9.6z"/>
	
		<linearGradient id="SVGID_00000165938246566483868340000008811967578437664950_" gradientUnits="userSpaceOnUse" x1="37.634" y1="41.5696" x2="94.2427" y2="-27.5609">
		<stop  offset="0" style="stop-color:#5A5A59"/>
		<stop  offset="7.713336e-02" style="stop-color:#5E5E5D"/>
		<stop  offset="0.155" style="stop-color:#6A6A69"/>
		<stop  offset="0.2332" style="stop-color:#7E7E7D"/>
		<stop  offset="0.3116" style="stop-color:#9A9A9A"/>
		<stop  offset="0.3903" style="stop-color:#BFBEBE"/>
		<stop  offset="0.4681" style="stop-color:#EAEAEA"/>
		<stop  offset="0.5006" style="stop-color:#FFFFFF"/>
		<stop  offset="0.5585" style="stop-color:#F0F0F0"/>
		<stop  offset="0.6696" style="stop-color:#C9C9C9"/>
		<stop  offset="0.748" style="stop-color:#AAAAA9"/>
		<stop  offset="0.8078" style="stop-color:#8E8D8D"/>
		<stop  offset="0.8868" style="stop-color:#6F6E6E"/>
		<stop  offset="0.9537" style="stop-color:#5C5B5B"/>
		<stop  offset="1" style="stop-color:#555454"/>
	</linearGradient>
	<path style="fill:url(#SVGID_00000165938246566483868340000008811967578437664950_);" d="M63.2,4.9c1.6,0,3.1,0,4.9,0
		c0,1.6,0,3.1,0,4.9c-1.6,0-3.1,0-4.9,0l0,0C63.2,8,63.2,6.4,63.2,4.9L63.2,4.9z"/>
	
		<linearGradient id="SVGID_00000041261424946298870370000007124190570104169091_" gradientUnits="userSpaceOnUse" x1="66.797" y1="65.4502" x2="123.4057" y2="-3.6802">
		<stop  offset="0" style="stop-color:#5A5A59"/>
		<stop  offset="7.713336e-02" style="stop-color:#5E5E5D"/>
		<stop  offset="0.155" style="stop-color:#6A6A69"/>
		<stop  offset="0.2332" style="stop-color:#7E7E7D"/>
		<stop  offset="0.3116" style="stop-color:#9A9A9A"/>
		<stop  offset="0.3903" style="stop-color:#BFBEBE"/>
		<stop  offset="0.4681" style="stop-color:#EAEAEA"/>
		<stop  offset="0.5006" style="stop-color:#FFFFFF"/>
		<stop  offset="0.5585" style="stop-color:#F0F0F0"/>
		<stop  offset="0.6696" style="stop-color:#C9C9C9"/>
		<stop  offset="0.748" style="stop-color:#AAAAA9"/>
		<stop  offset="0.8078" style="stop-color:#8E8D8D"/>
		<stop  offset="0.8868" style="stop-color:#6F6E6E"/>
		<stop  offset="0.9537" style="stop-color:#5C5B5B"/>
		<stop  offset="1" style="stop-color:#555454"/>
	</linearGradient>
	<path style="fill:url(#SVGID_00000041261424946298870370000007124190570104169091_);" d="M112.1,9.6c0-1.6,0-3.1,0-4.7
		c1.6,0,3.1,0,4.7,0c0,1.6,0,3,0,4.7C115.3,9.6,113.7,9.6,112.1,9.6z"/>
	
		<linearGradient id="SVGID_00000159451820021501261580000000200458031950961801_" gradientUnits="userSpaceOnUse" x1="19.7257" y1="26.9051" x2="76.3344" y2="-42.2254">
		<stop  offset="0" style="stop-color:#5A5A59"/>
		<stop  offset="7.713336e-02" style="stop-color:#5E5E5D"/>
		<stop  offset="0.155" style="stop-color:#6A6A69"/>
		<stop  offset="0.2332" style="stop-color:#7E7E7D"/>
		<stop  offset="0.3116" style="stop-color:#9A9A9A"/>
		<stop  offset="0.3903" style="stop-color:#BFBEBE"/>
		<stop  offset="0.4681" style="stop-color:#EAEAEA"/>
		<stop  offset="0.5006" style="stop-color:#FFFFFF"/>
		<stop  offset="0.5585" style="stop-color:#F0F0F0"/>
		<stop  offset="0.6696" style="stop-color:#C9C9C9"/>
		<stop  offset="0.748" style="stop-color:#AAAAA9"/>
		<stop  offset="0.8078" style="stop-color:#8E8D8D"/>
		<stop  offset="0.8868" style="stop-color:#6F6E6E"/>
		<stop  offset="0.9537" style="stop-color:#5C5B5B"/>
		<stop  offset="1" style="stop-color:#555454"/>
	</linearGradient>
	<path style="fill:url(#SVGID_00000159451820021501261580000000200458031950961801_);" d="M31.5,12c0-1.6,0-3.1,0-4.7
		c1.6,0,3.1,0,4.7,0c0,1.6,0,3.1,0,4.7C34.8,12,33.3,12,31.5,12z"/>
	
		<linearGradient id="SVGID_00000029007424361742586220000011924499795482049191_" gradientUnits="userSpaceOnUse" x1="37.0047" y1="41.0542" x2="93.6134" y2="-28.0762">
		<stop  offset="0" style="stop-color:#5A5A59"/>
		<stop  offset="7.713336e-02" style="stop-color:#5E5E5D"/>
		<stop  offset="0.155" style="stop-color:#6A6A69"/>
		<stop  offset="0.2332" style="stop-color:#7E7E7D"/>
		<stop  offset="0.3116" style="stop-color:#9A9A9A"/>
		<stop  offset="0.3903" style="stop-color:#BFBEBE"/>
		<stop  offset="0.4681" style="stop-color:#EAEAEA"/>
		<stop  offset="0.5006" style="stop-color:#FFFFFF"/>
		<stop  offset="0.5585" style="stop-color:#F0F0F0"/>
		<stop  offset="0.6696" style="stop-color:#C9C9C9"/>
		<stop  offset="0.748" style="stop-color:#AAAAA9"/>
		<stop  offset="0.8078" style="stop-color:#8E8D8D"/>
		<stop  offset="0.8868" style="stop-color:#6F6E6E"/>
		<stop  offset="0.9537" style="stop-color:#5C5B5B"/>
		<stop  offset="1" style="stop-color:#555454"/>
	</linearGradient>
	<path style="fill:url(#SVGID_00000029007424361742586220000011924499795482049191_);" d="M63.2,9.6c0,1.6,0,3.1,0,4.9
		c-1.6,0-3.1,0-4.9,0c0-1.6,0-3.1,0-4.9l0,0C60.1,9.7,61.6,9.7,63.2,9.6L63.2,9.6z"/>
	
		<linearGradient id="SVGID_00000057133374724186125070000005483697169807209145_" gradientUnits="userSpaceOnUse" x1="47.8485" y1="49.9339" x2="104.4572" y2="-19.1965">
		<stop  offset="0" style="stop-color:#5A5A59"/>
		<stop  offset="7.713336e-02" style="stop-color:#5E5E5D"/>
		<stop  offset="0.155" style="stop-color:#6A6A69"/>
		<stop  offset="0.2332" style="stop-color:#7E7E7D"/>
		<stop  offset="0.3116" style="stop-color:#9A9A9A"/>
		<stop  offset="0.3903" style="stop-color:#BFBEBE"/>
		<stop  offset="0.4681" style="stop-color:#EAEAEA"/>
		<stop  offset="0.5006" style="stop-color:#FFFFFF"/>
		<stop  offset="0.5585" style="stop-color:#F0F0F0"/>
		<stop  offset="0.6696" style="stop-color:#C9C9C9"/>
		<stop  offset="0.748" style="stop-color:#AAAAA9"/>
		<stop  offset="0.8078" style="stop-color:#8E8D8D"/>
		<stop  offset="0.8868" style="stop-color:#6F6E6E"/>
		<stop  offset="0.9537" style="stop-color:#5C5B5B"/>
		<stop  offset="1" style="stop-color:#555454"/>
	</linearGradient>
	<path style="fill:url(#SVGID_00000057133374724186125070000005483697169807209145_);" d="M58.5,31.7c1.6,0,3.1,0,4.7,0
		c0,1.6,0,3.1,0,4.7c-1.6,0-3.1,0-4.7,0C58.5,34.8,58.5,33.4,58.5,31.7z"/>
</g>
</svg>
